<svg width="961" height="367" viewBox="0 0 961 367" fill="none" xmlns="http://www.w3.org/2000/svg">
<path d="M35.3213 241.276C102.821 272.276 141.321 314.276 150.135 324.864C179.321 356.776 224.155 370.394 268.62 365.368C297.391 362.116 324.593 351.177 352.056 342.603C419.015 321.908 486.496 302.395 555.024 289.682C583.272 284.36 612.044 284.065 640.815 282.882C662.001 281.995 680.571 276.969 691.295 253.908C695.219 245.334 698.88 250.656 702.281 253.613C715.097 264.552 727.652 276.378 742.299 283.769C752.761 289.091 763.223 294.117 774.732 288.204C780.486 285.247 783.625 289.386 787.548 292.638C797.226 300.325 806.38 308.308 816.058 315.699C825.212 322.795 835.936 329.89 846.137 328.116C864.184 324.864 880.662 330.482 897.663 333.438C924.865 338.168 941.769 320.247 957.201 298.073C960.302 291.781 963.431 288.173 957.821 280.221C942.39 258.343 919.373 246.813 901.325 228.482C858.168 183.248 808.473 146.587 762.177 104.901C743.345 87.7531 720.851 77.701 698.096 69.1272C641.6 47.8404 584.057 30.3971 526.776 13.2494C506.898 7.33643 487.019 12.0668 467.141 15.0233C395.998 25.0754 327.35 27.5754 259.821 33.7756C204.821 44.0448 172.821 31.7756 172.821 31.7756C140.821 19.2756 161.821 26.2756 124.821 13.2756L95.3213 2.27557C95.3213 2.27557 59.8213 -5.72443 80.3213 8.27557L124.821 27.7756L172.821 49.7756C202.321 56.7756 206.821 51.9795 220.821 51.9795L299.821 42.7756C312.321 42.7756 432.616 30.6927 499.836 20.6407C511.083 18.8668 522.853 21.232 533.315 25.0754C588.242 45.7709 645.261 57.8925 699.665 80.6576C723.728 90.7097 746.745 103.423 766.885 122.344C804.811 157.822 847.183 187.387 883.801 225.822C887.201 229.369 892.171 232.03 889.294 240.013C857.645 213.7 825.212 189.457 795.395 161.37C762.962 130.622 728.175 108.449 686.326 98.6922C638.984 87.7532 593.473 68.8315 548.224 49.91C513.96 35.4231 479.696 40.7448 445.17 47.5448C442.032 48.1361 437.324 49.0231 438.631 54.6404C439.939 59.6664 444.386 58.1882 447.524 57.8925C459.556 56.1186 471.849 54.6404 483.619 51.9795C505.851 46.9535 527.038 52.5708 547.439 61.1447C600.273 82.7271 653.893 101.649 708.558 116.136C740.468 124.414 764.27 147.474 788.594 169.944C805.857 185.909 823.12 201.578 841.952 214.883C847.968 219.022 852.676 223.161 849.014 232.326C848.229 234.395 848.491 237.352 849.014 239.717C850.845 251.543 883.539 280.221 894.263 280.517C897.402 280.517 902.11 274.899 903.679 282.586C904.987 288.499 902.633 292.638 897.663 295.891C884.062 304.76 869.677 304.169 855.814 299.438C830.182 291.16 808.734 274.604 791.733 250.952C786.502 243.856 781.009 238.535 772.639 236.761C750.145 232.03 730.529 220.5 716.143 199.804C708.296 188.274 698.357 186.205 687.372 189.457C677.171 192.118 668.017 190.639 658.078 186.5C614.921 168.466 570.979 171.126 526.776 180.883C503.236 186.205 479.696 190.639 456.156 193.596C432.093 196.848 408.814 188.274 385.012 184.431C365.134 181.178 345.256 178.518 325.639 185.022C316.746 187.978 308.899 193.3 301.837 199.804C299.222 202.17 297.652 205.422 299.745 208.97C302.099 212.813 305.237 211.335 307.591 208.97C330.085 186.205 357.549 187.683 383.181 195.37C435.231 211.039 485.712 201.578 536.715 189.752C570.717 181.77 604.72 179.405 638.722 191.231C642.384 192.413 646.308 192.413 649.446 197.439C640.553 197.439 632.183 197.735 624.075 197.439C616.49 197.144 612.828 200.691 613.09 209.561C613.351 223.456 613.351 237.056 613.09 250.952C612.828 259.23 615.705 262.482 623.029 262.186C632.968 261.891 643.169 263.073 653.108 261.595C665.14 260.117 676.648 254.795 681.095 240.604C685.279 227.004 679.787 215.77 670.371 206.604C669.324 205.717 666.447 206.309 667.755 203.648C668.54 201.874 670.632 203.352 671.94 204.83C687.633 211.335 692.603 221.978 687.372 238.83C680.31 262.186 669.586 270.465 647.354 271.056C580.134 273.421 514.483 286.134 449.094 303.873C395.998 318.656 343.163 335.508 290.067 350.586C245.603 363.003 192.507 342.972 169.821 321.776C118.321 273.656 79.8213 250.276 79.8213 250.276C79.8213 250.276 59.8213 233.776 17.8213 218.776C17.8213 218.776 -32.1787 210.276 35.3213 241.276ZM689.203 201.874C696.526 195.37 702.281 197.735 707.512 204.83C724.251 227.891 746.222 240.9 771.593 247.108C775.778 247.995 778.917 249.769 781.532 253.317C800.626 279.925 824.951 298.551 853.722 308.899C856.599 310.082 860.522 310.673 859.999 314.812C859.476 319.247 855.291 318.064 852.414 318.36C839.075 318.951 827.566 312.447 817.627 303.873C779.963 271.647 740.206 242.082 699.927 214.291C695.742 211.335 691.557 208.378 689.203 201.874ZM623.29 230.552C623.29 225.526 623.552 220.796 623.29 215.769C623.029 209.856 624.86 206.309 630.614 206.9C641.338 208.083 652.323 208.378 662.001 214.883C668.278 219.317 673.248 225.23 672.463 233.804C671.678 241.787 666.186 246.517 659.908 249.769C649.969 254.795 639.507 253.021 629.045 253.021C624.598 253.021 623.029 250.065 623.029 245.334C623.291 240.308 623.29 235.578 623.29 230.552ZM875.954 313.63C906.556 309.49 915.711 300.325 914.926 274.899C923.557 278.447 930.619 286.134 940.297 285.838C948.928 285.543 948.667 290.273 945.267 296.778C930.358 326.934 893.217 332.255 875.954 313.63ZM770.024 278.152C754.33 280.812 706.204 251.839 700.188 237.352C699.404 235.874 699.142 233.213 699.927 231.735C700.973 229.074 703.588 229.369 705.419 230.552C726.867 245.63 748.838 259.821 770.024 278.152ZM897.14 266.326C895.832 269.282 893.478 271.056 891.124 269.578C878.831 261.3 868.107 250.952 859.476 238.239C858.691 236.761 859.215 232.917 860.261 231.735C862.092 229.665 864.184 232.03 865.753 233.508C876.739 241.787 885.37 252.726 894.525 263.073C895.571 263.665 896.094 264.847 897.14 266.326ZM941.957 276.806C929.141 273.553 916.273 273.922 900.409 240.756C906.686 244.304 937.773 269.414 941.957 276.806ZM657.816 194.483C659.385 194.778 661.739 194.778 661.478 197.144C661.478 200.1 659.124 201.283 657.031 200.987C655.985 200.987 654.416 198.622 654.416 197.144C653.893 194.187 656.247 194.778 657.816 194.483Z" fill="#F1A28B"/>
<path d="M582.656 212.124C577.163 209.167 574.286 210.941 574.286 217.741C574.286 230.158 574.547 242.28 574.809 254.697C575.071 259.723 576.901 267.706 581.086 264.158C586.317 259.723 598.088 267.115 597.564 254.106C597.041 241.097 595.21 227.793 593.379 214.785C592.595 209.167 589.456 207.098 585.01 211.532C583.179 225.428 589.195 239.619 585.01 253.81C581.609 239.915 583.702 226.019 582.656 212.124Z" fill="#F1A38B"/>
<path d="M556.5 243.758C558.592 249.967 552.838 262.975 562.254 262.68C571.67 262.68 565.916 249.967 567.224 243.167C568.008 238.436 567.747 233.41 568.531 228.68C569.055 224.245 568.793 220.106 564.87 218.923C559.377 217.445 558.331 223.063 557.808 227.202C556.761 232.228 557.023 237.845 556.5 243.758Z" fill="#F1A48D"/>
<path d="M657.216 194C655.312 194.421 652.456 193.579 653.09 197.786C653.408 199.89 654.994 203.255 656.264 203.255C658.803 203.676 661.659 201.993 661.659 197.786C661.977 194.421 659.12 194 657.216 194Z" fill="#F1A48D"/>
</svg>
