<svg width="1045" height="693" viewBox="0 0 1045 693" fill="none" xmlns="http://www.w3.org/2000/svg">
<path d="M1023.44 691H21.5585C10.8013 691 2 677.991 2 662.091V30.9091C2 15.0091 10.8013 2 21.5585 2H1023.44C1034.2 2 1043 15.0091 1043 30.9091V662.091C1043 677.991 1034.2 691 1023.44 691Z" fill="#F1A48D" stroke="white" stroke-width="3" stroke-miterlimit="10"/>
<path d="M78.3214 410.071C145.821 440.53 184.321 481.798 193.135 492.203C222.321 523.558 267.155 536.939 311.62 532.001C340.391 528.805 367.593 518.057 395.056 509.632C462.015 489.298 529.496 470.125 598.024 457.633C626.272 452.404 655.044 452.114 683.815 450.952C705.001 450.08 723.571 445.142 734.295 422.483C738.219 414.059 741.88 419.288 745.281 422.193C758.097 432.941 770.652 444.561 785.299 451.823C795.761 457.052 806.223 461.991 817.732 456.181C823.486 453.276 826.625 457.343 830.548 460.538C840.226 468.091 849.38 475.935 859.058 483.197C868.212 490.169 878.936 497.141 889.137 495.398C907.184 492.203 923.662 497.722 940.663 500.627C967.865 505.275 984.769 487.666 1000.2 465.879C1003.3 459.696 1006.43 456.151 1000.82 448.338C985.39 426.841 962.373 415.511 944.325 397.501C901.168 353.054 851.473 317.033 805.177 276.073C786.345 259.224 763.851 249.347 741.096 240.922C684.6 220.007 627.057 202.867 569.776 186.018C549.898 180.209 530.019 184.856 510.141 187.761C438.998 197.638 370.35 200.095 302.821 206.187C247.821 216.277 215.821 204.222 215.821 204.222C183.821 191.94 204.821 198.818 167.821 186.044L138.321 175.236C138.321 175.236 102.821 167.375 123.321 181.131L167.821 200.291L215.821 221.908C245.321 228.786 249.821 224.074 263.821 224.074L342.821 215.03C355.321 215.03 475.616 203.158 542.836 193.281C554.083 191.538 565.853 193.862 576.315 197.638C631.242 217.973 688.261 229.884 742.665 252.252C766.728 262.129 789.745 274.62 809.885 293.212C847.811 328.072 890.183 357.121 926.801 394.886C930.201 398.372 935.171 400.986 932.294 408.83C900.645 382.976 868.212 359.155 838.395 331.558C805.962 301.346 771.175 279.559 729.326 269.972C681.984 259.224 636.473 240.632 591.224 222.04C556.96 207.806 522.696 213.035 488.17 219.716C485.032 220.297 480.324 221.169 481.631 226.688C482.939 231.627 487.386 230.174 490.524 229.884C502.556 228.141 514.849 226.688 526.619 224.074C548.851 219.135 570.038 224.655 590.439 233.079C643.273 254.285 696.893 272.877 751.558 287.112C783.468 295.245 807.27 317.904 831.594 339.982C848.857 355.669 866.12 371.065 884.952 384.138C890.968 388.205 895.676 392.272 892.014 401.277C891.229 403.31 891.491 406.215 892.014 408.539C893.845 420.159 926.539 448.338 937.263 448.628C940.402 448.628 945.11 443.109 946.679 450.661C947.987 456.471 945.633 460.538 940.663 463.734C927.062 472.449 912.677 471.868 898.814 467.22C873.182 459.086 851.734 442.818 834.733 419.578C829.502 412.606 824.009 407.377 815.639 405.634C793.146 400.986 773.529 389.657 759.143 369.322C751.296 357.993 741.357 355.959 730.372 359.155C720.171 361.769 711.017 360.317 701.078 356.25C657.921 338.53 613.979 341.144 569.776 350.73C546.236 355.959 522.696 360.317 499.156 363.222C475.093 366.417 451.814 357.993 428.012 354.216C408.134 351.021 388.256 348.406 368.639 354.797C359.746 357.702 351.899 362.931 344.837 369.322C342.222 371.646 340.652 374.842 342.745 378.328C345.099 382.104 348.238 380.652 350.592 378.328C373.085 355.959 400.549 357.412 426.182 364.965C478.231 380.361 528.712 371.065 579.715 359.445C613.718 351.602 647.72 349.278 681.722 360.898C685.384 362.06 689.308 362.06 692.446 366.998C683.553 366.998 675.184 367.289 667.075 366.998C659.49 366.708 655.828 370.194 656.09 378.909C656.351 392.562 656.351 405.925 656.09 419.578C655.828 427.712 658.705 430.908 666.029 430.617C675.968 430.327 686.169 431.489 696.108 430.036C708.14 428.584 719.648 423.355 724.095 409.411C728.28 396.048 722.787 385.009 713.371 376.004C712.325 375.132 709.447 375.713 710.755 373.099C711.54 371.356 713.632 372.808 714.94 374.261C730.634 380.652 735.603 391.11 730.372 407.668C723.31 430.617 712.586 438.751 690.354 439.332C623.134 441.656 557.483 454.147 492.094 471.577C438.998 486.102 386.163 502.66 333.067 517.476C288.603 529.677 235.507 509.995 212.821 489.168C161.321 441.887 122.821 418.914 122.821 418.914C122.821 418.914 102.821 402.701 60.8214 387.963C60.8214 387.963 10.8214 379.611 78.3214 410.071ZM732.203 371.356C739.526 364.965 745.281 367.289 750.512 374.261C767.251 396.92 789.222 409.701 814.593 415.802C818.778 416.673 821.917 418.416 824.532 421.902C843.626 448.047 867.951 466.348 896.722 476.516C899.599 477.678 903.522 478.259 902.999 482.326C902.476 486.683 898.291 485.521 895.414 485.812C882.075 486.393 870.566 480.002 860.627 471.577C822.963 439.913 783.206 410.863 742.927 383.557C738.742 380.652 734.557 377.747 732.203 371.356ZM666.291 399.534C666.291 394.596 666.552 389.948 666.291 385.009C666.029 379.199 667.86 375.713 673.614 376.294C684.338 377.456 695.323 377.747 705.001 384.138C711.278 388.495 716.248 394.305 715.463 402.729C714.679 410.573 709.186 415.221 702.909 418.416C692.969 423.355 682.507 421.612 672.045 421.612C667.598 421.612 666.029 418.707 666.029 414.059C666.291 409.12 666.291 404.472 666.291 399.534ZM918.954 481.164C949.556 477.097 958.711 468.091 957.926 443.109C966.558 446.595 973.62 454.147 983.297 453.857C991.929 453.566 991.667 458.214 988.267 464.605C973.358 494.236 936.217 499.465 918.954 481.164ZM813.024 446.304C797.33 448.919 749.204 420.45 743.188 406.215C742.404 404.763 742.142 402.148 742.927 400.696C743.973 398.081 746.588 398.372 748.419 399.534C769.867 414.349 791.838 428.293 813.024 446.304ZM940.14 434.684C938.833 437.589 936.479 439.332 934.125 437.88C921.831 429.746 911.108 419.578 902.476 407.087C901.692 405.634 902.215 401.858 903.261 400.696C905.092 398.662 907.184 400.986 908.754 402.439C919.739 410.573 928.37 421.321 937.525 431.489C938.571 432.07 939.094 433.232 940.14 434.684ZM984.957 444.982C972.141 441.786 959.273 442.148 943.409 409.56C949.686 413.046 980.773 437.719 984.957 444.982ZM700.816 364.093C702.385 364.384 704.739 364.384 704.478 366.708C704.478 369.613 702.124 370.775 700.031 370.484C698.985 370.484 697.416 368.16 697.416 366.708C696.893 363.803 699.247 364.384 700.816 364.093Z" fill="white"/>
<path d="M625.656 381.427C620.163 378.522 617.286 380.265 617.286 386.946C617.286 399.147 617.548 411.057 617.809 423.258C618.071 428.197 619.902 436.04 624.087 432.554C629.318 428.197 641.088 435.459 640.565 422.677C640.041 409.895 638.211 396.823 636.38 384.041C635.595 378.522 632.456 376.488 628.01 380.846C626.179 394.499 632.195 408.443 628.01 422.387C624.61 408.733 626.702 395.08 625.656 381.427Z" fill="white"/>
<path d="M599.5 412.51C601.592 418.61 595.838 431.392 605.254 431.102C614.67 431.102 608.916 418.61 610.224 411.929C611.009 407.281 610.747 402.342 611.532 397.694C612.055 393.337 611.793 389.27 607.87 388.108C602.377 386.656 601.331 392.175 600.808 396.242C599.762 401.18 600.023 406.7 599.5 412.51Z" fill="white"/>
<path d="M700.216 363.619C698.312 364.033 695.456 363.206 696.09 367.339C696.408 369.406 697.995 372.713 699.264 372.713C701.803 373.126 704.659 371.473 704.659 367.339C704.977 364.033 702.12 363.619 700.216 363.619Z" fill="white"/>
</svg>
