<svg width="178" height="129" viewBox="0 0 178 129" fill="none" xmlns="http://www.w3.org/2000/svg">
<path d="M32.5614 53.1263C32.5614 77.6461 32.5614 101.144 32.5614 124.642C32.5614 129.495 33.3491 128.985 28.3599 128.985C19.957 128.985 11.554 128.985 3.1511 128.985C0.787775 128.985 0 128.474 0 125.92C0 85.0532 0 43.9314 0 3.06498C0 0.766245 0.525183 0 2.88851 0C12.3418 0.255415 21.7951 0.255415 31.2484 0C33.6117 0 34.6621 0.766245 35.9751 2.55415C47.5291 21.1994 59.0831 39.5893 70.3746 58.2346C72.7379 62.0658 72.7379 62.3212 75.3638 58.2346C86.6553 39.8447 98.2093 21.7103 109.501 3.32039C111.076 1.02166 112.389 0 115.278 0C124.468 0.255415 133.659 0.255415 143.112 0C145.476 0 146.264 0.51083 146.264 3.06498C146.264 43.9314 146.264 85.0532 146.264 125.92C146.264 128.218 145.738 128.985 143.375 128.729C134.447 128.474 125.519 128.474 116.591 128.729C113.965 128.729 113.44 127.963 113.44 125.664C113.44 102.677 113.44 79.9449 113.44 56.9575C113.44 55.9359 113.44 54.6588 113.44 53.6371C113.177 53.8926 112.914 53.6371 112.914 53.6371C109.763 58.49 106.612 63.5983 103.461 68.7066C95.846 80.9665 88.2308 93.2265 80.6156 105.486C79.5653 107.274 78.2523 107.785 76.1516 108.041C69.3242 109.062 65.6479 106.508 62.2342 100.633C53.5687 85.8194 44.1154 71.2608 34.9247 56.7021C34.3995 55.425 33.6117 54.6588 32.5614 53.1263Z" fill="#F68A64"/>
<path d="M166.323 129C159.954 129 155 123.14 155 115.605C155 107.86 159.954 102 166.5 102C172.869 102 178 108.07 178 115.814C177.823 123.14 172.692 129 166.323 129Z" fill="#F68B65"/>
</svg>
