<svg width="776" height="625" viewBox="0 0 776 625" fill="none" xmlns="http://www.w3.org/2000/svg">
<g id="Group 4">
<g id="Group 3">
<g id="Group 2">
<g id="homme">
<path id="contour" d="M185.587 2.38386C194.567 8.44185 197.687 11 203.11 20C205.339 22.7539 205.816 28.1065 206.187 32C206.466 34.9439 205.339 37.9894 207.66 40.4585C211.375 44.4469 210.167 54.1332 205.153 58.6914C196.61 66.1936 200.881 74.8352 201.531 84.3316C201.903 89.8395 207.289 91.7387 211.096 94.3977C214.439 96.6768 218.246 98.3862 221.868 100.38C222.332 100.665 222.982 100.76 223.539 100.76C233.661 99.6207 242.947 103.229 252.14 106.363C259.384 108.737 264.584 115.005 266.998 122.032C269.505 129.344 271.641 137.796 270.62 145.203C269.32 153.94 274.241 159.068 276.934 165.715C279.813 172.648 282.784 179.675 284.456 186.987C285.57 191.925 288.635 195.154 291.049 198.858C293.928 203.321 297.271 208.069 300.057 212.627C300.057 216.616 302.285 219.275 303.492 223.358C303.423 236.5 310.102 249.188 314.187 261.818C317.066 270.84 321.065 280.861 331.688 283.5C337.61 289.834 340.188 289 348.188 293C349.688 297.525 348.188 298.366 348.188 301.5C344.009 304.444 340.759 305.299 335.188 301.5C335.188 308.872 339.552 315.833 341.688 324C342.338 326.659 343.152 328.246 342.688 331C342.037 335.083 342.088 336.76 338.188 336C334.688 342.5 333.188 345 326.688 341C321.188 344 317.159 344.642 314.187 336C309.359 336.95 305.257 331.438 303.492 326.5C300.521 318.333 302.192 319.477 298.757 311.5C297.735 309.126 295.321 306.546 295.414 303.982C295.878 292.397 292.256 282.141 286.313 273.499C279.906 264.192 274.427 256.401 268.113 247C264.955 242.252 257.619 228.771 255.948 223.358C253.188 209 251.716 201.737 241.688 193C241.316 192.525 239.326 185.57 238.954 185C236.688 190.5 235.24 199.427 233.104 204.745C232.547 209.873 232.64 215.951 231.061 221.744C231.433 227.062 230.504 234.659 231.061 240.072C231.433 244.06 230.411 246.917 230.504 251C230.504 253.184 230.597 255.361 231.061 257.545C231.804 260.964 232.64 264.477 233.104 267.991C234.59 279.672 233.94 291.447 237.19 303.128C240.533 315.093 241.926 327.818 243.133 340.258C244.247 351.179 244.712 362.29 243.969 373.306C243.133 385.461 241.461 397.711 236.818 409.107C236.168 410.721 236.076 412.715 235.89 414.52C234.961 426.675 234.033 438.83 233.104 450.891C233.011 451.65 232.454 452.505 232.64 453.075C237.747 468.744 234.776 484.983 234.59 500.841C234.404 515.371 230.968 529.805 229.482 544.335C228.554 553.356 227.532 562.758 228.832 571.589C229.668 577.382 234.404 582.7 237.747 587.923C241.833 594.191 248.333 598.749 250.748 606.346C251.955 610.239 252.698 613.943 248.797 616.317C244.897 618.786 240.626 620.495 236.54 622.585C235.333 623.154 234.218 623.819 233.104 624.484C229.111 624.484 225.025 624.484 221.032 624.484C220.196 623.534 219.453 622.585 218.525 621.73C212.582 616.127 208.96 609.48 208.589 600.933C208.496 599.319 206.546 597.704 205.339 596.28C203.481 594.096 199.953 592.101 199.767 589.917C199.117 579.851 199.488 569.69 199.488 559.529C199.488 559.054 199.767 558.674 199.86 558.199C200.138 555.255 200.881 552.217 200.603 549.273C199.86 541.106 198.746 532.844 197.538 524.677C196.795 519.644 196.517 514.231 194.66 509.673C189.181 496.758 190.202 483.463 190.759 470.073C191.131 461.527 194.102 452.98 191.131 444.338C188.809 437.596 192.245 429.524 186.581 423.541C186.395 423.351 186.581 422.876 186.581 422.592C185.002 413.285 183.609 403.884 181.752 394.577C178.502 377.864 175.995 361.055 176.273 343.962C176.366 337.979 176.273 331.996 176.273 325.824C174.323 325.824 172.93 325.824 170.98 325.824C170.98 328.103 170.98 330.097 170.98 332.091C170.794 348.235 171.444 364.474 168.287 380.428C164.666 398.851 162.251 417.464 158.165 435.697C155.008 450.036 156.865 463.901 158.258 478.05C158.908 484.508 159.837 491.915 157.422 497.518C150.458 513.472 150.551 530.565 147.765 547.184C147.208 550.412 146.836 553.736 147.022 556.965C147.208 560.478 148.136 563.897 148.601 567.316C149.065 570.545 149.344 573.868 149.529 577.097C149.901 583.745 150.458 590.202 143.958 594.855C141.915 596.28 139.686 599.319 139.686 601.598C139.5 611.949 133.65 618.501 126.314 624.389C121.95 624.389 117.678 624.389 113.314 624.389C108.949 621.73 104.306 619.451 100.313 616.317C96.413 613.183 96.0415 607.58 99.0131 603.307C105.328 594.191 111.828 585.169 118.142 576.052C118.978 574.913 119.535 573.299 119.628 571.874C120.278 556.3 118.792 540.916 116.099 525.532C114.707 517.46 114.707 509.008 114.149 500.746C113.499 491.06 112.756 481.374 112.385 471.688C112.199 467.984 112.571 464.186 113.221 460.482C115.449 447.852 113.128 435.507 112.571 422.971C112.199 413.76 107.742 405.878 107.278 396.951C106.999 392.488 105.885 388.025 105.792 383.467C105.606 368.747 105.328 354.028 105.885 339.309C106.163 331.806 108.578 324.399 109.692 316.897C111.642 303.982 112.292 290.782 115.357 278.152C117.214 270.555 114.614 263.718 119.628 256.69C119.628 256.69 117.121 250.114 117.307 248.5C117.864 242.137 117.121 238.363 117.307 232C117.585 224.403 116.935 216.812 115.357 209.5C114.057 203.707 114.521 197.528 111.549 192.115C110.714 190.691 110.064 189.171 108.671 186.227C105.049 195.344 98.0845 203.511 96.3201 211.962C93.8129 223.928 91.1199 232.504 83.5982 242C75.1478 252.636 67.5333 265.142 59.9187 276.443C56.6685 281.286 55.1828 287.838 54.1613 293.821C51.5612 309.49 44.7824 320.066 38.8393 334.5C38.0035 336.494 35.6875 335 34.1875 338.5C33.0732 339.165 32.4304 339.05 31.6875 340C28.1588 344.843 24.1874 341.5 24.1874 341.5C19.1875 340.538 17.2162 347.147 13.6875 340.5C13.6875 340.5 12.3018 337.855 11.1875 337C6.17303 333.581 7.18751 337 5.68751 328.863C5.39427 322.863 11.1875 312.5 12.6875 303.412C6.5655 304.19 6.63059 304.33 0.687503 302.146C-1.3125 296.424 1.6875 297.634 1.6875 294.5C9.76639 289.087 10.6875 286 17.1098 281.951C25.0959 279.387 27.9745 273.689 32.0604 268.086C32.5247 267.421 32.4319 266.282 32.7104 265.427C37.3535 250.233 41.6251 234.944 46.7324 219.939C49.3325 212.342 52.3969 204.555 57.1328 198.193C61.4044 192.4 63.1688 186.132 65.4903 179.77C68.7405 170.843 73.6621 162.581 77.7479 154.035C78.1194 153.18 78.2122 152.135 78.2122 151.186C78.2122 141.405 77.7479 131.718 81.9267 122.222C86.6626 111.491 94.2772 105.129 105.328 102.944C112.199 101.615 119.35 101.615 126.036 99.8106C133.65 97.7214 141.822 95.4423 146.929 88.7949C150.551 84.1417 150.922 66.6978 144.979 61C141.172 57.3914 139.916 54.3431 137.687 49.5C135.552 44.8468 136.436 41.1086 141.265 37.5C141.265 37.5 142.28 31.5446 142.187 30.5C143.939 21.1678 144.587 19.3838 149.808 12.1593C153.987 8.0759 158.787 5.67896 164.187 1.53141C171.187 -0.968599 177.43 -0.211119 185.587 2.38386ZM231.061 154.035C231.061 148.052 236.726 142.639 236.726 136.656C236.726 130.864 234.961 125.641 230.504 121.937C225.954 118.139 221.311 114.625 216.389 111.396C214.346 109.972 209.102 113.96 206.687 113.77C199.63 113.485 195.588 111.301 188.438 111.681C185.466 111.871 182.509 116.291 180.187 118C177.309 120.184 172.38 119.709 169.687 118C165.23 115.151 162.388 111.396 157.187 111.681C153.38 111.871 148.786 109.212 144.979 108.737C138.107 107.883 132.35 110.257 126.871 113.96C117.957 119.848 111.735 127.73 111.456 138.936C111.085 152.325 110.342 165.905 112.014 179.105C113.128 187.462 118.328 195.154 121.857 203.226C122.135 203.891 122.878 204.365 123.621 204.745C132.907 210.253 142.75 214.242 153.522 211.962C167.73 209.019 181.752 209.968 195.867 212.627C207.289 214.811 217.411 211.298 225.211 202.466C232.733 194.014 229.111 180.396 229.482 169C229.575 163.207 231.061 159.922 231.061 154.035ZM228.461 276.823C228.182 276.918 227.44 277.107 226.789 277.582C210.632 288.598 196.331 301.893 183.423 316.612C181.752 318.512 180.359 321.36 180.359 323.735C180.452 337.789 179.988 351.939 181.566 365.803C183.609 383.751 187.695 401.415 190.109 419.268C190.945 425.156 194.102 427.34 198.56 427.91C201.81 428.289 205.896 427.625 208.589 425.915C216.111 421.072 223.261 415.469 230.318 409.961C231.897 408.727 233.29 406.543 233.754 404.548C235.611 396.667 237.283 388.69 238.676 380.713C241.276 366.088 241.276 351.464 238.861 336.84C235.611 316.992 231.99 297.145 228.461 276.823ZM119.628 275.113C118.792 283.47 118.421 290.592 117.307 297.525C115.635 307.971 112.756 318.322 111.735 328.863C110.342 343.392 109.599 358.111 109.878 372.736C110.064 384.226 112.199 395.717 113.592 407.113C113.778 408.347 114.799 409.866 115.821 410.531C123.807 415.754 131.886 420.977 140.15 425.915C148.508 430.853 155.751 427.815 157.794 418.223C164.201 387.17 168.566 355.927 167.173 324.019C167.08 322.595 166.709 320.696 165.873 319.746C157.33 310.25 148.972 300.563 139.872 291.637C133.743 285.654 126.778 280.811 119.628 275.113ZM124.55 208.069C124.55 211.203 124.271 213.482 124.643 215.571C126.407 225.542 125.107 235.229 123.064 245.01C122.043 250.043 124.085 254.791 127.893 258.21C133.65 263.338 140.243 267.801 147.951 268.276C162.901 269.131 177.852 270.08 192.802 269.131C200.696 268.656 208.589 265.142 216.018 261.818C224.282 258.115 227.904 247.954 226.139 238.647C224.747 231.145 223.818 223.548 223.075 215.951C222.796 213.387 223.632 210.728 224.004 207.214C212.303 215.096 200.603 215.761 188.438 213.102C178.78 211.013 169.123 210.823 159.558 213.577C157.98 214.052 156.215 214.147 154.544 214.242C144.143 215.096 134.579 212.722 124.55 208.069ZM203.11 33.6211C202.924 33.5261 202.831 33.5261 202.646 33.4312C202.367 30.9621 202.367 28.3981 201.81 26.024C198.931 15.3881 191.317 9.02554 182.123 4.37233C176.738 1.61839 170.98 1.52342 165.687 4.46729C150.736 12.919 143.586 23.7449 146.279 41.9779C147.301 49.1001 149.344 56.1274 151.201 63.1547C151.758 65.3389 152.965 67.618 154.544 69.2324C165.037 80.0582 183.888 80.1532 194.474 69.4223C195.96 67.9979 197.167 65.8137 197.538 63.8195C199.581 53.8483 201.253 43.6872 203.11 33.6211ZM123.064 257.83C118.978 267.896 120.371 272.359 127.336 278.437C141.822 290.972 156.772 303.033 168.473 318.607C171.073 322.025 175.623 322.215 178.502 318.986C180.545 316.707 182.123 313.763 184.445 311.769C197.167 300.468 209.796 289.168 222.796 278.342C229.947 272.359 231.247 266.282 225.489 257.925C224.375 258.78 223.261 259.444 222.239 260.394C215.739 266.472 208.032 270.46 199.396 270.935C184.166 271.79 168.844 271.885 153.522 271.695C144.236 271.6 136.25 267.516 129.007 261.533C127.336 260.014 125.2 259.064 123.064 257.83ZM196.424 452.695C195.681 461.717 194.567 469.883 194.288 478.145C194.102 484.413 194.288 490.775 195.403 496.853C196.331 502.171 199.488 507.109 200.417 512.427C202.46 525.437 203.946 538.542 205.339 551.552C205.71 554.686 206.546 556.11 209.703 556.205C213.232 556.3 216.946 556.205 220.289 557.155C224.932 558.484 225.397 556.395 225.675 552.502C226.139 543.575 226.325 534.553 227.811 525.722C231.34 504.735 231.618 483.653 231.247 462.476C231.247 460.007 230.132 457.633 229.297 454.214C221.961 462.571 214.625 462.096 206.824 457.538C203.574 455.829 200.138 454.499 196.424 452.695ZM123.993 557.25C129.564 556.775 134.857 556.49 139.965 555.825C141.079 555.635 142.658 554.116 142.843 552.976C143.958 545.379 144.515 537.687 145.815 530.09C147.579 519.834 149.994 509.673 152.037 499.417C153.151 493.909 154.544 488.401 154.73 482.893C154.915 477.48 153.801 471.973 153.058 466.465C152.501 462.191 151.851 457.918 151.108 452.41C140.429 459.627 130.121 466.275 117.585 454.974C117.028 465.705 116.285 474.537 116.192 483.463C116.192 487.642 117.492 491.82 117.864 495.998C120 516.131 121.95 536.263 123.993 557.25ZM325.593 303.982C326.058 303.697 316.586 300.5 316.586 300.5C319.65 302.494 316.937 296.1 320.187 297.525C322.323 298.379 325.593 296.005 325.593 296.005C327.915 293.251 316.23 294.329 314.187 293C309.637 290.056 326.708 291.659 322.065 289C313.893 284.537 319.279 281.381 310.086 286.319C298.757 292.302 298.385 291.542 300.057 304.552C300.242 306.261 300.242 301.608 300.892 303.128C304.421 311.389 305.973 290.333 309.687 298.5C310.245 299.735 310.187 301.5 310.187 301.5C310.373 300.076 306.687 310.5 306.687 310.5C305.573 306.227 308.971 308.5 308.971 308.5C308.971 308.5 309.723 301.69 310.187 301.5C310.187 301.5 303.028 295.815 310.086 303.128C310.086 303.128 313.15 309.522 312.779 300.5C312.779 300.5 307.578 294.802 316.586 300.5C316.586 300.5 319.537 308.69 320.187 308.5C317.959 299.099 322.416 314.998 320.187 305.502C310.758 294.011 329.679 305.597 330.051 305.502C332.094 311.104 327.729 308.992 330.051 314.5C330.886 316.589 330.202 312.696 331.687 314.5C332.337 314.215 324.274 296.803 324.274 296.803C324.274 294.713 334.229 316.399 333.765 314.5C332.558 309.277 331.444 310.63 330.051 305.502C328.379 299.139 327.358 310.44 325.593 303.982ZM237.097 160.587C236.818 174.832 240.719 187.177 250.098 197.623C255.669 203.891 260.498 205.6 268.113 202.276C272.477 200.377 276.284 196.863 280.092 193.729C281.02 192.97 281.113 190.596 280.927 189.076C279.256 176.066 271.548 165.715 266.348 154.32C265.977 153.56 265.141 152.895 264.398 152.515C257.526 149.002 250.655 145.583 243.783 141.879C241.276 140.55 240.069 141.12 239.604 143.874C238.769 149.477 237.933 155.079 237.097 160.587ZM34.8462 298.189C34.8462 298.189 41.1608 296.355 41.4394 295.5C45.8967 282.87 44.6895 311.104 48.8682 298.474C49.5183 296.67 48.8682 294.011 48.0325 292.112C46.0824 288.123 32.339 281.951 28.0674 282.71C18.2242 284.61 30.8532 285.844 23.0529 292.112C20.5457 294.201 30.6675 289.263 28.0674 291.637C32.6176 295.34 26.6745 304.176 29.8318 302.277C32.6176 300.567 21.7159 302.519 24.6874 301C25.0589 301.475 24.7231 303.032 25.1874 303.412C24.816 305.122 25.6517 300.437 25.1874 302.146C22.123 312.402 27.659 290.649 24.6874 301C24.316 302.329 22.2231 302.886 22.6874 304.5C24.0803 304.215 22.7945 301.285 24.1874 301C24.1874 301 28.0674 306.265 29.8318 302.277C31.5033 298.573 24.1673 302.469 28.0674 300C26.303 309.971 29.468 287.648 30.7681 298.189C32.6253 296.765 27.4174 301.804 28.0674 300C30.2032 294.112 26.0245 303.412 28.0674 297.525C28.6246 295.91 31.6226 299.709 32.3655 298.189L32.989 296.477C31.8747 300.75 32.8301 298.003 31.8087 302.277C30.7872 306.455 36.7963 297.145 38.8393 301.418C38.8393 301.418 32.2461 303.222 32.7104 303.412C36.2392 294.961 27.1388 309.87 30.6675 301.418C32.8033 308.066 31.1318 290.877 34.8462 298.189ZM108.578 138.746C104.028 141.215 100.22 143.494 96.3201 145.583C88.0555 150.046 80.2552 155.364 76.355 164.481C73.012 171.983 70.3191 179.865 67.9047 187.747C67.3475 189.551 68.369 192.305 69.5762 194.014C71.2477 196.388 73.6621 198.288 75.8907 200.282C84.8054 208.069 94.37 206.17 99.5702 195.629C99.9417 194.964 100.406 194.394 100.685 193.729C103.378 188.317 107.835 183.094 108.299 177.491C109.321 164.861 108.578 152.23 108.578 138.746ZM52.8612 275.493C54.5327 274.543 55.8328 274.164 56.7614 273.214C58.7115 271.22 60.4758 269.036 62.1473 266.756C69.8548 256.026 77.5622 245.295 85.1768 234.564C87.4055 231.43 87.3126 228.676 83.5982 226.872C76.5408 223.358 69.5762 219.655 62.4259 216.616C56.7614 214.147 52.4898 215.856 50.5397 221.649C45.6181 236.273 41.1608 251.087 36.7035 265.902C36.4249 266.946 37.7249 269.415 38.8393 269.985C43.3894 272.074 48.1253 273.689 52.8612 275.493ZM288.078 215.951C282.227 217.85 276.191 219.18 270.713 221.744C261.891 225.922 260.777 232.095 266.534 240.072C273.591 249.853 280.649 259.634 287.799 269.32C292.442 275.683 292.721 275.778 300.057 273.499C301.264 273.119 302.378 272.644 303.492 272.169C311.943 268.466 312.129 268.181 308.971 259.349C308.693 258.495 308.321 257.545 308.043 256.69C304.978 246.149 302.1 235.513 298.757 224.972C296.899 218.895 294.021 216.996 288.078 215.951ZM194.567 76.8295C186.952 78.3489 180.173 81.0079 173.58 80.628C166.987 80.2482 160.58 76.7345 153.708 74.4554C152.594 80.9129 154.544 88.6049 148.415 93.2581C143.122 97.2466 137.179 100.285 130.586 104.369C134.672 104.939 138.015 105.413 141.265 105.793C151.665 107.218 162.623 104.939 172.559 110.352C173.673 110.921 175.809 110.636 176.923 109.972C181.102 107.028 185.745 106.648 190.574 106.553C197.538 106.458 204.41 106.173 211.375 105.793C213.789 105.698 216.296 104.939 218.711 104.464C212.86 100.38 207.103 97.5315 201.346 94.6826C197.353 92.6884 195.403 89.4596 195.31 84.9014C195.124 81.9575 194.753 79.0136 194.567 76.8295ZM221.032 576.052C214.718 575.673 210.167 578.616 206.174 582.415C202.089 586.214 202.274 588.778 206.917 591.816C210.817 594.38 213.046 597.609 213.325 602.452C213.696 608.815 216.853 614.133 221.404 618.406C222.889 619.831 225.489 621.635 226.975 621.065C233.475 618.881 240.811 618.691 245.919 613.183C246.847 612.139 247.405 609.575 246.755 608.435C244.433 604.067 241.647 599.888 238.769 595.9C235.147 590.677 230.968 585.834 227.718 580.326C225.954 577.192 224.375 575.198 221.032 576.052ZM119.814 622.49C120.092 622.205 120.278 621.825 120.557 621.54C121.578 621.16 122.6 620.97 123.528 620.495C131.05 616.412 134.486 609.67 135.693 601.218C136.157 598.369 137.922 595.615 139.5 593.146C140.429 591.626 142.1 590.487 143.493 589.252C146.093 586.973 146.279 584.409 143.215 582.795C138.479 580.231 133.65 578.047 128.636 576.242C126.964 575.673 123.807 576.337 122.878 577.572C115.821 586.973 109.135 596.754 102.449 606.441C100.685 608.91 100.963 611.569 103.378 613.088C108.671 616.412 114.242 619.356 119.814 622.49ZM194.567 428.574C193.36 445.763 197.167 454.024 213.789 458.203C221.868 460.197 227.811 456.494 229.111 448.232C230.69 438.166 231.154 427.909 232.083 417.748C232.268 415.944 232.083 414.235 232.083 411.861C225.582 416.514 219.825 420.692 214.068 424.871C208.217 429.334 202.181 433.132 194.567 428.574ZM155.101 429.049C153.429 429.334 152.222 429.524 151.108 429.714C144.236 430.853 138.479 428.384 132.907 424.491C127.614 420.787 122.228 417.464 116.099 413.475C116.099 416.419 116.007 418.508 116.099 420.502C116.657 428.859 117.585 437.216 117.864 445.668C118.142 452.98 123.157 458.678 130.493 459.058C137.365 459.342 142.75 455.544 148.044 451.745C149.529 450.701 151.387 449.276 151.758 447.757C153.244 441.679 154.079 435.507 155.101 429.049ZM133.557 107.218C123.435 102.375 100.592 105.413 92.6057 113.77C83.2267 123.646 80.1623 136.372 82.2981 151.471C90.1913 146.818 97.713 143.019 104.492 138.081C107.556 135.897 109.692 131.908 111.364 128.3C113.871 122.792 117.121 118.329 122.043 114.91C125.757 112.536 129.471 110.067 133.557 107.218ZM218.896 108.832C220.939 110.731 222.518 112.821 224.561 114.055C231.618 118.329 236.076 124.691 238.954 132.383C239.697 134.472 241.183 136.751 243.04 137.796C249.169 141.31 255.669 144.254 261.891 147.482C265.048 149.097 266.72 147.957 266.998 144.728C267.184 142.164 266.72 139.505 266.441 136.941C265.048 123.172 258.548 110.257 242.483 107.883C239.419 107.408 236.354 107.028 233.475 105.793C228.182 103.514 223.725 104.654 218.896 108.832ZM53.5113 212.912C53.7899 213.387 54.1613 213.957 54.4399 214.432C67.2547 211.773 77.0051 219.18 87.7769 225.257C90.0984 218.8 92.1414 213.007 94.5558 206.36C81.9267 208.449 72.7335 203.321 64.1903 194.014C60.2901 200.852 56.8543 206.929 53.5113 212.912ZM296.899 215.476C292.813 209.493 289.099 204.65 286.313 199.332C284.363 195.629 282.877 195.344 279.813 197.718C272.941 203.036 266.162 208.829 255.948 206.36C257.434 212.912 258.826 218.61 260.312 224.972C271.27 216.711 282.599 212.057 296.899 215.476ZM145.443 580.231C145.165 577.477 144.886 574.913 144.793 572.254C144.701 569.595 144.979 566.841 144.793 564.277C144.608 562.758 144.143 560.763 143.122 559.814C140.057 556.87 127.707 557.535 124.735 560.668C124.178 561.238 123.714 562.283 123.714 563.137C123.621 566.271 123.621 569.405 123.621 571.874C131.236 574.723 138.293 577.477 145.443 580.231ZM203.481 580.041C210.167 577.287 216.296 574.818 222.239 572.159C223.354 571.684 224.375 569.975 224.561 568.645C225.582 560.289 225.025 559.624 217.039 558.959C214.068 558.674 211.003 558.864 208.032 558.674C204.689 558.389 203.574 560.194 203.574 563.137C203.481 568.455 203.481 573.868 203.481 580.041ZM54.2542 278.627C47.661 275.968 41.4394 273.499 34.8462 270.84C33.4533 273.499 32.1533 275.873 30.6675 278.722C34.4748 280.811 37.9107 282.71 41.4394 284.61C48.7754 288.693 48.7754 288.693 52.7684 281.191C52.9541 280.716 53.3255 280.146 54.2542 278.627ZM317.979 279.861C316.4 277.107 315.471 275.113 314.171 273.404C313.614 272.644 312.036 271.884 311.2 272.169C306.557 273.784 301.821 275.493 297.457 277.677C293.835 279.482 296.621 282.425 297.364 284.61C297.735 285.749 299.964 287.269 300.707 286.984C306.278 284.895 311.757 282.425 317.979 279.861ZM144.979 40.4585C138.943 45.8714 139.686 51.7266 148.415 56C146.651 49.9223 146.836 46.821 144.979 40.4585ZM197.538 56C206.267 48.308 203.98 50.2985 198.687 46.5C197.202 52.4827 198.838 50.2072 197.538 56Z" fill="white"/>
<path id="torax" d="M234.574 185C231.574 202 229.873 201.946 229.688 211C229.316 228.524 229.688 238.5 226.688 252.5C215.799 264.596 209.377 267.109 196.081 268.131C181.574 270.601 154.188 270 154.188 270C143.579 270 139.018 263.591 129.188 259L121.188 250C119.688 237 120.303 228.351 119.188 215.5C119.187 191 108.074 194.101 111.564 154.808C109.574 125.101 118.574 120.101 126.998 112.458C130.315 109.448 138.248 107.055 145.129 108.369C148.941 109.099 152.846 108.807 156.751 108.369C161.958 107.931 166.886 109.245 171.349 113.626C174.045 116.255 175.692 113.96 178.574 110.601C180.898 107.972 185.017 108.953 187.992 108.661C195.058 108.077 202.218 108.223 209.377 108.661C211.887 108.807 220.028 111.436 222.074 113.626C228.574 118.601 234.574 124.601 234.574 124.601C234.574 124.601 240.574 138.101 236.074 151.101C232.612 161.101 237.574 168 234.574 185Z" fill="#FAE0D1"/>
<path id="cuisse gauche" d="M228.461 276.823C231.99 297.145 235.518 316.992 238.861 336.84C241.276 351.464 241.276 366.088 238.676 380.713C237.283 388.69 235.611 396.666 233.754 404.548C233.29 406.543 231.897 408.727 230.318 409.961C223.261 415.469 216.111 421.072 208.589 425.915C205.896 427.625 201.81 428.289 198.56 427.909C194.103 427.34 190.852 425.156 190.11 419.268C187.602 401.415 183.516 383.751 181.566 365.803C179.988 351.939 180.452 337.789 180.359 323.735C180.359 321.36 181.752 318.417 183.424 316.612C196.331 301.893 210.632 288.598 226.79 277.582C227.44 277.107 228.182 276.918 228.461 276.823Z" fill="#FAE0D1"/>
<path id="cuisse droite" d="M119.628 275.113C126.686 280.906 133.743 285.749 139.686 291.637C148.786 300.563 157.144 310.25 165.687 319.746C166.616 320.791 166.987 322.595 166.987 324.019C168.38 355.832 164.016 387.17 157.608 418.223C155.658 427.72 148.415 430.853 139.965 425.915C131.7 421.072 123.714 415.754 115.635 410.531C114.614 409.866 113.592 408.347 113.406 407.113C112.014 395.622 109.878 384.226 109.692 372.736C109.413 358.111 110.156 343.487 111.549 328.863C112.571 318.322 115.449 307.971 117.121 297.525C118.421 290.497 118.792 283.47 119.628 275.113Z" fill="#FAE0D1"/>
<path id="t&#195;&#170;te" d="M203.11 33.6211C201.346 43.6872 199.674 53.8483 197.631 63.8195C197.26 65.8137 195.96 67.9979 194.567 69.4223C183.888 80.1532 165.13 80.0582 154.637 69.2324C153.058 67.618 151.944 65.3389 151.294 63.1547C149.437 56.1274 147.394 49.1001 146.372 41.9779C143.679 23.7449 150.829 12.919 165.78 4.46729C171.073 1.42846 176.83 1.61839 182.216 4.37233C191.41 9.02554 199.024 15.2931 201.903 26.024C202.553 28.3981 202.46 30.9621 202.739 33.4312C202.831 33.5261 202.924 33.6211 203.11 33.6211Z" fill="#FAE0D1"/>
<path id="bassin" d="M123.064 257.83C125.2 259.159 127.336 260.109 129.1 261.533C136.25 267.516 144.329 271.6 153.615 271.695C168.937 271.884 184.259 271.79 199.488 270.935C208.125 270.46 215.832 266.472 222.332 260.394C223.354 259.444 224.468 258.685 225.582 257.925C231.34 266.187 230.04 272.264 222.889 278.342C209.889 289.168 197.167 300.563 184.538 311.769C182.216 313.763 180.731 316.707 178.595 318.986C175.716 322.215 171.166 322.12 168.566 318.607C156.865 303.033 141.915 291.067 127.428 278.437C120.278 272.359 118.978 267.801 123.064 257.83Z" fill="#FAE0D1"/>
<path id="tibia gauche" d="M196.424 452.695C200.231 454.499 203.574 455.829 206.732 457.728C214.532 462.381 221.868 462.856 229.204 454.404C230.04 457.728 231.154 460.197 231.154 462.666C231.525 483.843 231.247 504.925 227.718 525.912C226.232 534.743 226.047 543.765 225.582 552.691C225.397 556.49 224.932 558.674 220.196 557.345C216.853 556.395 213.139 556.49 209.61 556.395C206.453 556.3 205.617 554.876 205.246 551.742C203.853 538.637 202.46 525.532 200.324 512.617C199.488 507.299 196.331 502.361 195.31 497.043C194.195 490.87 194.01 484.508 194.195 478.335C194.567 469.883 195.588 461.622 196.424 452.695Z" fill="#FAE0D1"/>
<path id="tibia droite" d="M123.993 557.25C121.95 536.358 120 516.226 117.957 496.093C117.492 491.915 116.192 487.736 116.285 483.558C116.378 474.632 117.121 465.705 117.678 455.069C130.214 466.275 140.522 459.722 151.201 452.505C151.944 458.013 152.687 462.286 153.151 466.56C153.801 471.973 155.008 477.48 154.822 482.988C154.637 488.496 153.244 494.099 152.13 499.512C150.087 509.768 147.672 519.929 145.908 530.185C144.608 537.782 144.051 545.474 142.936 553.071C142.751 554.211 141.172 555.825 140.058 555.92C134.857 556.49 129.564 556.775 123.993 557.25Z" fill="#FAE0D1"/>
<path id="main gauche" d="M329.385 295.476C330.931 301.171 332.477 306.867 334.022 312.562C335.243 317.153 336.626 321.743 337.683 326.334C338.09 328.119 337.765 330.074 337.765 331.859C337.195 332.114 336.626 332.369 336.056 332.624C334.755 331.009 333.046 329.649 332.314 327.779C330.28 322.848 328.653 317.748 326.863 312.732C326.538 312.817 326.212 312.987 325.887 313.072C327.839 321.488 329.873 329.904 331.826 338.405C331.256 338.575 330.687 338.83 330.117 339C322.226 333.899 323.853 323.358 318.646 315.963C318.971 324.123 323.69 331.009 321.737 338.915C315.473 332.369 315.31 322.678 310.51 315.538C310.103 315.708 309.778 315.793 309.371 315.963C310.591 319.788 311.893 323.528 312.951 327.439C313.276 328.629 312.707 330.074 312.463 331.349C311.649 330.414 310.51 329.734 310.022 328.629C306.686 321.233 303.513 313.837 300.422 306.442C299.852 305.082 299.527 303.466 299.364 301.936C297.818 290.29 298.225 290.97 308.151 285.615C316.287 281.194 323.121 282.894 330.28 286.89C334.429 289.185 338.578 291.565 342.484 294.2C344.273 295.391 347.04 297.346 344.924 299.811C344.029 300.916 340.612 300.491 338.822 299.641C335.975 298.451 333.453 296.326 330.768 294.54C330.28 294.965 329.792 295.22 329.385 295.476Z" fill="#FAE0D1"/>
<path id="biceps gauche" d="M237.097 160.587C237.933 154.984 238.768 149.476 239.604 143.874C240.069 141.025 241.276 140.55 243.783 141.879C250.562 145.488 257.526 148.907 264.398 152.515C265.141 152.895 265.977 153.56 266.348 154.32C271.548 165.715 279.256 176.161 280.927 189.076C281.113 190.596 281.02 192.97 280.092 193.729C276.377 196.863 272.57 200.377 268.112 202.276C260.498 205.6 255.669 203.891 250.097 197.623C240.811 187.177 236.818 174.832 237.097 160.587Z" fill="#FAE0D1"/>
<path id="biceps droit" d="M108.578 138.746C108.578 152.135 109.413 164.861 108.206 177.301C107.649 182.904 103.285 188.127 100.592 193.54C100.22 194.204 99.756 194.774 99.4774 195.439C94.2772 205.98 84.7125 207.879 75.7979 200.092C73.5692 198.098 71.1548 196.293 69.4833 193.824C68.2762 192.115 67.2547 189.361 67.8118 187.557C70.3191 179.675 73.012 171.888 76.2622 164.291C80.2552 155.174 87.9626 149.951 96.2272 145.393C100.127 143.494 104.028 141.31 108.578 138.746Z" fill="#FAE0D1"/>
<path id="avant bras droit" d="M52.8612 275.493C48.2182 273.689 43.3894 272.074 38.8393 269.89C37.7249 269.32 36.4249 266.946 36.7035 265.807C41.1608 250.992 45.6181 236.178 50.5397 221.554C52.4898 215.761 56.7614 214.052 62.4259 216.521C69.669 219.655 76.5408 223.263 83.5982 226.777C87.3126 228.581 87.4055 231.335 85.1768 234.469C77.4694 245.2 69.8548 255.931 62.1473 266.661C60.4758 268.941 58.7115 271.125 56.7614 273.119C55.8328 274.164 54.4399 274.638 52.8612 275.493Z" fill="#FAE0D1"/>
<path id="avant bras gauche" d="M288.078 215.951C294.021 216.996 296.899 218.895 298.849 225.067C302.192 235.608 305.071 246.149 308.135 256.785C308.414 257.735 308.693 258.59 309.064 259.444C312.128 268.276 312.036 268.561 303.585 272.264C302.471 272.739 301.264 273.214 300.149 273.594C292.721 275.873 292.442 275.778 287.892 269.415C280.834 259.634 273.684 249.948 266.627 240.167C260.869 232.19 261.984 226.112 270.805 221.839C276.191 219.18 282.32 217.85 288.078 215.951Z" fill="#FAE0D1"/>
<path id="cou/nuque" d="M194.567 76.8295C194.752 79.0136 195.217 81.9575 195.217 84.9014C195.31 89.4596 197.167 92.6884 201.253 94.6826C207.01 97.5315 212.767 100.475 218.618 104.464C216.203 104.939 213.789 105.603 211.282 105.793C204.41 106.173 197.445 106.458 190.481 106.553C185.652 106.553 181.009 107.028 176.83 109.972C175.716 110.731 173.58 111.016 172.466 110.352C162.53 105.034 151.572 107.218 141.172 105.793C137.922 105.319 134.579 104.939 130.493 104.369C137.086 100.285 143.029 97.2466 148.322 93.2581C154.358 88.6999 152.501 81.0079 153.615 74.4554C160.487 76.7345 166.894 80.2482 173.487 80.628C180.173 81.1028 186.952 78.3489 194.567 76.8295Z" fill="#FAE0D1"/>
<path id="pied gauche" d="M221.032 576.052C224.282 575.198 225.861 577.287 227.718 580.326C230.968 585.739 235.147 590.677 238.768 595.9C241.554 599.983 244.34 604.067 246.755 608.435C247.405 609.575 246.847 612.139 245.919 613.183C240.904 618.691 233.475 618.881 226.975 621.065C225.582 621.54 222.889 619.736 221.404 618.406C216.853 614.133 213.696 608.91 213.325 602.452C213.046 597.514 210.817 594.38 206.917 591.816C202.274 588.778 202.088 586.214 206.174 582.415C210.26 578.522 214.81 575.673 221.032 576.052Z" fill="#FAE0D1"/>
<path id="pied droit" d="M119.814 622.49C114.335 619.356 108.671 616.412 103.285 613.088C100.87 611.569 100.592 609.005 102.356 606.441C109.135 596.754 115.821 587.068 122.785 577.572C123.714 576.337 126.871 575.673 128.543 576.242C133.557 577.952 138.479 580.231 143.122 582.795C146.186 584.409 145.908 586.973 143.401 589.252C142.008 590.487 140.336 591.531 139.408 593.146C137.829 595.71 136.065 598.369 135.6 601.218C134.393 609.669 130.957 616.412 123.435 620.495C122.507 620.97 121.485 621.255 120.464 621.54C120.278 621.825 120 622.11 119.814 622.49Z" fill="#FAE0D1"/>
<path id="genoux gauche" d="M194.567 428.574C202.181 433.132 208.217 429.239 214.16 424.871C219.918 420.692 225.675 416.514 232.175 411.861C232.175 414.14 232.268 415.944 232.175 417.748C231.247 427.909 230.783 438.166 229.204 448.232C227.904 456.588 221.868 460.292 213.882 458.203C197.167 454.024 193.267 445.858 194.567 428.574Z" fill="#FAE0D1"/>
<path id="genoux droit" d="M155.101 429.049C153.987 435.506 153.151 441.679 151.851 447.757C151.479 449.276 149.622 450.701 148.137 451.745C142.843 455.544 137.55 459.342 130.586 459.057C123.25 458.773 118.235 452.98 117.957 445.668C117.678 437.311 116.75 428.859 116.192 420.502C116.1 418.508 116.192 416.514 116.192 413.475C122.228 417.463 127.707 420.787 133 424.491C138.572 428.289 144.329 430.758 151.201 429.714C152.315 429.619 153.43 429.334 155.101 429.049Z" fill="#FAE0D1"/>
<path id="epaule droite" d="M133.557 107.218C129.471 110.067 125.757 112.536 122.135 115.005C117.307 118.328 113.964 122.887 111.456 128.395C109.785 132.003 107.649 135.992 104.585 138.176C97.8059 143.019 90.2842 146.913 82.391 151.566C80.2552 136.467 83.3196 123.741 92.6985 113.865C100.592 105.413 123.528 102.47 133.557 107.218Z" fill="#FAE0D1"/>
<path id="epaule gauche" d="M218.896 108.832C223.725 104.749 228.182 103.514 233.475 105.793C236.261 106.933 239.418 107.408 242.483 107.883C258.641 110.257 265.048 123.172 266.441 136.941C266.72 139.505 267.184 142.164 266.998 144.728C266.72 147.957 265.048 149.097 261.891 147.482C255.576 144.254 249.169 141.31 243.04 137.796C241.276 136.751 239.79 134.472 238.954 132.383C236.075 124.691 231.618 118.328 224.561 114.055C222.518 112.726 220.939 110.731 218.896 108.832Z" fill="#FAE0D1"/>
<path id="coude droit" d="M53.5112 212.912C56.8542 206.929 60.2901 200.947 64.0974 194.014C72.6406 203.416 81.8338 208.449 94.4628 206.36C92.0485 213.007 90.0055 218.8 87.684 225.257C76.9122 219.085 67.2546 211.678 54.347 214.432C54.1613 213.957 53.7898 213.387 53.5112 212.912Z" fill="#FAE0D1"/>
<path id="coude gauche" d="M296.899 215.476C282.599 212.057 271.27 216.711 260.219 224.972C258.734 218.61 257.434 212.912 255.855 206.36C266.07 208.829 272.849 203.036 279.72 197.718C282.785 195.344 284.27 195.629 286.22 199.332C289.099 204.65 292.814 209.398 296.899 215.476Z" fill="#FAE0D1"/>
<path id="cheville droite" d="M145.443 580.231C138.293 577.477 131.236 574.723 123.621 571.779C123.621 569.31 123.528 566.176 123.714 563.042C123.714 562.188 124.178 561.143 124.735 560.573C127.707 557.44 140.15 556.775 143.122 559.719C144.143 560.763 144.608 562.663 144.793 564.182C145.072 566.841 144.701 569.5 144.793 572.159C144.886 574.818 145.165 577.477 145.443 580.231Z" fill="#FAE0D1"/>
<path id="cheville gauche" d="M203.481 580.041C203.481 573.868 203.481 568.455 203.481 563.137C203.481 560.194 204.596 558.389 207.939 558.674C210.91 558.959 213.975 558.769 216.946 558.959C224.932 559.624 225.489 560.289 224.468 568.645C224.282 569.88 223.261 571.684 222.146 572.159C216.296 574.818 210.167 577.287 203.481 580.041Z" fill="#FAE0D1"/>
<path id="poignet droit" d="M54.2541 278.627C53.3255 280.146 53.0469 280.716 52.7684 281.286C48.7753 288.788 48.7753 288.788 41.4393 284.705C38.0035 282.805 34.4748 280.906 30.6675 278.817C32.1533 275.968 33.4533 273.594 34.8462 270.935C41.4393 273.499 47.5681 275.968 54.2541 278.627Z" fill="#FAE0D1"/>
<path id="poignet gauche" d="M317.979 279.861C311.85 282.425 306.371 284.895 300.707 286.984C299.871 287.269 297.642 285.749 297.364 284.61C296.621 282.425 293.835 279.482 297.457 277.677C301.914 275.493 306.557 273.784 311.2 272.169C311.943 271.885 313.521 272.644 314.171 273.404C315.472 275.018 316.4 277.107 317.979 279.861Z" fill="#FAE0D1"/>
<path id="oreille droite" d="M145.78 37.8909C147.729 45.8251 149.626 52.9468 151.46 60.6382C138.957 54.0921 136.03 43.5158 145.78 37.8909Z" fill="#FAE0D1"/>
<path id="oreille gauche" d="M197.145 63.1027C198.569 55.0008 199.992 46.899 201.389 38.539C210.26 42.8424 209.918 51.2241 197.145 63.1027Z" fill="#FAE0D1"/>
</g>
<path id="main gauche_2" d="M18.9898 295.476C17.4441 301.171 15.8983 306.867 14.3525 312.562C13.1321 317.153 11.7491 321.743 10.6914 326.334C10.2846 328.119 10.61 330.074 10.61 331.859C11.1795 332.114 11.7491 332.369 12.3186 332.624C13.6203 331.009 15.3288 329.649 16.061 327.779C18.0949 322.848 19.7221 317.748 21.5119 312.732C21.8374 312.817 22.1628 312.987 22.4882 313.072C20.5356 321.488 18.5017 329.904 16.5491 338.405C17.1186 338.575 17.6881 338.83 18.2576 339C26.1493 333.899 24.5221 323.358 29.729 315.963C29.4036 324.123 24.6848 331.009 26.6374 338.915C32.9019 332.369 33.0647 322.678 37.8647 315.538C38.2715 315.708 38.597 315.793 39.0037 315.963C37.7834 319.788 36.4817 323.528 35.424 327.439C35.0986 328.629 35.6681 330.074 35.9122 331.349C36.7257 330.414 37.8647 329.734 38.3529 328.629C41.6885 321.233 44.8615 313.837 47.953 306.442C48.5225 305.082 48.848 303.466 49.0107 301.936C50.5565 290.29 50.1497 290.97 40.2241 285.615C32.0884 281.194 25.2543 282.894 18.0949 286.89C13.9457 289.185 9.79646 291.565 5.89131 294.2C4.10145 295.391 1.3353 297.346 3.45059 299.811C4.34552 300.916 7.76253 300.491 9.55239 299.641C12.3999 298.451 14.922 296.326 17.6068 294.54C18.0949 294.965 18.5831 295.22 18.9898 295.476Z" fill="#FAE0D1"/>
<g id="Group 1">
<g id="homme_2">
<path id="contour_2" d="M588.027 13.3839C597.33 19.4419 601.599 23.1593 606.181 32C608.49 34.7539 607.335 38.1065 607.72 42C608.009 44.9439 607.772 50.2628 612.434 53.2628C615.024 58.7628 614.748 63.0446 610.405 69.6914C599.194 75.1993 603.391 82.554 601.599 93C601.984 98.5079 610.51 102.739 614.454 105.398C617.918 107.677 621.862 109.386 625.614 111.38C626.095 111.665 626.769 111.76 627.346 111.76C637.832 110.621 647.453 114.229 656.977 117.363C664.481 119.737 669.869 126.005 672.37 133.032C674.968 140.344 677.18 148.796 676.122 156.203C674.775 164.94 679.874 170.068 682.664 176.715C685.646 183.648 688.725 190.675 690.457 197.987C691.611 202.925 694.786 206.154 697.287 209.858C700.269 214.321 702.386 217.929 705.272 222.488C707.485 226.001 708.928 232.174 710.179 236.257C714.123 248.888 717.875 263.797 722.108 276.427C725.09 285.449 736.281 292.71 740.943 293.71C744.569 296.954 752.339 306 752.339 306C752.339 306 757.001 312.93 759.073 314.982L762.181 320.5L763.217 327.422C755.965 332.422 764.253 332.5 764.253 340C764.927 342.659 761.626 341.746 761.145 344.5C757.519 355.5 754.308 352.76 750.267 352C747.958 360.832 736.03 349.438 730.065 344.5C730.065 344.5 722.295 336 715.855 331.221C715.855 337.5 713.489 347.5 706.619 344.5C701.575 337.5 703.925 329.607 703.925 329.607C703.925 329.607 703.252 318.116 703.348 315.552C703.829 303.966 698.538 293.141 692.381 284.499C685.742 275.192 680.854 268 671.889 259.031C668.618 254.283 662.653 239.771 660.922 234.358C656.689 220.968 656.015 216.6 647.549 205.014C647.549 205.014 643.701 197.797 643.316 197.227C639.372 201.976 638.41 210.427 636.197 215.745C634.177 220.588 633.696 228.85 634.177 234.358C634.561 239.676 634.754 244.087 635.331 249.5C635.716 253.488 636.197 259.031 636.197 259.031C636.197 261.216 637.448 269.21 637.929 271.394C638.698 274.813 640.526 279.181 641.007 282.695C642.546 294.375 641.103 302.732 644.47 314.412C647.934 326.378 646.395 338.818 647.645 351.258C648.8 362.179 650.543 372.72 649.774 383.736C651.554 395.93 648.511 405 647.645 418.113C647.645 418.113 644.663 429.698 644.47 431.502C643.508 443.658 643.027 446.5 638.794 459.232C638.698 459.991 640.815 460.371 638.794 465.214C644.086 480.883 638.987 495.983 638.794 511.841C638.602 526.371 635.042 540.805 633.503 555.335C632.541 564.356 631.483 573.758 632.83 582.589C633.696 588.382 632.324 586.777 635.788 592C640.021 598.268 638.794 599 638.794 599C638.794 599 640.45 599.917 640.45 603V607C640.45 607 637.978 611.335 636.824 612C636.824 612 635.78 613.5 631.643 613.5C630.778 612.55 623.113 614.355 622.151 613.5L608.49 613C608.49 613 600.26 611.924 599.009 610.5C597.085 608.316 597.619 603.101 597.426 600.917C599.009 590.5 606.662 588.572 602.429 570.529C602.429 570.054 602.717 569.674 602.814 569.199C603.102 566.255 603.872 563.217 603.583 560.273C602.814 552.106 601.659 543.844 600.409 535.677C599.639 530.644 599.35 525.231 597.426 520.673C591.75 507.758 592.808 494.463 593.386 481.073C593.77 472.527 592.608 465.974 590.203 459.232C587.798 452.489 586.844 436.915 586.844 436.915C585.208 427.609 585.785 416.806 583.861 407.5C580.494 390.786 578.089 372.055 578.378 354.962C578.474 348.979 578.378 353.173 578.378 347C576.357 347 577.201 346 575.181 346C575.181 346 572.894 347.006 572.894 349C572.701 365.144 574.663 375.5 572.894 391.713C569.142 410.136 566.463 428.267 562.23 446.5C558.959 460.839 558.271 474.901 559.714 489.05C560.387 495.508 561.349 502.915 558.848 508.518C551.632 524.472 551.729 541.565 548.843 558.184C548.265 561.412 547.88 564.736 548.073 567.965C548.265 571.478 549.227 574.897 549.708 578.316C550.189 581.545 551.678 584.868 551.87 588.097C552.255 594.745 557.05 603.5 554.46 609C550.834 612 537.885 611.95 538.402 612L523.829 611C523.829 611 515.61 611.5 515.61 609L514.016 605.855L513.538 602L515.61 595C515.61 595 513.15 598.116 519.692 589C520.558 587.86 519.596 584.299 519.692 582.874C520.366 567.3 518.827 551.916 516.037 536.532C514.594 528.46 514.594 520.008 514.016 511.746C513.343 502.06 512.573 492.374 512.188 482.688C511.996 478.984 512.381 475.186 513.054 471.482C515.363 458.852 510.168 444.037 509.591 431.502C509.206 422.291 504.177 416.427 503.696 407.5C503.407 403.037 502.238 396.271 502.142 391.713C501.949 376.993 503.118 365.978 503.696 351.258C503.984 343.756 503.722 333.502 504.877 326C506.897 313.085 507.955 301.972 511.13 289.342C513.054 281.745 515.075 272.344 515.748 271.394C516.421 270.444 515.556 260.646 515.748 259.031C516.325 252.669 516.453 248.363 516.646 242C516.934 234.403 517.383 229.8 515.748 222.488C514.401 216.695 514.401 208.528 511.323 203.115C510.457 201.691 509.783 200.171 508.34 197.227C504.588 206.344 499.97 214.321 498.142 222.773C495.545 234.738 491.312 245.564 483.519 255.06C474.765 265.696 465.721 276.142 457.832 287.443C454.465 292.286 452.253 295.517 451.194 301.5C449.128 313.179 452.156 324.5 448.116 339.863C445.518 343.091 439.981 340.5 439.981 340.5C439.981 340.5 437.206 323.363 427.528 339.863C423.872 344.706 419.639 347.84 419.639 347.84C413.482 352.398 409.966 355.647 406.31 349C402.558 350.873 397.623 349.855 396.468 349C399.576 342 395.95 342 392.842 337.5C395.432 331 389.956 333.332 392.842 324.5L399.576 314.412C399.576 314.412 409.634 304.5 411.365 303.112L419.639 295.61C424.771 291.241 423.295 285.923 427.528 280.32C428.009 279.656 429.356 277.282 429.644 276.427C434.455 261.233 438.88 245.944 444.171 230.939C446.865 223.342 450.04 215.555 454.946 209.193C459.372 203.4 461.2 197.132 463.605 190.77C466.972 181.843 472.071 173.581 476.304 165.035C476.689 164.18 476.785 163.135 476.785 162.186C476.785 152.405 476.304 142.718 480.633 133.222C485.54 122.491 493.428 116.129 504.877 113.944C511.996 112.615 519.404 112.615 526.331 110.811C534.219 108.721 542.685 106.442 547.977 99.7949C551.729 95.1417 552.498 80.2324 546.341 74.5346C542.397 70.926 540.809 67.3431 538.5 62.5C537.464 57 538.58 52.6086 543.582 49C543.582 49 543.678 41.5446 543.582 40.5C545.397 31.1678 545.551 30.3838 550.959 23.1593C555.288 19.0759 560.262 16.679 565.856 12.5314C573.109 10.0314 579.576 10.7889 588.027 13.3839ZM640.911 165.699H641.007C641.007 159.717 641.007 153.639 641.007 147.656C641.007 141.864 639.179 136.641 634.561 132.937C629.847 129.139 625.037 125.625 619.938 122.396C617.822 120.972 614.935 120.117 612.434 119.927C605.123 119.642 597.715 119.547 590.307 119.927C587.228 120.117 583.765 120.972 581.36 122.681C578.378 124.865 575.876 124.865 573.086 123.156C568.468 120.307 563.37 119.452 557.982 119.737C554.038 119.927 549.901 120.212 545.956 119.737C538.837 118.883 532.873 121.257 527.196 124.96C517.961 130.848 511.515 138.73 511.226 149.936C510.842 163.325 510.072 176.905 511.804 190.105C512.958 198.462 518.346 206.154 522.001 214.226C522.29 214.891 523.06 215.365 523.829 215.745C533.45 221.253 543.647 225.242 554.807 222.962C569.527 220.019 584.054 220.968 598.677 223.627C610.51 225.811 617.533 218.689 625.614 209.858C633.407 201.406 635.812 193.396 636.197 182C636.293 176.207 640.911 171.587 640.911 165.699ZM634.177 347.84C634.177 347.84 626.673 353.063 625.999 353.537C609.259 364.553 626.886 354.781 613.513 369.5C611.781 371.399 592.275 366.126 592.275 368.5C592.371 382.555 582.226 362.939 583.861 376.803C585.978 394.751 590.211 412.415 592.712 430.268C593.578 436.156 596.849 438.34 601.467 438.91C604.834 439.289 609.067 438.625 611.857 436.915C619.65 432.072 627.057 426.469 634.369 420.961C636.004 419.727 637.448 417.543 637.929 415.548C639.853 407.667 641.584 399.69 643.027 391.713C645.721 377.088 645.721 362.464 643.22 347.84C639.853 327.992 637.832 368.162 634.177 347.84ZM516.646 347C515.78 355.357 514.174 333.568 513.02 340.5C511.288 350.946 512.573 329.322 511.515 339.863C510.072 354.392 509.302 369.111 509.591 383.736C509.783 395.226 511.996 406.717 513.439 418.113C513.631 419.347 514.69 420.866 515.748 421.531C524.022 426.754 532.391 431.977 540.954 436.915C549.612 441.853 557.116 438.815 559.233 429.223C565.871 398.17 563.674 389.408 562.23 357.5C562.134 356.076 549.901 363.45 549.035 362.5C540.184 353.004 534.362 360.185 524.934 351.258C518.584 345.275 524.054 352.698 516.646 347ZM533.45 301.5C528.573 299.316 519.499 261.478 519.236 264.5C521.064 274.471 525.368 246.229 523.252 256.01C522.194 261.043 524.31 265.791 528.255 269.21C534.219 274.338 541.05 278.801 549.035 279.276C564.524 280.131 580.013 281.08 595.502 280.131C603.679 279.656 611.857 276.142 619.553 272.818C625.999 271.394 619.361 312.418 617.533 303.112C616.09 295.61 614.454 299.276 614.454 299.276C614.166 296.712 603.968 305.014 604.353 301.5C592.231 309.382 602.91 305.771 590.307 303.112C580.302 301.023 572.14 307.246 562.23 310C562.23 310 542.685 304.405 540.954 304.5C530.179 305.355 543.84 306.153 533.45 301.5ZM606.181 44.6211C605.988 44.5261 605.892 44.5261 605.7 44.4312C605.411 41.9621 605.411 39.3981 604.834 37.024C601.852 26.3881 593.963 20.0255 584.438 15.3723C578.859 12.6184 572.894 12.5234 567.41 15.4673C551.921 23.919 544.513 34.7449 547.303 52.9779C548.362 60.1001 550.478 67.1274 552.402 74.1547C552.979 76.3389 554.23 78.618 555.866 80.2324C566.737 91.0582 586.266 91.1532 597.234 80.4223C598.773 78.9979 600.024 76.8137 600.409 74.8195C602.525 64.8483 604.257 54.6872 606.181 44.6211ZM526.331 301.5C522.098 311.566 512.958 316.691 520.173 322.769C522.001 335.019 560.676 364.5 570.296 329.607C572.99 333.025 577.704 333.215 580.686 329.986C582.803 327.707 584.438 324.763 586.844 322.769C600.024 311.468 613.108 300.168 626.576 289.342C633.984 283.359 634.369 307.633 628.404 299.276C627.25 300.131 625.614 295.61 625.614 295.61C618.88 301.687 611.28 281.46 602.333 281.935C586.555 282.79 570.681 282.885 554.807 282.695C545.187 282.6 540.954 307.483 533.45 301.5C531.718 299.981 528.543 302.735 526.331 301.5ZM599.254 463.695C598.484 472.717 597.33 480.883 597.041 489.145C596.849 495.413 597.041 501.775 598.196 507.853C599.158 513.171 602.429 518.109 603.391 523.427C605.507 536.437 607.047 549.542 608.49 562.552C608.875 565.686 609.74 567.11 613.011 567.205C616.667 567.3 620.515 567.205 623.979 568.155C628.789 569.484 629.27 567.395 629.559 563.502C630.04 554.575 630.232 545.553 631.771 536.722C635.427 515.735 635.716 494.653 635.331 473.476C635.331 471.007 634.177 468.633 633.311 465.214C625.71 473.571 618.11 473.096 610.029 468.538C606.662 466.829 603.102 465.499 599.254 463.695ZM524.214 568.25C529.986 567.775 535.47 567.49 540.761 566.825C541.916 566.635 543.551 565.116 543.744 563.976C544.898 556.379 545.475 548.687 546.822 541.09C548.65 530.834 551.151 520.673 553.268 510.417C554.422 504.909 555.866 499.401 556.058 493.893C556.25 488.48 555.096 482.973 554.326 477.465C553.749 473.191 553.076 468.918 552.306 463.41C541.242 470.627 530.564 477.275 517.576 465.974C516.999 476.705 516.229 485.537 516.133 494.463C516.133 498.642 517.48 502.82 517.864 506.998C520.077 527.131 522.098 547.263 524.214 568.25ZM722.108 306.91C722.589 306.625 728.511 304.5 728.511 304.5C731.686 306.494 728.252 300.076 731.619 301.5C730.657 302.64 733.832 302.355 731.619 301.5C734.024 298.746 735.192 300.073 733.075 298.743C728.361 295.8 735.393 298.269 730.583 295.61C722.117 291.146 726.533 292.381 717.009 297.319C705.272 303.302 704.887 302.542 706.619 315.552C706.811 317.261 709.505 314.033 710.179 315.552C713.834 323.814 714.893 314.412 714.893 314.412C715.47 315.647 716.047 321.725 717.009 322.769C717.202 321.345 721.547 328.942 721.259 327.612C721.259 327.612 723.551 328.773 722.108 324.5C722.108 324.5 725.44 322.19 725.921 322C731.597 329.977 720.163 326.688 727.475 334C729.784 325.168 729.804 340.242 729.42 331.221C735.577 339.483 724.359 331.802 733.691 337.5C734.364 337.31 730.065 327 730.065 327C727.756 317.599 740.291 337.488 737.982 327.992C738.367 327.897 738.752 327.707 739.136 327.612C741.253 333.215 733.358 314.492 735.763 320C736.629 322.089 739.404 319.112 740.943 320.917C740.943 320.062 744.051 323.133 744.051 323.133C744.051 321.044 743.496 322.399 743.015 320.5C741.764 315.277 749.046 332.55 747.602 327.422C745.871 321.06 723.936 313.368 722.108 306.91ZM650.81 172.5C650.521 186.745 645.144 198.177 654.861 208.623C660.633 214.891 665.636 216.6 673.524 213.276C678.046 211.377 681.991 207.863 685.935 204.729C686.897 203.97 686.993 201.596 686.801 200.076C685.069 187.066 677.084 176.715 671.697 165.32C671.312 164.56 670.446 163.895 669.676 163.515C662.557 160.002 663.109 162.704 655.99 159C653.392 157.671 654.917 155.246 654.436 158C653.57 163.603 651.676 166.992 650.81 172.5ZM433.781 314.412C434.166 313.558 435.705 317.355 435.994 316.5C440.612 303.87 435.652 320.49 439.981 307.86C440.654 306.056 446.384 305.011 445.518 303.112C443.498 299.123 432.492 294.85 428.067 295.61C417.869 297.509 435.609 293.732 427.528 300C424.93 302.089 427.528 300.738 424.834 303.112C429.548 306.815 414.026 311.374 417.297 309.474C420.183 307.765 408.287 311.519 411.365 310C411.75 310.475 410.884 308.81 411.365 309.189C410.981 310.899 410.692 312.703 410.211 314.412C407.036 324.668 422.718 306.149 419.639 316.5C419.254 317.829 409.153 327.897 409.634 329.512C410.115 329.417 420.697 309.569 421.178 309.474C421.178 309.474 415.469 323.488 417.297 319.5C419.029 315.796 412.63 320.969 416.67 318.5C414.843 328.471 418.292 305.959 419.639 316.5C421.563 315.076 421.756 319.825 422.429 318.021C424.642 312.133 419.062 331.888 421.178 326C421.756 324.386 421.659 331.031 422.429 329.512C422.91 329.701 423.391 329.891 423.872 329.986C422.718 334.26 421.563 338.438 420.505 342.711C419.447 346.89 429.644 314.412 429.644 314.412C430.125 314.602 428.49 320.81 428.971 321C432.627 312.548 429.073 330.452 432.729 322C434.941 328.647 433.781 314.412 433.781 314.412ZM504.011 155.5C499.297 157.969 499.586 154.494 495.545 156.583C486.983 161.046 478.901 166.364 474.861 175.481C471.397 182.983 468.607 190.865 466.106 198.747C465.529 200.551 466.587 203.305 467.838 205.014C469.57 207.388 472.071 209.288 474.38 211.282C483.615 219.069 493.525 217.17 498.912 206.629C499.297 205.964 499.778 205.394 500.067 204.729C502.856 199.317 505.287 193.603 505.768 188C506.826 175.37 504.011 168.985 504.011 155.5ZM450.521 286.493C452.253 285.543 453.599 285.164 454.561 284.214C456.582 282.22 458.41 280.036 460.141 277.756C468.126 267.026 476.111 256.295 484 245.564C486.309 242.43 486.213 239.676 482.365 237.872C475.053 234.358 467.838 230.655 460.43 227.616C454.561 225.147 450.136 226.856 448.116 232.649C443.017 247.273 438.399 262.087 433.781 276.902C433.493 277.946 434.839 280.415 435.994 280.985C440.708 283.074 445.614 284.689 450.521 286.493ZM694.209 226.951C688.148 228.85 681.894 230.18 676.218 232.744C667.079 236.922 665.924 243.095 671.889 251.072C679.201 260.853 686.512 270.634 693.92 280.32C698.73 286.683 699.019 286.778 706.619 284.499C707.87 284.119 709.024 283.644 710.179 283.169C718.933 279.466 719.126 279.181 715.855 270.349C715.566 269.495 715.181 268.545 714.893 267.69C711.718 257.149 708.736 246.513 705.272 235.972C703.348 229.895 700.366 227.996 694.209 226.951ZM597.33 87.8295C589.441 89.3489 582.418 92.0079 575.588 91.628C568.757 91.2482 562.119 87.7345 555 85.4554C553.845 91.9129 555.866 99.6049 549.516 104.258C544.032 108.247 537.875 111.285 531.045 115.369C535.278 115.939 538.741 116.413 542.108 116.793C552.883 118.218 564.235 115.939 574.529 121.352C575.684 121.921 577.897 121.636 579.051 120.972C583.38 118.028 588.19 117.648 593.193 117.553C600.409 117.458 607.528 117.173 614.743 116.793C617.244 116.698 619.842 115.939 622.343 115.464C616.282 111.38 610.318 108.532 604.353 105.683C600.216 103.688 598.196 100.46 598.1 95.9014C597.907 92.9575 597.522 90.0136 597.33 87.8295ZM624.748 587.052C618.206 586.673 622.312 588.201 618.175 592C613.942 595.799 606.469 596.961 611.28 600C615.32 602.564 615.297 596.074 615.585 600.917C615.97 607.28 617.437 592.227 622.151 596.5C623.69 597.924 620.765 593 620.765 593C627.5 590.816 623.873 590.5 623.873 590.5L625.427 589L628.535 592C624.783 586.777 628.795 594.508 625.427 589C623.599 585.866 628.212 586.198 624.748 587.052ZM520.272 600C522.344 599.5 520.501 606.14 520.79 605.855C521.848 605.475 526.044 607.475 527.006 607C534.799 602.917 533.222 608 533.222 608C533.703 605.151 539.126 608.324 540.761 605.855C541.723 604.336 543.693 603.235 545.136 602C547.83 599.721 548.939 589.711 545.764 588.097C540.858 585.533 534.219 589.047 529.024 587.242C527.293 586.673 525.946 589.265 524.984 590.5C517.672 599.901 521.308 595.5 521.308 595.5C519.48 597.969 518.153 599 518.153 599C518.153 599 519.87 600.097 520.272 600ZM597.33 439.574C596.079 456.763 600.024 465.024 617.244 469.203C625.614 471.197 631.771 467.494 633.118 459.232C634.754 449.166 635.235 438.909 636.197 428.748C636.389 426.944 636.197 425.235 636.197 422.861C629.462 427.514 623.498 431.692 617.533 435.871C611.472 440.334 605.219 444.132 597.33 439.574ZM556.443 440.049C554.711 440.334 553.46 440.524 552.306 440.714C545.187 441.853 539.222 439.384 533.45 435.491C527.966 431.787 522.386 428.464 516.037 424.475C516.037 427.419 515.94 429.508 516.037 431.502C516.614 439.859 517.576 448.216 517.864 456.668C518.153 463.98 523.348 469.678 530.948 470.058C538.068 470.342 543.647 466.544 549.131 462.745C550.67 461.701 552.595 460.276 552.979 458.757C554.519 452.679 555.385 446.507 556.443 440.049ZM534.123 118.218C523.637 113.375 499.97 116.413 491.697 124.77C481.98 134.646 478.805 147.372 481.018 162.471C489.195 157.818 496.988 154.019 504.011 149.081C507.186 146.897 509.398 142.908 511.13 139.3C513.728 133.792 517.095 129.329 522.194 125.91C526.042 123.536 529.89 121.067 534.123 118.218ZM622.536 119.832C624.652 121.731 626.288 123.821 628.404 125.055C635.716 129.329 640.334 135.691 643.316 143.383C644.086 145.472 645.625 147.751 647.549 148.796C653.899 152.31 660.633 155.254 667.079 158.482C670.35 160.097 672.081 158.957 672.37 155.728C672.562 153.164 672.081 150.505 671.793 147.941C670.35 134.172 663.615 121.257 646.972 118.883C643.797 118.408 640.622 118.028 637.64 116.793C632.156 114.514 627.538 115.654 622.536 119.832ZM451.194 223.912C451.483 224.387 451.868 224.957 452.156 225.432C465.433 222.773 475.534 230.18 486.694 236.257C489.099 229.8 491.216 224.007 493.717 217.36C480.633 219.449 471.109 214.321 462.258 205.014C458.217 211.852 454.658 217.929 451.194 223.912ZM703.348 226.476C699.115 220.493 695.267 215.65 692.381 210.332C690.36 206.629 688.821 206.344 685.646 208.718C678.527 214.036 671.504 219.829 660.922 217.36C662.461 223.912 663.904 229.61 665.443 235.972C676.795 227.711 688.532 223.057 703.348 226.476ZM539.438 584C539.149 581.246 545.86 585.913 545.764 583.254C545.668 580.595 545.956 577.841 545.764 575.277C545.572 573.758 545.091 571.763 544.032 570.814C540.858 567.87 528.062 568.535 524.984 571.668C524.406 572.238 523.925 573.283 523.925 574.137C523.829 577.271 523.829 580.405 523.829 582.874C531.718 585.723 532.03 581.246 539.438 584ZM608.49 582.589C615.417 579.835 619.842 585.818 625.999 583.159C627.154 582.684 628.212 580.975 628.404 579.645C629.462 571.289 628.885 570.624 620.612 569.959C617.533 569.674 614.358 569.864 611.28 569.674C607.816 569.389 606.662 571.194 606.662 574.137C606.566 579.455 608.49 576.417 608.49 582.589ZM451.964 289.627C445.133 286.968 438.688 284.499 431.857 281.84C430.414 284.499 429.067 286.873 427.528 289.722C431.472 291.811 435.032 293.71 438.688 295.61C446.288 299.693 446.288 299.693 450.425 292.191C450.617 291.716 451.002 291.146 451.964 289.627ZM725.187 290.861C723.551 288.107 722.589 286.113 721.242 284.404C720.665 283.644 719.03 282.884 718.164 283.169C713.353 284.784 708.447 286.493 703.925 288.677C700.173 290.482 703.059 293.425 703.829 295.61C704.214 296.749 706.523 298.269 707.292 297.984C713.065 295.895 718.741 293.425 725.187 290.861ZM545.956 56C539.703 61.4129 544.457 62.7266 553.5 67C551.672 60.9223 547.881 62.3626 545.956 56ZM603.391 70.831C612.434 63.139 613.204 57.0613 607.72 53.2628C606.181 59.2455 604.738 65.0382 603.391 70.831Z" fill="white"/>
<path id="cuisse gauche_2" d="M638.378 343.5C638.378 343.5 645.63 315.5 644.085 350C646.608 367.586 646.802 385.417 644.085 403.003C642.629 412.595 642.39 424.189 640.45 433.667C639.964 436.065 632.683 470.457 631.033 471.942C623.658 478.565 621.283 475.088 613.513 475.088C610.699 477.143 606.032 469.777 602.635 469.32C597.977 468.635 594.105 456.446 593.329 449.366C590.709 427.898 586.439 406.657 584.401 385.074C582.751 368.402 581.915 354.045 581.915 354.045C581.915 351.19 593.411 356.45 595.501 356.45C595.501 356.45 603.339 361.26 617.97 355.248C622.15 354.647 638.378 343.5 638.378 343.5Z" fill="#FAE0D1"/>
<path id="cuisse droite_2" d="M516.646 340C516.646 340 524.567 353.5 535.294 353.5L541.51 355.999L549.798 356.5L560.109 354.63L570.361 347.964C571.855 380.478 562.4 426.345 555.527 458.083C553.435 467.788 539.712 479.859 530.647 474.812C521.781 469.862 525.837 472.831 517.171 467.493C517.171 462.059 512.899 429.023 512.7 427.761C511.205 416.017 506.524 406.31 506.324 394.567C506.026 379.62 504.83 369.576 506.324 354.63C507.42 343.856 507.208 339.676 509.001 329C510.396 321.818 516.646 340 516.646 340Z" fill="#FAE0D1"/>
<path id="t&#195;&#170;te_2" d="M606.181 44.621C604.353 54.6872 602.621 64.8482 600.505 74.8194C600.12 76.8136 597.862 89.0755 596.419 90.4999C580.879 94.9999 567.929 95.4999 556.015 87.4999C554.379 85.8856 553.172 76.3388 552.498 74.1547C550.574 67.1274 548.458 60.1001 547.4 52.9778C544.61 34.7448 552.017 23.919 567.506 15.4672C572.99 12.4284 578.955 12.6183 584.535 15.3723C594.059 20.0255 601.948 26.2931 604.93 37.0239C605.604 39.398 605.507 41.962 605.796 44.4311C605.892 44.5261 605.988 44.621 606.181 44.621Z" fill="#FAE0D1"/>
<path id="bassin_2" d="M517.342 280L533.277 286.486C541.135 291.337 556.688 291.68 566.893 291.757C583.731 291.911 582.479 292.45 599.215 291.757C608.706 291.372 619.546 287.703 619.546 287.703C619.546 287.703 633.707 281.832 634.931 281.216C644.822 319.729 647.266 333.044 639.408 337.972C630.775 352.567 609.405 352.972 596.548 351.35C596.548 351.35 581.082 351.35 578.965 339.188C575.801 341.806 570.173 347.459 564.679 348.918C537.204 356.215 520.639 344.459 513.577 333.918C503.605 326.621 509.65 313.243 517.342 280Z" fill="#FAE0D1"/>
<path id="tibia gauche_2" d="M599.254 463.695C603.198 465.499 606.662 466.829 609.933 468.728C618.014 473.381 625.614 473.856 633.214 465.404C634.08 468.728 635.235 471.197 635.235 473.666C635.62 494.843 635.331 515.925 631.675 536.912C630.136 545.743 629.943 554.765 629.462 563.691C629.27 567.49 628.789 569.674 623.883 568.345C620.419 567.395 616.571 567.49 612.915 567.395C609.644 567.3 608.778 565.876 608.394 562.742C606.95 549.637 605.507 536.532 603.295 523.617C602.429 518.299 599.158 513.361 598.1 508.043C596.945 501.87 596.753 495.508 596.945 489.335C597.33 480.883 598.388 472.622 599.254 463.695Z" fill="#FAE0D1"/>
<path id="tibia droite_2" d="M524.214 568.25C522.098 547.358 520.077 527.226 517.961 507.093C517.48 502.915 516.133 498.736 516.229 494.558C516.325 485.632 517.095 476.705 517.672 466.069C530.66 477.275 541.339 470.722 552.402 463.505C553.172 469.013 553.941 473.286 554.422 477.56C555.096 482.973 556.347 488.48 556.154 493.988C555.962 499.496 554.519 505.099 553.364 510.512C551.248 520.768 548.746 530.929 546.918 541.185C545.572 548.782 544.994 556.474 543.84 564.071C543.647 565.211 542.012 566.825 540.858 566.92C535.47 567.49 529.986 567.775 524.214 568.25Z" fill="#FAE0D1"/>
<path id="main gauche_3" d="M715.043 322.5C719.873 327.175 723.538 333.517 728.368 338.192C732.276 341.934 736.089 345.838 740.092 349.42C741.651 350.808 743.809 351.563 745.606 352.547C746.195 352.123 746.784 351.698 747.374 351.273C746.508 349.09 746.136 346.645 744.681 344.886C740.906 340.149 736.722 335.721 732.718 331.179C732.994 330.902 733.355 330.673 733.63 330.397C740.961 336.976 748.245 343.636 755.661 350.261C756.165 349.79 756.754 349.365 757.257 348.893C756.73 338.247 745.17 334.05 740.766 324.803C748.79 329.626 752.966 338.107 762.063 340.528C759.131 330.701 749.472 325.195 745.087 316.493C745.495 316.183 745.771 315.907 746.179 315.597C749.317 318.917 752.322 322.272 755.641 325.478C756.649 326.458 758.436 326.689 759.862 327.15C761.663 325.5 760.689 321.414 759.862 320.32C754.365 312.931 750.32 308.647 744.681 301.5C743.644 300.185 739.348 298.934 737.903 297.929C727.083 289.972 727.53 290.751 716.346 297.651C707.148 303.289 706.394 309.69 706.237 319C706.125 324.384 705.864 325.849 706.237 331.179C706.39 333.612 705.454 342.722 709.17 341.982C710.805 341.703 712.372 338.077 712.561 335.831C713.025 332.349 715.272 326.149 715.043 322.5Z" fill="#FAE0D1"/>
<path id="biceps gauche_2" d="M642.522 172.5C643.388 166.897 642.174 160.603 643.04 155C643.521 152.151 641.478 142.171 644.076 143.5C651.099 147.109 664.411 147.891 671.53 151.5C672.3 151.88 671.663 161.74 672.048 162.5C681.89 179 687.07 201.5 701.057 224.5C701.249 226.019 689.068 222.74 688.106 223.5C684.258 226.634 682.882 226.601 678.264 228.5C670.375 231.824 659.098 218 654.861 208.623C645.24 198.177 642.233 186.745 642.522 172.5Z" fill="#FAE0D1"/>
<path id="main droite" d="M396.64 330.652C403.588 330.492 404.775 320.701 411.06 318.624C406.178 325.636 401.295 332.648 396.413 339.66C396.804 339.898 397.167 340.254 397.558 340.492C402.007 339.731 404.363 336.182 407.226 333.191C410.09 330.201 412.781 327.125 415.645 324.134C416.036 324.372 416.427 324.61 416.742 324.898C415.969 326.305 415.243 327.78 414.25 329.034C410.634 333.617 406.846 338.115 403.278 342.765C402.107 344.237 401.595 346.167 401.5 348.217C410.54 343.619 415.743 335.5 422.793 329.04C422.851 333.176 419.549 335.861 417.474 339.025C415.297 342.356 412.701 345.567 410.229 348.796C410.393 349.183 410.558 349.571 410.723 349.959C412.217 349.565 414.274 349.494 415.137 348.525C421.864 340.987 428.199 333.211 434.829 325.537C435.898 324.233 437.234 323.149 438.398 321.98C438.967 322 439.536 322.021 440.078 322.159C440.41 325.12 440.94 328.049 441.025 330.974C441.151 334.27 440.503 337.881 445.824 339.126C446.363 335.986 447.046 333.048 447.332 330.175C448.27 321.204 447.543 312.541 443.957 304.38C442.425 300.823 430.291 294.053 426.165 294.799C424.177 295.122 421.778 296.115 420.682 297.537C412.792 307.337 404.029 312.991 396.773 325.358C396.41 326.095 395.123 329.475 396.64 330.652Z" fill="#FAE0D1"/>
<path id="biceps droit_2" d="M509.394 141.5C507.859 156 507.859 175.291 507.859 188.301C507.282 193.904 503.896 199.087 501.106 204.5C501.106 204.5 498.804 212.835 498.516 213.5C493.128 224.041 482.887 224.787 473.651 217C471.342 215.006 462.433 212.469 460.701 210C459.45 208.291 465.433 200.361 466.01 198.557C468.607 190.675 471.397 182.888 474.765 175.291C478.901 166.174 483.219 154.304 491.782 149.746C495.822 147.846 504.68 144.064 509.394 141.5Z" fill="#FAE0D1"/>
<path id="avant bras droit_2" d="M452.224 286C446.932 283.988 441.428 282.187 436.243 279.751C434.972 279.115 433.491 276.467 433.808 275.196C438.888 258.672 443.968 242.149 449.578 225.837C451.8 219.376 456.669 217.469 463.125 220.223C471.38 223.719 479.212 227.744 487.255 231.663C491.489 233.675 491.594 236.747 489.054 240.242C480.27 252.211 471.592 264.18 462.807 276.149C460.902 278.691 458.891 281.128 456.669 283.352C455.61 284.517 454.023 285.047 452.224 286Z" fill="#FAE0D1"/>
<path id="avant bras gauche_2" d="M692.419 219C698.983 220.186 702.163 222.343 704.317 229.353C708.009 241.323 711.189 253.293 714.573 265.371C714.881 266.449 715.189 267.42 715.599 268.39C718.984 278.419 718.881 278.743 709.548 282.949C708.317 283.488 706.983 284.027 705.753 284.458C697.547 287.046 697.24 286.939 692.214 279.713C684.419 268.606 676.521 257.606 668.727 246.499C662.367 237.44 663.598 230.539 673.342 225.686C679.291 222.667 686.06 221.157 692.419 219Z" fill="#FAE0D1"/>
<path id="cou/nuque_2" d="M597.33 87.8294C597.522 90.0136 598.003 92.9574 598.003 95.9013C598.1 100.46 600.024 103.688 604.257 105.683C610.221 108.531 616.186 111.475 622.247 115.464C619.746 115.939 617.244 116.603 614.647 116.793C607.528 117.173 600.312 117.458 593.097 117.553C588.094 117.553 583.284 118.028 578.955 120.972C577.8 121.731 575.588 122.016 574.433 121.352C564.139 116.034 552.787 118.218 542.012 116.793C538.645 116.318 535.181 115.939 530.948 115.369C537.779 111.285 543.936 108.247 549.42 104.258C555.673 99.6998 553.749 92.0078 554.903 85.4553C562.023 87.7344 568.661 91.2481 575.491 91.6279C582.418 92.1028 589.441 89.3488 597.33 87.8294Z" fill="#FAE0D1"/>
<path id="pied gauche_2" d="M622.412 587.498C625.348 586.754 627.213 586.518 628.891 589.166L632.109 594.673C634.626 598.231 635.788 606.145 635.788 606.145C635.788 606.145 634.787 607.07 633.948 607.981L631.19 609.816C629.931 610.23 623.833 609.816 623.833 609.816H616.017C616.017 609.816 605.746 610.215 602.223 607.981C598.029 605.332 602.67 592.559 606.361 589.166C604.062 586.58 616.792 587.167 622.412 587.498Z" fill="#FAE0D1"/>
<path id="pied droit_2" d="M524.758 606.948H522.614C515.753 607.871 520.041 596.327 520.041 596.327C520.041 596.327 524.758 589.005 525.271 589.005C526.067 587.865 528.775 587.251 530.209 587.778C534.509 589.356 540.501 585.41 544.483 587.778C547.111 589.268 550.487 600.945 549.629 602.33C549.629 603.715 550.487 606.024 548.343 606.948C546.989 609.316 537.194 606.948 537.194 606.948L532.906 607.409L529.046 606.948H524.758Z" fill="#FAE0D1"/>
<path id="epaule droite_2" d="M534.123 118.218C529.89 121.067 526.042 123.536 522.29 126.005C517.287 129.328 513.824 133.887 511.226 139.395C509.495 143.003 507.282 146.992 504.107 149.176C497.084 154.019 489.291 157.913 481.114 162.566C478.901 147.467 482.076 134.741 491.793 124.865C499.97 116.413 523.733 113.47 534.123 118.218Z" fill="#FAE0D1"/>
<path id="epaule gauche_2" d="M622.536 119.832C627.538 115.749 632.156 114.514 637.64 116.793C640.526 117.933 643.797 118.408 646.972 118.883C663.711 121.257 670.35 134.172 671.793 147.941C672.081 150.505 672.562 153.164 672.37 155.728C672.081 158.957 670.35 160.097 667.079 158.482C660.537 155.254 653.899 152.31 647.549 148.796C645.721 147.751 644.182 145.472 643.316 143.383C640.334 135.691 635.716 129.328 628.404 125.055C626.288 123.726 624.652 121.731 622.536 119.832Z" fill="#FAE0D1"/>
<path id="coude droit_2" d="M451.194 223.912C454.658 217.929 458.217 211.947 462.162 205.014C471.013 214.416 482.842 219.589 495.926 217.5C493.424 224.147 492.115 230.542 489.71 237C478.55 230.827 465.433 222.678 452.06 225.432C451.868 224.957 451.483 224.387 451.194 223.912Z" fill="#FAE0D1"/>
<path id="coude gauche_2" d="M703.348 226.476C688.532 223.057 676.795 227.711 665.347 235.972C663.808 229.61 662.461 223.912 660.825 217.36C671.408 219.829 678.431 214.036 685.55 208.718C688.725 206.344 690.264 206.629 692.284 210.332C695.267 215.65 699.115 220.398 703.348 226.476Z" fill="#FAE0D1"/>
<path id="cheville droite_2" d="M537.778 598.512C530.475 587.183 531.699 601.486 523.922 589.376C523.922 579.219 523.827 566.327 524.017 553.436C524.017 549.92 524.491 545.623 525.06 543.279C528.095 530.387 540.804 527.653 543.839 539.763C544.883 544.06 545.357 551.873 545.546 558.124C545.831 569.062 545.452 580 545.546 590.938C545.641 601.877 537.778 598.512 537.778 598.512Z" fill="#FAE0D1"/>
<path id="cheville gauche_2" d="M609.025 598.477C606.779 593.74 606.779 580.657 606.779 561.871C606.779 551.471 607.914 545.098 611.317 546.104C614.342 547.11 617.462 546.439 620.488 547.11C628.618 549.459 629.185 551.807 628.145 581.328C627.956 585.689 626.916 592.062 625.782 593.74C619.826 603.133 610.552 596.711 609.025 598.477Z" fill="#FAE0D1"/>
<path id="poignet droit_2" d="M456.557 282.423C455.563 283.985 451.583 292.479 451.285 293.065C447.011 300.779 446.037 313.703 434.992 305.22C431.314 303.267 426.444 298.355 422.369 296.207C423.959 293.278 433.501 277.734 434.992 275C442.049 277.636 449.4 279.689 456.557 282.423Z" fill="#FAE0D1"/>
<path id="poignet gauche_2" d="M737.835 297.984C731.486 300.548 714.695 305.911 708.827 308C705.363 305.626 704.118 296.749 703.829 295.61C703.059 293.425 692.642 278.804 696.394 277C701.012 274.816 709.196 273.114 714.007 271.5C714.007 271.5 720.569 283.644 721.242 284.404C722.589 286.018 736.2 295.23 737.835 297.984Z" fill="#FAE0D1"/>
<path id="oreille droite_2" d="M548.588 50.6614C550.152 58.9165 551.718 66.3385 553.175 74.3364C539.906 66.6251 537.459 55.5939 548.588 50.6614Z" fill="#FAE0D1"/>
<path id="oreille gauche_2" d="M598.436 75.5045C600.51 67.4124 602.583 59.3203 604.635 50.9694C615.153 55.388 614.374 63.7738 598.436 75.5045Z" fill="#FAE0D1"/>
<path id="ventre" d="M521.876 218.979C532.696 224.201 543.116 226.865 554.036 226.012C555.84 225.906 557.743 225.799 559.447 225.266C569.766 222.176 580.086 222.389 590.605 224.734C603.73 227.717 618.193 225.844 630.716 217C630.316 220.943 630.416 233.845 630.716 236.722C631.482 244.048 630.769 243.518 632.272 251.937C634.176 262.379 638.378 279 625.428 281C617.412 284.73 604.258 290.397 595.383 288.5C579.353 289.459 563.053 287.603 546.923 286.644C538.607 286.111 528.087 283.754 521.876 278C517.768 274.164 518.87 266.291 520.072 260.537C520.072 247.992 521.776 237.849 521.776 227.504C521.475 224.947 521.876 222.389 521.876 218.979Z" fill="#FAE0D1"/>
</g>
<path id="torax_2" d="M640.968 167.5C638.486 175.5 640.968 189.5 633.738 205.068C633.385 217.688 626.438 229.984 613.617 227.77H590.053C573.908 226.662 579.903 229.984 567.083 227.77C567.083 227.77 539.067 230.538 539.067 227.77C539.067 227.77 531.401 227.741 523.506 220.527C520.243 211.693 515.743 207.538 514.685 198.284C510.534 181.866 510.181 168.096 510.534 153.268C510.798 140.86 510.449 126.321 518.826 119.801C524.03 115.699 537.056 111.554 543.582 112.5C547.198 113.026 554.383 114.315 558.086 114C563.025 113.685 572.591 114 572.591 114H581.397C581.397 114 588.417 114.21 591.239 114C597.941 113.579 599.221 112.841 606.011 113.156C608.392 113.262 617.553 113.24 619.493 114.818C640.861 116.479 638.486 121.462 638.486 121.462C638.486 121.462 645.183 140.269 642.334 146.913C642.334 153.538 640.968 160.875 640.968 167.5Z" fill="#FAE0D1"/>
</g>
</g>
</g>
</g>
</svg>
