<svg width="457" height="1233" viewBox="0 0 457 1233" fill="none" xmlns="http://www.w3.org/2000/svg">
<path d="M281.13 66.6672C302.379 217.389 376.63 371.477 415.656 421.957C443.151 457.79 461.186 495.978 456.16 540.442C452.908 569.213 441.969 596.415 433.395 623.879C412.699 690.837 393.187 758.319 380.474 826.847C375.152 855.095 374.856 883.866 373.674 912.637C372.787 933.823 367.761 952.394 344.7 963.118C336.126 967.041 341.448 970.703 344.404 974.103C355.343 986.919 367.169 999.474 374.561 1014.12C379.882 1024.58 384.908 1035.05 378.995 1046.55C376.039 1052.31 380.178 1055.45 383.43 1059.37C391.117 1069.05 399.1 1078.2 406.491 1087.88C413.586 1097.03 420.682 1107.76 418.908 1117.96C415.656 1136.01 421.273 1152.48 424.23 1169.49C428.96 1196.69 411.039 1213.59 388.865 1229.02C382.572 1232.12 378.965 1235.25 371.013 1229.64C349.135 1214.21 337.604 1191.2 319.274 1173.15C274.04 1129.99 237.379 1080.3 195.693 1034C178.545 1015.17 168.493 992.674 159.919 969.918C138.632 913.422 121.189 855.879 104.041 798.599C98.1281 778.72 102.859 758.842 105.815 738.964C115.867 667.82 130.65 597.462 145.728 527.103C151.641 499.116 148.684 471.653 135.084 445.497C118.824 413.849 126.807 423.933 81.3838 358.806C47.0251 296.781 23.507 225.422 19.0723 223.591C19.0723 220.975 -6.55119 169.629 1.60173 169.629C14.3147 169.106 86.5354 343.681 92.4484 350.743C111.37 373.237 124.737 401.817 137.745 427.45C147.206 446.543 155.78 465.899 158.441 487.085C161.693 515.856 153.415 543.319 147.206 570.783C132.423 637.218 121.484 704.438 111.432 771.658C109.658 782.905 112.024 794.675 115.867 805.137C136.563 860.064 148.684 917.084 171.449 971.488C181.501 995.551 194.214 1018.57 213.136 1038.71C248.614 1076.63 278.179 1119.01 316.613 1155.62C320.161 1159.02 322.822 1163.99 330.804 1161.12C304.492 1129.47 280.248 1097.03 252.162 1067.22C221.414 1034.78 199.24 999.997 189.484 958.148C178.545 910.806 159.623 865.295 140.702 820.046C126.215 785.782 131.537 751.518 138.336 716.993C138.928 713.854 139.815 709.146 145.432 710.454C150.458 711.762 148.98 716.208 148.684 719.347C146.91 731.378 145.432 743.672 142.771 755.442C137.745 777.674 143.363 798.86 151.936 819.261C173.519 872.096 192.44 925.715 206.927 980.381C215.205 1012.29 238.266 1036.09 260.735 1060.42C276.701 1077.68 292.37 1094.94 305.674 1113.77C309.813 1119.79 313.952 1124.5 323.118 1120.84C325.187 1120.05 328.144 1120.31 330.509 1120.84C342.335 1122.67 371.013 1155.36 371.308 1166.09C371.308 1169.22 365.691 1173.93 373.378 1175.5C379.291 1176.81 383.43 1174.46 386.682 1169.49C395.552 1155.88 394.96 1141.5 390.23 1127.64C381.952 1102 365.395 1080.56 341.743 1063.56C334.648 1058.32 329.326 1052.83 327.552 1044.46C322.822 1021.97 311.292 1002.35 290.596 987.966C279.066 980.119 276.996 970.18 280.248 959.194C282.909 948.994 281.431 939.839 277.292 929.9C259.257 886.743 261.918 842.802 271.675 798.599C276.996 775.058 281.431 751.518 284.387 727.978C287.64 703.915 279.066 680.637 275.222 656.835C271.97 636.957 269.309 617.078 275.814 597.461C278.77 588.569 284.092 580.722 290.596 573.66C292.961 571.044 296.213 569.475 299.761 571.567C303.605 573.921 302.126 577.06 299.761 579.414C276.996 601.908 278.474 629.371 286.161 655.004C301.831 707.054 292.37 757.534 280.544 808.538C272.561 842.54 270.196 876.543 282.022 910.545C283.205 914.207 283.205 918.13 288.231 921.269C288.231 912.376 288.527 904.006 288.231 895.898C287.935 888.313 291.483 884.651 300.353 884.912C314.248 885.174 327.848 885.174 341.743 884.912C350.022 884.651 353.274 887.528 352.978 894.852C352.683 904.791 353.865 914.991 352.387 924.931C350.909 936.962 345.587 948.471 331.396 952.917C317.796 957.102 306.561 951.609 297.396 942.193C296.509 941.147 297.1 938.27 294.44 939.578C292.666 940.362 294.144 942.455 295.622 943.763C302.126 959.456 312.77 964.426 329.622 959.194C352.978 952.132 361.256 941.409 361.848 919.176C364.213 851.956 376.926 786.305 394.665 720.916C409.447 667.82 426.299 614.986 441.377 561.89C453.795 517.425 443.151 476.099 414.178 438.958C374.856 388.739 346.474 334.074 324.3 276.532C321.935 270.516 278.801 169.629 268.318 67.9077C268.318 67.9077 259.881 -84.0542 281.13 66.6672ZM292.666 961.025C286.161 968.349 288.527 974.103 295.622 979.334C318.683 996.074 331.691 1018.04 337.9 1043.42C338.787 1047.6 340.561 1050.74 344.109 1053.35C370.717 1072.45 389.343 1096.77 399.691 1125.54C400.873 1128.42 401.465 1132.34 405.604 1131.82C410.039 1131.3 408.856 1127.11 409.152 1124.24C409.743 1110.9 403.239 1099.39 394.665 1089.45C362.439 1051.79 332.874 1012.03 305.083 971.749C302.126 967.564 299.17 963.379 292.666 961.025ZM321.344 895.113C316.318 895.113 311.587 895.375 306.561 895.113C300.648 894.851 297.1 896.682 297.692 902.437C298.874 913.16 299.17 924.146 305.674 933.823C310.109 940.101 316.022 945.07 324.596 944.286C332.578 943.501 337.309 938.008 340.561 931.731C345.587 921.792 343.813 911.33 343.813 900.867C343.813 896.421 340.857 894.852 336.126 894.852C331.1 895.113 326.37 895.113 321.344 895.113ZM404.421 1147.78C400.282 1178.38 391.117 1187.53 365.691 1186.75C369.239 1195.38 376.926 1202.44 376.63 1212.12C376.335 1220.75 381.065 1220.49 387.569 1217.09C417.725 1202.18 423.047 1165.04 404.421 1147.78ZM368.943 1041.85C371.604 1026.15 342.63 978.027 328.144 972.011C326.665 971.226 324.004 970.964 322.526 971.749C319.865 972.795 320.161 975.411 321.344 977.242C336.422 998.689 350.613 1020.66 368.943 1041.85ZM357.117 1168.96C360.074 1167.66 361.848 1165.3 360.369 1162.95C352.091 1150.65 341.743 1139.93 329.031 1131.3C327.552 1130.51 323.709 1131.04 322.526 1132.08C320.457 1133.91 322.822 1136.01 324.3 1137.58C332.578 1148.56 343.517 1157.19 353.865 1166.35C354.456 1167.39 355.639 1167.92 357.117 1168.96ZM367.597 1213.78C364.345 1200.96 364.713 1188.1 331.548 1172.23C335.096 1178.51 360.206 1209.6 367.597 1213.78ZM285.274 929.639C285.57 931.208 285.57 933.562 287.935 933.3C290.892 933.3 292.074 930.946 291.779 928.854C291.779 927.808 289.413 926.238 287.935 926.238C284.979 925.715 285.57 928.069 285.274 929.639Z" fill="#F1A28B"/>
<path d="M294.191 838.588C291.234 833.095 293.008 830.218 299.808 830.218C312.225 830.218 324.347 830.48 336.764 830.741C341.79 831.003 349.773 832.834 346.225 837.019C341.79 842.25 349.182 854.02 336.173 853.497C323.164 852.973 309.86 851.143 296.852 849.312C291.234 848.527 289.165 845.388 293.6 840.942C307.495 839.111 321.686 845.127 335.877 840.942C321.982 837.542 308.086 839.634 294.191 838.588Z" fill="#F1A38B"/>
<path d="M325.825 812.432C332.034 814.524 345.042 808.77 344.747 818.186C344.747 827.602 332.034 821.848 325.234 823.156C320.503 823.941 315.477 823.679 310.747 824.464C306.312 824.987 302.173 824.725 300.991 820.802C299.512 815.309 305.13 814.263 309.269 813.74C314.295 812.694 319.912 812.955 325.825 812.432Z" fill="#F1A48D"/>
<path d="M283.459 929.313C283.88 927.409 283.039 924.552 287.246 925.187C289.349 925.504 292.714 927.091 292.714 928.361C293.135 930.9 291.452 933.756 287.246 933.756C283.88 934.073 283.459 931.217 283.459 929.313Z" fill="#F1A48D"/>
</svg>
