<svg width="457" height="1233" viewBox="0 0 457 1233" fill="none" xmlns="http://www.w3.org/2000/svg">
<path d="M175.87 1166.07C154.621 1015.35 80.3698 861.265 41.3441 810.785C13.8487 774.952 -4.18597 736.764 0.840072 692.3C4.09222 663.529 15.0313 636.327 23.6051 608.863C44.3006 541.905 63.8135 474.423 76.5264 405.895C81.8481 377.647 82.1438 348.876 83.3264 320.105C84.2133 298.919 89.2393 280.348 112.3 269.624C120.874 265.701 115.552 262.039 112.596 258.639C101.657 245.823 89.8306 233.268 82.4394 218.621C77.1177 208.158 72.0917 197.696 78.0047 186.188C80.9611 180.433 76.822 177.295 73.5699 173.371C65.883 163.694 57.9005 154.539 50.5092 144.862C43.4136 135.707 36.318 124.983 38.0919 114.783C41.3441 96.7353 35.7267 80.2573 32.7702 63.2561C28.0398 36.0542 45.9613 19.1501 68.135 3.71829C74.4277 0.617023 78.035 -2.51108 85.9872 3.09805C107.865 18.5299 119.396 41.5469 137.726 59.5943C182.96 102.751 219.621 152.447 261.307 198.742C278.455 217.574 288.507 240.068 297.081 262.824C318.368 319.32 335.811 376.863 352.959 434.143C358.872 454.022 354.141 473.9 351.185 493.778C341.133 564.922 326.35 635.28 311.272 705.639C305.359 733.626 308.316 761.089 321.916 787.245C338.176 818.893 330.193 808.809 375.616 873.936C409.975 935.961 433.493 1007.32 437.928 1009.15C437.928 1011.77 463.551 1063.11 455.398 1063.11C442.685 1063.64 370.465 889.061 364.552 881.999C345.63 859.505 332.263 830.925 319.255 805.292C309.794 786.199 301.22 766.843 298.559 745.657C295.307 716.886 303.585 689.423 309.794 661.959C324.577 595.524 335.516 528.304 345.568 461.084C347.342 449.837 344.976 438.067 341.133 427.605C320.437 372.678 308.316 315.658 285.551 261.254C275.499 237.191 262.786 214.174 243.864 194.034C208.386 156.109 178.821 113.736 140.387 77.1186C136.839 73.7183 134.178 68.7488 126.196 71.6259C152.508 103.274 176.752 135.707 204.838 165.525C235.586 197.958 257.76 232.745 267.516 274.594C278.455 321.935 297.377 367.447 316.298 412.696C330.785 446.96 325.463 481.224 318.664 515.749C318.072 518.888 317.185 523.596 311.568 522.288C306.542 520.98 308.02 516.534 308.316 513.395C310.09 501.364 311.568 489.07 314.229 477.3C319.255 455.068 313.637 433.882 305.064 413.481C283.481 360.646 264.56 307.027 250.073 252.361C241.795 220.452 218.734 196.65 196.265 172.325C180.299 155.062 164.63 137.8 151.326 118.968C147.187 112.952 143.048 108.244 133.882 111.906C131.813 112.69 128.856 112.429 126.491 111.906C114.665 110.075 85.9872 77.3801 85.6915 66.6563C85.6915 63.5176 91.3089 58.8096 83.622 57.2403C77.709 55.9325 73.5699 58.2865 70.3178 63.2561C61.4483 76.857 62.0396 91.2426 66.77 105.105C75.0482 130.738 91.6045 152.185 115.257 169.186C122.352 174.418 127.674 179.91 129.448 188.28C134.178 210.774 145.708 230.391 166.404 244.776C177.934 252.623 180.004 262.562 176.752 273.548C174.091 283.748 175.569 292.903 179.708 302.842C197.743 345.999 195.082 389.94 185.325 434.143C180.004 457.684 175.569 481.224 172.613 504.764C169.36 528.827 177.934 552.105 181.778 575.907C185.03 595.785 187.691 615.664 181.186 635.28C178.23 644.173 172.908 652.02 166.404 659.082C164.039 661.698 160.787 663.267 157.239 661.175C153.395 658.821 154.874 655.682 157.239 653.328C180.004 630.834 178.526 603.371 170.839 577.738C155.169 525.688 164.63 475.208 176.456 424.204C184.439 390.202 186.804 356.199 174.978 322.197C173.795 318.535 173.795 314.612 168.769 311.473C168.769 320.366 168.473 328.736 168.769 336.844C169.065 344.429 165.517 348.091 156.647 347.83C142.752 347.568 129.152 347.568 115.257 347.83C106.978 348.091 103.726 345.214 104.022 337.89C104.317 327.951 103.135 317.751 104.613 307.811C106.091 295.78 111.413 284.271 125.604 279.825C139.204 275.64 150.439 281.133 159.604 290.549C160.491 291.595 159.9 294.472 162.56 293.164C164.334 292.38 162.856 290.287 161.378 288.979C154.874 273.286 144.23 268.316 127.378 273.548C104.022 280.61 95.7436 291.333 95.1523 313.566C92.7871 380.786 80.0742 446.437 62.3352 511.826C47.5527 564.922 30.7007 617.756 15.6226 670.852C3.20527 715.317 13.8487 756.643 42.8223 793.784C82.1437 844.003 110.526 898.668 132.7 956.21C135.065 962.226 178.199 1063.11 188.682 1164.83C188.682 1164.83 197.119 1316.8 175.87 1166.07ZM164.334 271.717C170.839 264.393 168.473 258.639 161.378 253.408C138.317 236.668 125.309 214.697 119.1 189.326C118.213 185.141 116.439 182.003 112.891 179.387C86.2829 160.294 67.6569 135.969 57.3092 107.198C56.1266 104.32 55.5353 100.397 51.3962 100.92C46.9614 101.443 48.144 105.628 47.8484 108.505C47.2571 121.845 53.7614 133.353 62.3352 143.292C94.561 180.957 124.126 220.713 151.917 260.993C154.874 265.178 157.83 269.363 164.334 271.717ZM135.656 337.629C140.682 337.629 145.413 337.367 150.439 337.629C156.352 337.89 159.9 336.06 159.308 330.305C158.126 319.582 157.83 308.596 151.326 298.919C146.891 292.641 140.978 287.672 132.404 288.456C124.422 289.241 119.691 294.734 116.439 301.011C111.413 310.95 113.187 321.412 113.187 331.875C113.187 336.321 116.143 337.89 120.874 337.89C125.9 337.629 130.63 337.629 135.656 337.629ZM52.5788 84.9653C56.7179 54.3631 65.883 45.2087 91.3089 45.9933C87.7611 37.362 80.0742 30.2999 80.3698 20.6223C80.6655 11.991 75.9351 12.2525 69.4308 15.6528C39.2745 30.5615 33.9528 67.7025 52.5788 84.9653ZM88.0567 190.896C85.3959 206.589 114.37 254.715 128.856 260.731C130.335 261.516 132.996 261.777 134.474 260.993C137.135 259.947 136.839 257.331 135.656 255.5C120.578 234.052 106.387 212.082 88.0567 190.896ZM99.8827 63.7792C96.9262 65.087 95.1523 67.441 96.6306 69.795C104.909 82.0881 115.257 92.812 127.969 101.443C129.448 102.228 133.291 101.705 134.474 100.659C136.543 98.8277 134.178 96.7353 132.7 95.166C124.422 84.1806 113.483 75.5492 103.135 66.3948C102.544 65.3485 101.361 64.8254 99.8827 63.7792ZM89.4027 18.962C92.6549 31.7783 92.2867 44.6466 125.452 60.5105C121.904 54.2332 96.794 23.1469 89.4027 18.962ZM171.726 303.103C171.43 301.534 171.43 299.18 169.065 299.442C166.108 299.442 164.926 301.796 165.221 303.888C165.221 304.934 167.587 306.504 169.065 306.504C172.021 307.027 171.43 304.673 171.726 303.103Z" fill="#F1A28B"/>
<path d="M162.809 394.154C165.766 399.647 163.992 402.524 157.192 402.524C144.775 402.524 132.653 402.262 120.236 402.001C115.21 401.739 107.227 399.908 110.775 395.723C115.21 390.492 107.818 378.722 120.827 379.245C133.836 379.769 147.14 381.599 160.148 383.43C165.766 384.215 167.835 387.354 163.4 391.8C149.505 393.631 135.314 387.615 121.123 391.8C135.018 395.2 148.914 393.108 162.809 394.154Z" fill="#F1A38B"/>
<path d="M131.175 420.31C124.966 418.218 111.958 423.972 112.253 414.556C112.253 405.14 124.966 410.894 131.766 409.586C136.497 408.801 141.523 409.063 146.253 408.278C150.688 407.755 154.827 408.017 156.009 411.94C157.488 417.433 151.87 418.479 147.731 419.002C142.705 420.048 137.088 419.787 131.175 420.31Z" fill="#F1A48D"/>
<path d="M173.541 303.429C173.12 305.333 173.961 308.19 169.754 307.555C167.651 307.238 164.286 305.651 164.286 304.381C163.865 301.842 165.548 298.986 169.754 298.986C173.12 298.669 173.541 301.525 173.541 303.429Z" fill="#F1A48D"/>
</svg>
