<svg width="203" height="1234" viewBox="0 0 203 1234" fill="none" xmlns="http://www.w3.org/2000/svg">
<path d="M76.4999 1233.42C68.3999 1227.42 59.7999 1222.02 52.1999 1215.42C35.4999 1201.02 29.9999 1183.12 35.7999 1161.52C39.2999 1148.72 42.0999 1135.42 40.0999 1122.12C38.7999 1113.42 40.0999 1105.82 44.8999 1098.82C50.5999 1090.52 56.8999 1082.42 63.0999 1074.52C67.9999 1068.22 73.5999 1062.42 78.1999 1055.92C79.6999 1053.82 80.3999 1049.62 79.3999 1047.32C75.3999 1038.22 76.8999 1029.83 80.6999 1021.33C87.2999 1006.13 97.5999 993.525 108.4 981.225C110.9 978.325 113.5 975.425 116 972.625C119.7 968.425 119.4 966.425 114.4 963.825C106.8 960.125 99.9999 955.525 94.9999 948.625C89.2999 940.725 86.4999 931.625 85.6999 922.125C84.6999 910.025 83.9999 897.925 83.7999 885.725C83.3999 856.025 78.5999 826.825 72.2999 797.925C56.9999 727.625 36.3999 658.925 14.2999 590.525C9.19991 575.025 6.39991 558.925 2.49991 543.125C0.499916 535.022 0.799916 531.3 0.499916 530.5C-1.49012e-08 526 0.499903 522 0.499903 522L1.49999 514.5L2.49991 507.5C2.49991 507.5 3.29991 503.925 3.99991 500.625C9.89991 472.225 23.5999 447.725 40.9999 425.025C55.3999 406.125 67.3999 385.825 78.3999 364.925C104.4 315.825 125.4 264.625 142.8 211.925C157.6 167.225 168.9 121.625 176.4 75.025C180 52.425 183.8 29.825 187.5 7.12498C187.8 5.12498 188.6 3.12498 189.2 1.12498C190 -0.374992 190.5 -0.374993 190.7 1.12498C191 3.42498 191.5 5.62498 191.6 7.92498C193.6 59.525 186.4 110.025 173.4 159.925C158.2 217.625 137.5 273.325 112.5 327.525C93.5999 368.525 69.8999 406.625 42.1999 442.225C26.2999 462.725 15.7999 485.725 12.6999 511.625C10.4999 529.825 12.6999 547.725 17.8999 565.325C33.2999 617.225 48.7999 669.025 63.5999 720.925C74.3999 758.825 82.6999 797.325 88.5999 836.325C92.8999 864.825 95.5999 893.425 96.5999 922.125C97.2999 943.325 108.5 955.025 132.4 960.525C147.6 964.025 160.4 956.525 164.3 941.625C164.4 941.125 163.9 940.525 163.7 939.825C160.3 942.925 157.3 946.225 153.8 948.725C134.5 962.125 109.9 951.925 106.8 928.725C105.2 916.925 105.7 904.825 105.6 892.825C105.6 888.125 108.8 885.525 113.4 885.425C129.2 885.325 145.1 885.225 160.9 885.425C167.2 885.525 170.3 889.125 170.4 895.825C170.5 904.025 170.4 912.125 171.5 920.925C172.8 918.925 174.5 917.025 175.3 914.825C187.8 880.125 186.5 845.025 178.2 809.625C170 774.625 162.9 739.425 164.4 703.125C165.2 684.725 169 666.925 173.9 649.225C178 634.625 179.3 619.825 174.6 604.925C171.7 595.725 166.7 587.725 160 580.825C157.7 578.525 154.6 576.025 157.9 572.425C160.2 569.925 164.6 570.625 167.7 573.725C180 586.025 185.7 601.025 186.5 618.125C187.4 638.625 183.3 658.525 179 678.325C175.7 693.425 171.9 708.625 173.8 724.225C175.9 741.525 179 758.725 182 775.925C185.5 796.025 190.5 815.925 193 836.125C197 867.725 194.1 898.925 181.7 928.725C177.2 939.625 175.7 950.525 178.8 962.225C181.4 971.925 178.5 980.525 170 986.425C149 1000.93 135.8 1020.52 130.6 1045.52C128.9 1053.62 123.3 1058.82 117.1 1063.42C99.1999 1076.72 83.6999 1092.22 74.4999 1112.82C70.1999 1122.42 66.9999 1132.72 65.0999 1143.12C63.2999 1153.42 66.6999 1163.42 73.4999 1171.52C75.5999 1174.02 79.5999 1175.62 82.8999 1176.02C87.9999 1176.62 89.1999 1174.02 88.0999 1169.02C87.5999 1166.42 87.6999 1163.22 88.8999 1160.92C97.0999 1145.52 108.1 1132.42 123.1 1123.32C126.4 1121.32 131.6 1120.52 135.4 1121.52C142.8 1123.42 147.6 1121.12 151.8 1115.52C159.6 1105.32 167.4 1095.12 175.6 1085.32C183.3 1076.12 191.6 1067.52 199.7 1058.62C200.3 1057.92 201.1 1057.42 202.5 1056.22C202.5 1061.52 202.6 1065.92 202.4 1070.32C202.4 1071.32 201.6 1072.42 200.9 1073.32C177.5 1101.52 154.1 1129.62 130.7 1157.72C129.9 1158.72 129.3 1159.92 128.3 1161.32C132.3 1162.92 135.5 1162.12 138 1159.42C156.5 1139.42 175 1119.32 193.5 1099.22C196.3 1096.22 198.8 1092.92 202.1 1089.02C202.6 1097.72 203.4 1104.92 196.9 1111.72C182.7 1126.42 170 1142.72 155.5 1157.12C138.7 1173.82 123.2 1191.62 108.4 1210.12C100.9 1219.42 92.3999 1227.92 81.3999 1233.32C79.7999 1233.42 78.1999 1233.42 76.4999 1233.42ZM165.2 960.725C161.8 963.725 158.1 966.125 155.6 969.425C149.5 977.325 144.3 985.925 138.2 993.825C113.8 1025.63 89.2999 1057.32 64.5999 1088.82C55.9999 1099.72 48.3999 1110.82 49.3999 1125.62C49.5999 1128.52 49.1999 1132.12 52.9999 1132.02C54.7999 1131.92 57.4999 1129.22 58.1999 1127.22C68.9999 1096.92 87.9999 1072.92 113.8 1054.02C116.7 1051.92 119.4 1048.32 120.2 1044.92C126.9 1017.62 140.9 995.525 163.8 978.925C170.8 973.825 171.3 968.825 165.2 960.725ZM137.9 895.525C137.9 895.425 137.9 895.425 137.9 895.525C132.4 895.425 126.9 895.425 121.4 895.425C118.1 895.425 115 896.725 114.8 900.225C114.4 910.325 112.8 920.625 117 930.325C120.1 937.425 124.5 943.425 133 944.525C142.1 945.725 148.2 941.025 152.9 933.925C159 924.825 159.9 914.425 160.5 903.925C160.8 897.525 158.9 895.625 152.3 895.625C147.6 895.425 142.7 895.525 137.9 895.525ZM93.0999 1187.12C64.5999 1189.42 56.6999 1171.72 54.0999 1148.32C45.2999 1157.02 42.8999 1166.82 43.3999 1177.72C44.0999 1194.62 57.7999 1213.32 73.7999 1218.82C79.2999 1220.72 80.7999 1219.42 81.7999 1213.82C82.6999 1208.72 84.4999 1203.62 86.4999 1198.82C87.8999 1195.12 90.2999 1191.92 93.0999 1187.12ZM88.5999 1040.42C89.0999 1040.52 89.6999 1040.72 90.1999 1040.82C90.4999 1040.62 90.7999 1040.52 90.9999 1040.32C106.3 1019.52 121.5 998.825 136.7 977.925C137.5 976.825 137.8 974.025 137.1 973.525C135.8 972.425 133.1 971.425 131.9 972.025C128.3 973.925 124.5 976.025 121.7 979.025C109.3 992.325 99.8999 1007.53 93.2999 1024.43C91.3999 1029.63 90.1999 1035.12 88.5999 1040.42ZM132.1 1130.92C130.4 1131.72 128.8 1132.22 127.5 1133.12C124.7 1135.12 121.6 1137.12 119.3 1139.62C112.3 1147.12 105.5 1154.82 98.8999 1162.72C98.0999 1163.62 98.6999 1166.32 99.3999 1167.72C99.6999 1168.32 102.7 1168.62 103.4 1167.92C113.9 1158.02 124.2 1147.92 134.5 1137.82C135.5 1136.82 136.5 1134.72 136.2 1133.52C135.8 1132.42 133.6 1131.82 132.1 1130.92ZM91.2999 1214.02C104.8 1201.92 115.7 1188.32 125.5 1174.02C108.2 1181.82 93.4999 1192.02 91.2999 1214.02ZM171.3 923.525C168.7 926.525 167.2 928.325 165.6 930.125C167.4 931.525 169.1 933.825 171.1 934.125C172.3 934.325 174.9 931.625 175.1 929.925C175.4 928.425 173.3 926.525 171.3 923.525Z" fill="#F0A18A"/>
</svg>
