<svg width="457" height="1233" viewBox="0 0 457 1233" fill="none" xmlns="http://www.w3.org/2000/svg">
<path d="M281.13 1166.07C302.379 1015.35 376.63 861.265 415.656 810.785C443.151 774.952 461.186 736.764 456.16 692.3C452.908 663.529 441.969 636.327 433.395 608.863C412.699 541.905 393.187 474.423 380.474 405.895C375.152 377.647 374.856 348.876 373.674 320.105C372.787 298.919 367.761 280.348 344.7 269.624C336.126 265.701 341.448 262.039 344.404 258.639C355.343 245.823 367.169 233.268 374.561 218.621C379.882 208.158 384.908 197.696 378.995 186.188C376.039 180.433 380.178 177.295 383.43 173.371C391.117 163.694 399.1 154.539 406.491 144.862C413.586 135.707 420.682 124.983 418.908 114.783C415.656 96.7353 421.273 80.2573 424.23 63.2561C428.96 36.0542 411.039 19.1501 388.865 3.71829C382.572 0.617023 378.965 -2.51108 371.013 3.09805C349.135 18.5299 337.604 41.5469 319.274 59.5943C274.04 102.751 237.379 152.447 195.693 198.742C178.545 217.574 168.493 240.068 159.919 262.824C138.632 319.32 121.189 376.863 104.041 434.143C98.1281 454.022 102.859 473.9 105.815 493.778C115.867 564.922 130.65 635.28 145.728 705.639C151.641 733.626 148.684 761.089 135.084 787.245C118.824 818.893 126.807 808.809 81.3838 873.936C47.0251 935.961 23.507 1007.32 19.0723 1009.15C19.0723 1011.77 -6.55119 1063.11 1.60173 1063.11C14.3147 1063.64 86.5354 889.061 92.4484 881.999C111.37 859.505 124.737 830.925 137.745 805.292C147.206 786.199 155.78 766.843 158.441 745.657C161.693 716.886 153.415 689.423 147.206 661.959C132.423 595.524 121.484 528.304 111.432 461.084C109.658 449.837 112.024 438.067 115.867 427.605C136.563 372.678 148.684 315.658 171.449 261.254C181.501 237.191 194.214 214.174 213.136 194.034C248.614 156.109 278.179 113.736 316.613 77.1186C320.161 73.7183 322.822 68.7488 330.804 71.6259C304.492 103.274 280.248 135.707 252.162 165.525C221.414 197.958 199.24 232.745 189.484 274.594C178.545 321.935 159.623 367.447 140.702 412.696C126.215 446.96 131.537 481.224 138.336 515.749C138.928 518.888 139.815 523.596 145.432 522.288C150.458 520.98 148.98 516.534 148.684 513.395C146.91 501.364 145.432 489.07 142.771 477.3C137.745 455.068 143.363 433.882 151.936 413.481C173.519 360.646 192.44 307.027 206.927 252.361C215.205 220.452 238.266 196.65 260.735 172.325C276.701 155.062 292.37 137.8 305.674 118.968C309.813 112.952 313.952 108.244 323.118 111.906C325.187 112.69 328.144 112.429 330.509 111.906C342.335 110.075 371.013 77.3801 371.308 66.6563C371.308 63.5176 365.691 58.8096 373.378 57.2403C379.291 55.9325 383.43 58.2865 386.682 63.2561C395.552 76.857 394.96 91.2426 390.23 105.105C381.952 130.738 365.395 152.185 341.743 169.186C334.648 174.418 329.326 179.91 327.552 188.28C322.822 210.774 311.292 230.391 290.596 244.776C279.066 252.623 276.996 262.562 280.248 273.548C282.909 283.748 281.431 292.903 277.292 302.842C259.257 345.999 261.918 389.94 271.675 434.143C276.996 457.684 281.431 481.224 284.387 504.764C287.64 528.827 279.066 552.105 275.222 575.907C271.97 595.785 269.309 615.664 275.814 635.28C278.77 644.173 284.092 652.02 290.596 659.082C292.961 661.698 296.213 663.267 299.761 661.175C303.605 658.821 302.126 655.682 299.761 653.328C276.996 630.834 278.474 603.371 286.161 577.738C301.831 525.688 292.37 475.208 280.544 424.204C272.561 390.202 270.196 356.199 282.022 322.197C283.205 318.535 283.205 314.612 288.231 311.473C288.231 320.366 288.527 328.736 288.231 336.844C287.935 344.429 291.483 348.091 300.353 347.83C314.248 347.568 327.848 347.568 341.743 347.83C350.022 348.091 353.274 345.214 352.978 337.89C352.683 327.951 353.865 317.751 352.387 307.811C350.909 295.78 345.587 284.271 331.396 279.825C317.796 275.64 306.561 281.133 297.396 290.549C296.509 291.595 297.1 294.472 294.44 293.164C292.666 292.38 294.144 290.287 295.622 288.979C302.126 273.286 312.77 268.316 329.622 273.548C352.978 280.61 361.256 291.333 361.848 313.566C364.213 380.786 376.926 446.437 394.665 511.826C409.447 564.922 426.299 617.756 441.377 670.852C453.795 715.317 443.151 756.643 414.178 793.784C374.856 844.003 346.474 898.668 324.3 956.21C321.935 962.226 278.801 1063.11 268.318 1164.83C268.318 1164.83 259.881 1316.8 281.13 1166.07ZM292.666 271.717C286.161 264.393 288.527 258.639 295.622 253.408C318.683 236.668 331.691 214.697 337.9 189.326C338.787 185.141 340.561 182.003 344.109 179.387C370.717 160.294 389.343 135.969 399.691 107.198C400.873 104.32 401.465 100.397 405.604 100.92C410.039 101.443 408.856 105.628 409.152 108.505C409.743 121.845 403.239 133.353 394.665 143.292C362.439 180.957 332.874 220.713 305.083 260.993C302.126 265.178 299.17 269.363 292.666 271.717ZM321.344 337.629C316.318 337.629 311.587 337.367 306.561 337.629C300.648 337.89 297.1 336.06 297.692 330.305C298.874 319.582 299.17 308.596 305.674 298.919C310.109 292.641 316.022 287.672 324.596 288.456C332.578 289.241 337.309 294.734 340.561 301.011C345.587 310.95 343.813 321.412 343.813 331.875C343.813 336.321 340.857 337.89 336.126 337.89C331.1 337.629 326.37 337.629 321.344 337.629ZM404.421 84.9653C400.282 54.3631 391.117 45.2087 365.691 45.9933C369.239 37.362 376.926 30.2999 376.63 20.6223C376.335 11.991 381.065 12.2525 387.569 15.6528C417.725 30.5615 423.047 67.7025 404.421 84.9653ZM368.943 190.896C371.604 206.589 342.63 254.715 328.144 260.731C326.665 261.516 324.004 261.777 322.526 260.993C319.865 259.947 320.161 257.331 321.344 255.5C336.422 234.052 350.613 212.082 368.943 190.896ZM357.117 63.7792C360.074 65.087 361.848 67.441 360.369 69.795C352.091 82.0881 341.743 92.812 329.031 101.443C327.552 102.228 323.709 101.705 322.526 100.659C320.457 98.8277 322.822 96.7353 324.3 95.166C332.578 84.1806 343.517 75.5492 353.865 66.3948C354.456 65.3485 355.639 64.8254 357.117 63.7792ZM367.597 18.962C364.345 31.7783 364.713 44.6466 331.548 60.5105C335.096 54.2332 360.206 23.1469 367.597 18.962ZM285.274 303.103C285.57 301.534 285.57 299.18 287.935 299.442C290.892 299.442 292.074 301.796 291.779 303.888C291.779 304.934 289.413 306.504 287.935 306.504C284.979 307.027 285.57 304.673 285.274 303.103Z" fill="#F1A28B"/>
<path d="M294.191 394.154C291.234 399.647 293.008 402.524 299.808 402.524C312.225 402.524 324.347 402.262 336.764 402.001C341.79 401.739 349.773 399.908 346.225 395.723C341.79 390.492 349.182 378.722 336.173 379.245C323.164 379.769 309.86 381.599 296.852 383.43C291.234 384.215 289.165 387.354 293.6 391.8C307.495 393.631 321.686 387.615 335.877 391.8C321.982 395.2 308.086 393.108 294.191 394.154Z" fill="#F1A38B"/>
<path d="M325.825 420.31C332.034 418.218 345.042 423.972 344.747 414.556C344.747 405.14 332.034 410.894 325.234 409.586C320.503 408.801 315.477 409.063 310.747 408.278C306.312 407.755 302.173 408.017 300.991 411.94C299.512 417.433 305.13 418.479 309.269 419.002C314.295 420.048 319.912 419.787 325.825 420.31Z" fill="#F1A48D"/>
<path d="M283.459 303.429C283.88 305.333 283.039 308.19 287.246 307.555C289.349 307.238 292.714 305.651 292.714 304.381C293.135 301.842 291.452 298.986 287.246 298.986C283.88 298.669 283.459 301.525 283.459 303.429Z" fill="#F1A48D"/>
</svg>
