<svg width="853" height="311" viewBox="0 0 853 311" fill="none" xmlns="http://www.w3.org/2000/svg">
<path d="M779.86 279.49C780.669 279.738 781.275 279.986 782.084 280.233C782.488 280.481 783.095 280.728 783.499 280.728C784.51 280.976 785.52 281.224 786.531 281.471C787.34 280.233 788.148 279.243 788.755 278.005C789.159 276.767 789.361 275.281 789.563 274.043V273.795C789.159 273.795 788.552 273.548 788.148 273.548C787.34 273.3 786.733 273.052 785.925 272.805C785.116 272.557 784.51 272.31 783.701 272.062C783.499 272.062 783.297 272.062 783.095 271.814C782.286 271.567 781.68 271.319 780.871 270.824C780.669 270.576 780.467 270.576 780.062 270.329C779.658 270.081 779.052 269.834 778.648 269.586C778.445 269.338 778.243 269.338 777.839 269.091C776.02 268.348 774.2 267.357 772.785 265.872C772.381 265.624 771.573 265.377 771.977 264.634C773.998 264.634 776.02 264.634 778.041 264.386C788.148 263.643 797.042 259.929 804.724 254.234C808.16 251.758 810.384 248.044 811.192 244.082C811.799 240.615 811.394 237.396 810.384 234.177C809.777 232.197 809.171 230.463 808.362 228.73C808.362 228.482 808.362 228.235 808.16 227.987C808.362 228.235 808.564 228.235 808.767 228.482C809.171 228.73 809.575 228.73 809.979 228.978C810.788 228.978 811.596 228.978 811.799 228.235C812.203 227.244 812.809 226.501 813.011 225.511C813.214 224.273 813.618 223.035 814.629 221.797C813.416 220.806 812.405 219.568 811.192 218.578C807.149 214.864 803.713 210.902 800.681 206.693C800.277 206.197 799.872 205.454 799.266 204.216C800.883 204.712 801.692 205.702 802.5 206.197C806.341 209.169 810.384 212.14 814.224 215.111C815.437 213.626 816.852 212.14 816.852 210.159C816.852 208.921 818.065 208.673 818.874 207.931C818.469 207.435 818.065 206.94 817.661 206.693C807.756 198.521 797.649 190.35 787.744 182.179C785.925 180.693 784.105 179.455 782.488 177.97C779.456 175.246 776.424 172.522 773.19 169.551C772.381 168.808 771.573 168.313 770.562 167.57C768.945 168.56 767.53 169.551 766.923 171.532C766.519 172.522 765.508 173.265 764.093 173.513C767.934 176.979 771.775 180.446 775.818 183.665C779.052 186.388 782.286 189.112 785.52 191.836C786.733 192.826 787.34 193.817 787.137 195.302C786.935 196.788 787.34 198.521 787.34 200.007C787.34 200.75 787.542 201.493 787.744 202.236C786.935 202.731 786.329 202.236 785.925 201.988C784.712 200.997 783.701 199.759 782.488 198.769C780.669 197.283 778.85 196.045 777.232 194.56C777.03 194.56 776.828 194.312 776.828 194.064C775.009 192.579 773.392 191.093 771.573 189.855C770.966 191.093 770.562 192.331 769.753 193.569C768.945 194.807 767.934 196.045 766.923 197.036C767.53 197.778 768.338 198.274 768.945 199.017C772.179 201.74 775.413 204.464 778.445 207.435C783.297 211.892 787.744 216.349 791.989 221.302C793 222.54 794.415 223.778 794.819 225.511C792.191 227.492 789.563 227.987 786.329 226.501C783.903 225.511 781.882 224.025 780.062 222.292C777.839 220.311 775.818 218.578 773.796 216.597C773.594 216.349 773.594 216.102 773.392 216.102C772.988 215.854 772.381 215.359 772.179 215.111C771.168 213.626 769.955 212.635 768.338 211.645C766.923 211.892 766.317 212.883 766.115 214.121C765.71 216.102 764.902 217.587 762.678 218.083C765.913 221.302 769.147 224.768 772.583 227.987C774.807 229.968 777.233 231.701 779.86 233.435C785.722 236.901 791.989 237.644 798.457 234.425C798.862 234.177 799.266 234.177 799.872 233.93C801.489 236.654 802.096 239.625 801.894 242.596C801.489 245.32 799.872 247.301 797.447 249.034C790.776 253.491 783.297 256.462 774.807 256.71C774.2 256.71 773.796 256.71 773.19 256.71C771.977 256.71 770.562 256.462 769.349 256.462C766.519 256.71 763.285 256.215 760.455 254.977C759.444 254.729 758.433 254.482 757.423 254.234C756.21 256.71 755.806 259.434 753.582 261.662C757.018 262.405 758.838 264.634 760.253 267.357C758.029 268.843 755.806 269.091 753.582 269.834C753.38 269.834 752.976 270.081 752.773 270.081C752.167 272.805 751.763 275.529 751.156 278.252C751.965 278.252 752.773 278.252 753.582 278.252C753.784 278.252 754.188 278.005 754.391 278.005C758.029 278.005 761.263 276.519 764.295 275.033C765.306 274.538 766.519 274.043 767.53 273.548C767.732 273.548 767.934 273.548 768.136 273.795C768.338 274.043 768.54 274.043 768.945 274.291C769.147 274.538 769.349 274.538 769.551 274.786C769.753 275.033 769.955 275.033 770.36 275.281C770.562 275.529 770.764 275.529 770.966 275.776C771.977 276.271 772.785 276.767 773.796 277.262C773.998 277.509 774.2 277.509 774.403 277.757C774.807 278.005 775.413 278.252 775.818 278.252C776.02 278.5 776.222 278.5 776.626 278.748C777.03 278.995 777.637 279.243 778.041 279.243C779.052 278.995 779.456 279.243 779.86 279.49Z" fill="#F19D84"/>
<path d="M563.367 236.158C563.772 236.158 563.974 236.158 564.378 236.158C564.58 236.158 564.984 235.911 565.187 235.911C573.07 234.425 579.943 231.454 585.603 226.254C589.241 223.035 591.869 219.073 594.497 215.111C595.912 213.13 596.923 210.902 598.136 208.673C598.54 208.178 598.742 207.435 599.348 206.693C600.157 207.188 600.763 207.435 601.37 207.683C606.019 211.397 610.466 215.111 615.115 218.826C616.126 219.568 617.137 220.311 618.148 220.806C618.35 221.054 618.552 221.302 618.754 221.302C618.956 221.549 619.158 221.549 619.36 221.549C620.573 221.549 621.18 221.054 621.382 220.064C621.584 217.835 622.595 216.102 624.01 214.368C623.807 214.121 623.605 213.873 623.403 213.626C616.935 208.426 610.668 203.226 604.2 198.274C603.593 197.778 602.987 197.283 602.38 196.54C602.583 195.055 602.785 193.817 602.987 192.331C603.189 191.093 603.189 189.607 603.391 188.122C604.604 188.864 605.413 189.112 606.221 189.607C609.658 191.836 612.892 194.064 616.328 196.293C618.754 197.779 621.18 199.264 623.403 200.75C624.616 200.502 625.829 200.007 626.233 198.769C626.84 197.036 627.446 195.302 628.052 193.817C627.244 193.321 626.637 192.579 625.829 192.083C617.541 186.636 609.455 181.189 601.168 175.741C599.753 174.751 598.742 173.76 597.731 172.522C596.114 170.541 594.093 168.808 592.273 166.827C591.869 166.332 591.465 165.837 590.858 165.341C595.912 164.599 600.561 164.103 605.413 163.36C606.423 164.351 607.232 165.094 608.04 165.837C614.105 171.779 619.967 177.97 626.031 183.912C627.85 185.646 630.074 187.379 632.095 188.864C632.5 188.369 633.106 188.122 633.712 188.369C634.521 188.617 635.329 188.864 635.936 189.112C637.149 188.369 637.755 187.379 637.957 186.388C638.159 185.398 638.362 184.16 638.766 183.169C629.467 174.998 620.977 165.837 612.285 156.923C611.881 156.675 611.679 156.18 611.275 155.932C609.658 154.199 607.838 153.704 605.615 154.199C603.189 154.694 600.966 155.189 598.54 155.437C592.476 156.18 586.613 156.675 580.549 157.17C580.145 157.17 579.539 157.17 579.134 157.17C577.719 157.17 576.506 157.17 575.091 156.923C573.474 156.923 571.857 156.675 570.442 156.675C568.421 161.627 568.421 161.627 566.197 162.618C565.995 162.122 565.591 161.38 565.187 160.884C564.984 160.637 564.58 160.637 564.176 160.637C563.974 160.637 563.569 161.132 563.569 161.38C563.569 161.875 563.772 162.122 563.974 162.618C567.612 164.103 571.453 165.341 575.091 166.827C578.326 168.065 581.358 169.303 583.986 171.284C590.656 175.989 593.891 181.931 593.688 189.607C593.486 195.055 591.869 200.255 589.241 204.959C587.422 208.426 585.198 211.645 582.975 214.616C578.528 220.806 572.059 224.521 564.176 226.501C562.559 226.749 560.942 227.244 559.527 227.74H559.324H559.122C558.314 229.225 557.505 230.958 556.899 232.444C556.292 233.682 555.686 234.92 556.697 236.406C558.112 236.158 559.324 236.158 560.739 235.911C560.942 235.911 561.144 235.663 561.548 235.663C561.75 235.663 562.154 235.663 562.357 235.663C562.357 236.406 562.963 236.158 563.367 236.158Z" fill="#F19D84"/>
<path d="M567.006 168.56C573.272 171.284 578.528 174.998 582.369 180.446C589.241 190.103 588.635 201.74 579.741 210.407C576.102 214.121 571.655 216.597 566.399 218.083C560.74 219.816 554.877 220.559 548.813 220.559C544.366 220.559 539.919 220.559 535.472 220.311C531.631 220.311 527.993 220.064 524.152 219.816C521.12 219.568 519.503 218.083 519.301 215.607C519.301 214.616 519.301 213.873 519.301 212.883C519.301 204.959 519.503 197.036 519.503 189.36C519.503 182.674 519.503 175.989 519.705 169.056C519.705 166.084 521.322 164.351 524.758 164.103C525.163 164.103 525.567 164.103 525.971 164.103C529.812 164.103 533.855 163.856 537.695 163.608C542.547 163.36 547.196 163.856 551.845 164.351C557.303 165.341 562.357 166.579 567.006 168.56ZM529.206 211.15C530.216 211.397 531.025 211.645 531.833 211.645C538.504 211.892 545.175 212.14 551.845 211.892C556.495 211.892 560.942 211.15 565.187 209.416C566.804 208.673 568.421 207.931 569.836 207.188C579.539 200.997 579.943 191.093 573.272 183.665C569.432 179.455 564.58 176.979 558.92 174.998C551.845 172.77 544.568 172.274 537.291 172.522C534.865 172.522 532.44 172.77 529.61 172.77C529.408 185.646 529.206 198.274 529.206 211.15Z" fill="#F19D84"/>
<path d="M819.278 207.931C818.469 208.673 817.257 208.921 817.257 210.159C817.257 212.14 815.842 213.626 814.629 215.111C818.065 217.587 821.704 220.311 825.14 222.787C828.779 225.511 832.619 228.235 836.258 230.958C836.662 231.206 837.673 231.701 837.269 232.692C836.662 232.692 836.056 232.692 835.449 232.692C833.63 232.197 831.811 231.701 829.991 231.206C825.544 229.473 821.704 226.997 817.863 224.273C816.852 223.53 815.639 222.787 814.629 222.044C813.618 223.035 813.416 224.273 813.012 225.759C812.809 226.749 812.405 227.74 811.799 228.482C811.394 229.225 810.788 229.225 809.979 229.225C814.831 233.682 820.693 237.149 827.161 239.625C831.811 241.606 836.864 242.101 841.918 241.358C842.322 241.358 842.524 241.358 843.131 241.606C843.939 244.082 843.131 246.31 842.12 248.539C840.705 252.005 838.077 254.977 835.651 258.196C828.374 267.605 818.267 272.805 805.937 274.786C804.522 275.033 803.309 275.281 801.894 275.281C801.49 278.5 800.681 281.224 798.053 283.452C814.629 283.7 828.576 278.5 839.694 267.357C844.141 262.9 847.982 258.196 850.61 252.501C853.44 246.558 854.046 240.368 850.61 234.425C849.195 232.197 847.578 229.968 845.556 227.987C843.939 226.254 841.918 224.521 839.896 223.035C833.428 217.587 826.353 212.883 819.278 207.931Z" fill="#F19D84"/>
<path d="M627.85 194.312C627.244 196.045 626.637 197.778 626.031 199.264C625.627 200.502 624.414 200.997 623.201 201.245C624.01 201.988 624.818 202.483 625.829 203.226C631.287 206.94 636.947 210.407 642.404 213.873C651.703 220.064 660.799 226.254 669.896 232.444C670.704 232.939 671.917 233.435 672.119 234.673C671.715 234.92 671.311 235.168 670.704 235.415C668.076 236.406 665.246 236.406 662.416 235.911C657.565 235.168 653.32 233.435 649.075 231.454C642.809 228.235 636.947 224.521 631.287 220.559C628.659 218.825 626.233 216.845 623.605 215.111C621.988 216.845 621.18 218.578 620.978 220.806C620.775 221.797 620.169 222.292 618.956 222.292C619.158 222.54 619.158 222.787 619.36 222.787C627.446 229.225 635.936 234.92 645.639 239.625C649.682 241.606 653.927 243.091 658.374 244.082C661.406 244.825 664.64 245.072 667.672 244.825C671.311 244.577 674.747 243.587 677.981 241.853C678.79 241.358 679.396 241.111 680.407 240.615C681.418 241.358 682.631 242.101 683.641 242.844C686.067 244.577 688.493 246.558 690.918 248.291C692.94 247.796 693.546 246.558 694.153 244.825C694.557 243.339 694.759 242.101 695.163 240.615C694.355 239.872 693.748 239.377 692.94 238.634C685.258 232.939 677.779 226.997 669.694 221.549C656.352 212.388 642.809 203.721 629.265 195.055C629.063 194.807 628.457 194.56 627.85 194.312Z" fill="#F19D84"/>
<path d="M559.122 69.268C556.292 68.2775 553.664 67.5347 550.835 66.5443C530.823 60.8492 511.013 54.1637 491.405 47.2305C484.33 44.7544 477.457 42.0307 470.382 39.5546C469.17 39.0593 467.755 38.8117 466.34 38.3165C466.137 38.3165 465.935 38.3165 465.733 38.0689C464.722 37.8213 463.712 37.3261 462.701 37.0785C462.297 36.8308 461.892 36.8308 461.488 36.5832C460.477 36.3356 459.467 36.088 458.456 35.5928C458.052 35.3452 457.445 35.3452 457.041 35.0976C456.232 34.8499 455.424 34.6023 454.817 34.3547C454.413 36.5832 454.211 38.8117 452.796 40.7926C452.594 41.2879 452.594 41.7831 452.392 42.2783C455.222 43.2687 458.052 44.2592 460.882 45.2496C472.202 49.459 483.522 53.6684 494.841 57.6302C506.97 61.8396 519.503 65.8014 531.631 70.0108C532.844 70.506 534.057 70.506 535.27 70.7537C535.876 71.0013 536.685 71.2489 537.291 71.4965C538.302 71.7441 539.312 71.9917 540.121 72.2393C540.525 72.4869 541.132 72.4869 541.536 72.7345C542.749 72.9822 543.962 73.4774 545.175 73.725C547.398 73.9726 547.398 73.9726 549.622 73.2298C550.43 74.2202 551.441 75.2107 552.452 76.2011C553.058 76.4487 553.462 76.4487 554.069 76.6963C554.271 76.2011 554.473 75.7059 554.675 75.4583C557.707 73.9726 558.516 71.7441 559.122 69.268Z" fill="#F19D84"/>
<path d="M301.595 161.627C314.532 164.103 327.469 166.579 340.608 168.313C352.13 169.798 363.854 169.551 375.376 168.313C386.292 167.075 397.005 165.341 407.921 163.36C408.729 163.113 409.336 162.865 410.144 162.618C410.751 159.646 411.357 156.923 411.964 153.951C410.751 153.951 409.74 154.199 408.527 154.446C396.601 156.675 384.472 158.656 372.344 159.894C360.822 161.132 349.502 160.884 337.98 159.151C328.884 157.665 319.585 156.18 310.489 154.694C309.074 154.446 307.659 154.199 306.446 154.199C305.435 155.189 305.233 156.427 305.031 157.665C304.829 159.151 304.425 160.142 302.807 160.884C301.999 160.637 301.797 161.38 301.595 161.627Z" fill="#F19D84"/>
<path d="M763.083 218.083C765.306 217.587 766.317 216.102 766.519 214.121C766.721 212.883 767.328 211.892 768.743 211.645C767.732 210.654 766.923 209.911 765.913 208.921C764.093 207.188 762.072 205.454 760.253 203.474C757.423 200.502 756.614 196.788 757.625 192.826C757.827 192.331 757.625 191.341 759.04 191.093C759.848 191.588 760.657 192.083 761.466 192.826C763.487 194.312 765.508 195.798 767.53 197.531C768.541 196.293 769.551 195.302 770.36 194.064C771.168 192.826 771.573 191.588 772.179 190.35C768.338 187.379 764.7 184.16 760.859 181.188C753.38 175.741 745.901 170.541 738.422 165.094C731.953 160.637 725.485 155.932 719.016 151.475C718.612 151.227 718.005 150.98 717.399 150.485C715.984 150.237 715.377 151.227 714.771 152.218C714.367 152.961 714.367 153.704 714.165 154.446C713.76 155.437 713.154 155.932 711.941 155.932C711.335 155.932 710.728 155.684 710.122 155.684C713.154 157.913 716.186 160.389 719.42 162.618C728.517 169.056 737.613 175.246 746.709 181.684C747.922 182.427 749.135 183.417 750.146 184.16C750.55 185.646 749.539 186.884 749.337 187.874C748.933 190.103 748.326 192.083 748.124 194.312C747.518 199.512 749.135 203.969 752.571 208.178C755.401 211.892 759.04 215.111 763.083 218.083Z" fill="#F19D84"/>
<path d="M452.594 42.5259C452.796 42.0307 452.796 41.2879 452.998 41.0402C454.211 39.0593 454.413 36.8308 455.02 34.6023C453.2 34.1071 451.583 33.3643 449.764 32.8691C441.274 30.3929 432.784 28.1644 424.092 27.174C417.219 26.1835 410.144 26.4311 403.271 26.6788C392.558 27.4216 382.047 29.1549 371.333 30.8882C366.078 31.631 360.822 32.6214 355.768 33.6119C354.96 33.8595 354.353 33.8595 353.545 34.1071C351.119 34.8499 349.906 36.8308 350.31 38.8117C350.715 40.7926 352.332 42.2783 354.758 42.2783C355.97 42.2783 357.183 42.0307 358.598 41.7831C366.482 40.545 374.567 39.0593 382.451 37.8213C390.941 36.3356 399.431 35.3452 407.921 35.0976C416.613 34.6023 425.103 35.5928 433.39 37.5737C438.646 39.0593 444.104 40.2974 449.36 41.7831C450.37 42.0307 451.583 42.2783 452.594 42.5259Z" fill="#F19D84"/>
<path d="M624.212 60.6016C623.403 60.354 622.797 59.8587 621.988 59.6111C620.775 60.354 620.169 61.3444 619.765 62.5825C619.563 63.5729 619.36 64.5634 619.158 65.5538C618.956 66.5443 618.148 66.7919 617.339 66.7919C618.552 67.2871 619.765 68.0299 620.978 68.5252C628.861 71.9917 636.542 75.9535 644.224 80.1629C652.512 84.8675 659.991 90.5626 667.066 96.5053C674.343 102.448 681.418 108.638 688.695 114.581C691.525 117.057 694.759 119.038 697.791 121.266C698.398 121.762 699.004 122.009 699.813 122.257C701.834 121.762 702.845 120.524 703.047 118.79C703.249 117.552 703.653 116.067 703.855 114.829C703.451 114.581 703.249 114.086 702.845 113.838C695.77 109.133 689.503 103.686 683.237 98.2386C678.386 94.2768 673.736 90.0674 668.885 86.1056C660.395 79.1725 651.097 73.2298 641.192 68.2775C637.149 66.2966 632.904 64.3158 628.861 62.3349C627.648 61.8396 626.233 61.3444 625.02 60.8492C624.414 60.8492 624.212 60.6016 624.212 60.6016Z" fill="#F19D84"/>
<path d="M156.255 309.947C160.298 310.689 164.341 310.689 168.384 310.937C184.757 311.432 200.524 308.956 216.291 305.242C228.622 302.271 240.75 298.804 252.879 294.842C253.687 294.595 254.293 294.347 254.9 294.099C255.304 292.614 255.506 291.128 256.315 289.642C257.123 287.909 257.73 286.176 258.336 284.195C256.921 284.443 255.708 284.69 254.293 285.185C243.984 288.157 233.675 291.376 223.366 294.347C211.844 297.566 199.918 300.042 187.991 301.28C179.906 302.023 172.022 302.518 163.936 302.023C162.521 302.023 160.904 302.023 159.489 302.023C158.276 304.499 157.266 307.223 156.255 309.947Z" fill="#F19D84"/>
<path d="M4.64925 233.93C3.4364 230.463 2.02141 226.749 0 223.53C11.3199 228.73 22.4377 234.177 33.3533 240.368C47.0989 248.044 60.2381 256.462 73.3772 265.129C74.1858 265.624 74.7922 266.367 75.6008 266.862C73.9836 267.853 73.5794 269.586 72.9729 271.319C72.5686 272.31 72.1644 273.548 71.3558 274.291C70.143 273.548 68.9301 273.052 67.9194 272.31C60.238 267.357 52.7588 262.405 45.0775 257.701C32.3426 249.529 18.7991 242.349 5.05353 235.663C5.05353 234.92 4.85139 234.425 4.64925 233.93Z" fill="#F19D84"/>
<path d="M617.137 66.5443C618.148 66.5443 618.754 66.2966 618.956 65.3062C619.158 64.3158 619.36 63.3253 619.563 62.3349C619.765 61.0968 620.371 60.1064 621.786 59.3635C620.775 58.8683 619.967 58.3731 618.956 57.8778C603.593 51.4399 587.826 45.9925 571.857 41.0402C563.772 38.5641 555.888 36.3356 547.802 33.8595C546.185 33.3643 544.568 33.1167 542.951 32.8691C542.345 32.6214 541.536 32.3738 540.93 32.1262C539.717 31.8786 538.302 31.3834 537.089 31.1358C536.078 30.8882 535.27 30.6406 534.259 30.3929C533.248 30.1453 532.238 29.8977 531.227 29.6501V29.8977C530.823 31.3834 530.823 33.1167 530.216 34.6023C529.812 35.5928 529.003 36.5832 528.195 37.3261C531.025 38.0689 533.653 39.0594 536.483 39.8022C542.749 41.5355 549.015 43.2688 555.282 45.002C569.229 48.9638 582.773 53.1732 596.316 58.1255C602.178 60.354 608.041 62.8301 614.105 65.0586C615.116 66.049 616.126 66.2966 617.137 66.5443Z" fill="#F19D84"/>
<path d="M75.6007 266.862C73.9836 267.853 73.5793 269.586 72.9729 271.319C72.5686 272.31 72.1644 273.548 71.3558 274.291C71.7601 274.538 71.9622 275.033 72.3665 275.281C84.495 283.205 97.0277 290.88 110.369 297.071C119.465 301.28 128.562 304.747 138.467 307.223C143.318 308.461 148.372 309.204 153.223 309.947C154.234 310.194 155.244 309.947 156.255 309.947C157.266 307.223 158.276 304.747 159.287 302.023C157.064 301.775 154.84 301.28 152.617 301.033C140.084 299.299 128.157 295.585 116.838 290.385C106.933 285.928 97.6341 280.728 88.7399 275.033C85.1014 272.805 81.4628 270.329 77.8243 268.1C77.2179 267.605 76.4093 267.11 75.6007 266.862Z" fill="#F19D84"/>
<path d="M301.595 161.627C301.797 161.38 301.999 160.637 302.403 160.637C304.02 160.141 304.425 158.903 304.627 157.418C304.829 156.18 305.031 154.942 306.042 153.951C305.031 153.704 304.222 153.208 303.212 153.208C293.711 151.723 284.21 150.237 274.71 149.742C263.794 149.247 253.081 149.742 242.569 152.961C233.069 155.684 224.781 160.637 217.908 167.075C217.302 167.817 216.695 168.56 216.089 169.303C214.674 171.036 215.685 173.265 216.695 174.255C218.312 175.493 220.536 175.989 222.355 174.998C223.164 174.503 223.972 174.008 224.579 173.265C232.867 165.094 243.176 160.884 254.9 159.151C261.571 158.161 268.241 158.161 274.912 158.408C283.402 158.903 291.69 160.141 300.18 161.38C300.584 161.627 300.988 161.627 301.595 161.627Z" fill="#F19D84"/>
<path d="M710.122 155.932C710.728 155.932 711.335 156.18 711.941 156.18C713.154 156.18 713.76 155.684 714.165 154.694C714.367 153.951 714.569 153.208 714.771 152.466C715.175 151.475 715.984 150.732 717.399 150.732C716.995 150.237 716.59 149.742 716.186 149.494C706.685 142.561 697.791 134.885 688.695 127.457C680.811 120.771 672.928 114.086 664.438 107.895C660.193 104.924 655.948 102.2 651.703 99.229C651.097 98.7338 650.288 98.4862 649.682 98.2386C649.479 98.2386 649.277 97.9909 649.277 97.9909C648.267 97.4957 647.256 97.0005 646.447 96.2577C645.841 96.2577 645.032 96.2577 644.83 97.0005C644.426 97.9909 644.426 98.9814 644.224 99.9718C644.022 101.458 643.415 102.696 641.798 103.191C642.202 103.438 642.404 103.934 643.011 104.181C654.129 110.619 664.236 118.295 673.938 126.466C681.418 132.657 688.897 139.095 696.376 145.285C700.015 148.256 704.058 151.227 707.898 154.199C708.302 154.942 709.313 155.189 710.122 155.932Z" fill="#F19D84"/>
<path d="M449.158 5.13654C447.54 4.64132 446.125 4.14609 444.508 3.65087C437.636 2.41281 430.763 1.17475 423.688 0.431917C417.017 -0.310918 410.144 -0.0633061 403.272 0.927141C395.994 1.91759 388.515 3.15565 381.238 4.14609C374.972 5.13654 368.503 5.87938 362.237 6.86982C361.428 6.86982 360.822 7.11744 360.013 7.36505C359.811 7.36505 359.407 7.61266 359.205 7.61266C358.801 7.61266 358.194 7.61266 357.79 7.61266C357.183 10.584 356.577 13.3077 356.173 16.2791C356.981 16.2791 357.992 16.2791 358.8 16.2791C372.95 14.2982 387.302 12.3173 401.452 10.3364C409.538 9.09833 417.421 8.85072 425.507 9.84116C428.741 10.3364 431.976 10.8316 435.21 11.3268C436.423 11.5744 437.636 11.5744 438.848 11.8221C439.253 11.8221 439.657 12.0697 440.061 12.0697C441.476 12.3173 443.093 12.8125 444.508 13.0601C444.913 12.5649 445.317 12.0697 445.923 11.5744C446.328 11.0792 447.136 10.8316 447.338 10.584C447.945 8.35549 448.551 6.62221 449.158 5.13654Z" fill="#F19D84"/>
<path d="M641.596 103.191C643.213 102.448 643.617 101.21 644.022 99.9719C644.224 98.9814 644.426 97.991 644.628 97.0005C644.83 96.2577 645.437 96.2577 646.245 96.2577C645.234 95.5148 644.224 95.0196 643.213 94.2768C635.532 90.315 627.446 87.3436 618.956 84.8675C613.7 83.3819 608.445 82.1438 602.987 80.9057C601.976 80.9057 600.966 80.9057 600.157 80.1629C598.338 79.6677 596.721 79.4201 594.901 78.9248C593.891 78.9248 592.88 78.9249 592.071 78.182C590.656 77.9344 589.039 77.4392 587.624 77.1916C586.816 76.944 586.209 76.6963 585.401 76.4487C583.986 75.9535 582.369 75.7059 580.954 75.2107C580.145 74.9631 579.539 74.7155 578.73 74.4678C577.315 74.2202 575.698 73.725 574.283 73.4774C573.474 73.2298 572.868 72.9822 572.059 72.7346C570.847 72.4869 569.634 72.2393 568.421 71.7441C567.612 71.4965 567.006 71.2489 566.197 71.0013C565.187 70.7537 564.176 70.506 563.165 70.2584C562.559 70.0108 561.952 70.0108 561.346 69.7632C560.537 69.5156 559.729 69.268 558.92 69.0204C558.314 71.4965 557.505 73.725 555.08 75.2107C554.675 75.4583 554.675 75.9535 554.473 76.4487C556.899 77.1916 559.324 77.6868 561.75 78.4296C562.559 78.4296 563.367 78.4296 563.974 79.1725C565.187 79.4201 566.399 79.6677 567.612 80.1629C568.421 80.1629 569.229 80.1629 569.836 80.9057C571.049 81.1534 572.262 81.401 573.474 81.8962C574.485 82.1438 575.496 81.8962 576.304 82.8866C583.581 84.8675 590.858 86.8484 598.136 88.5817C609.455 91.553 620.775 94.2768 631.489 98.7338C633.915 99.7242 636.34 100.962 638.968 102.2C639.777 102.448 640.585 102.943 641.596 103.191Z" fill="#F19D84"/>
<path d="M186.576 45.2496C187.587 45.2496 188.598 45.002 189.608 45.002C212.45 40.545 235.494 36.3356 258.336 31.8786C262.177 31.1358 266.018 30.6406 269.858 29.8977C271.071 29.6501 272.284 29.4025 273.497 29.1549C274.103 26.9264 274.103 24.4503 275.518 22.2218C275.923 21.7265 275.72 20.9837 275.923 20.2409C274.305 20.4885 272.688 20.4885 271.071 20.7361C251.261 24.4503 231.654 28.1644 211.844 31.8786C204.365 33.3643 197.088 34.85 189.608 36.088C188.8 36.3356 187.991 36.5832 187.183 36.8308C187.587 39.0593 187.587 41.2879 186.172 43.2688C185.566 44.0116 185.768 44.7544 186.576 45.2496Z" fill="#F19D84"/>
<path d="M449.158 5.13654C448.551 6.62221 447.945 8.3555 447.338 9.84117C447.136 10.3364 446.328 10.584 445.923 10.8316C445.519 11.3268 445.115 11.8221 444.508 12.3173C444.913 12.3173 445.519 12.5649 445.923 12.5649C446.125 12.5649 446.328 12.5649 446.53 12.8125C448.551 13.5553 450.573 14.0506 452.594 14.7934C462.095 17.7647 471.595 20.7361 481.096 23.955C490.394 27.174 499.693 30.1453 509.193 32.8691C513.843 34.1071 518.694 35.0976 523.343 36.3356C523.95 36.3356 524.758 36.3356 525.163 36.8308C526.173 37.0785 527.184 37.3261 528.195 37.5737C528.801 36.5832 529.812 35.8404 530.216 34.85C530.823 33.3643 530.823 31.8786 531.227 30.1453V29.8977C530.014 29.4025 529.003 28.9073 527.79 28.6597C511.417 24.6979 495.448 19.7456 479.681 14.2982C472.404 11.8221 464.925 9.59356 457.647 7.11744C456.435 6.62221 455.02 6.62221 453.605 6.12699C453.2 5.87938 452.796 5.87938 452.392 5.63177C451.179 5.63177 450.168 5.38416 449.158 5.13654Z" fill="#F19D84"/>
<path d="M703.653 114.829C703.451 116.067 703.047 117.552 702.845 118.79C702.642 120.771 701.632 122.009 699.61 122.257C701.632 123.743 703.855 125.476 705.877 126.962C708.302 128.695 710.728 130.428 713.356 132.161C713.558 132.409 713.76 132.409 713.962 132.657C714.165 132.904 714.367 132.904 714.771 133.152C714.973 133.399 715.175 133.399 715.377 133.647C721.442 138.352 727.708 143.056 733.772 147.761C739.432 152.218 744.89 156.923 750.348 161.627C754.593 165.341 758.636 168.808 762.88 172.522C763.487 173.017 764.093 173.265 764.7 173.76C766.115 173.513 767.125 172.77 767.53 171.779C768.136 170.046 769.753 169.056 771.168 167.817C770.966 167.57 770.764 167.322 770.562 167.075C758.231 156.675 746.305 145.532 733.166 135.876C730.74 134.142 728.314 132.409 725.889 130.676C725.687 130.428 725.484 130.428 725.282 130.18C723.463 128.942 721.442 127.457 719.622 126.219C719.218 125.971 718.814 125.723 718.409 125.476V125.228C718.005 124.981 717.601 124.733 717.197 124.485V124.238C716.995 123.99 716.792 123.743 716.792 123.743C716.186 123.247 715.58 123 714.973 122.505C714.569 122.257 714.165 122.009 713.76 121.762H713.558C709.92 119.286 706.887 117.057 703.653 114.829Z" fill="#F19D84"/>
<path d="M638.564 183.665C638.362 184.655 637.957 185.893 637.755 186.884C637.553 188.122 636.947 188.864 635.734 189.607C635.127 189.36 634.319 189.112 633.51 188.864C632.904 188.617 632.297 188.864 631.893 189.36C635.127 192.331 639.17 194.56 643.213 196.54C652.309 200.997 662.012 204.216 672.119 206.692C674.747 207.435 677.173 207.931 679.598 208.673C684.248 215.854 689.908 222.044 696.376 227.739C698.397 229.72 700.823 231.454 703.047 233.187C705.068 233.435 705.877 232.444 706.079 230.711C706.281 229.225 706.685 227.739 707.898 226.501C706.281 225.016 704.664 223.282 702.845 221.797C696.78 216.102 691.323 210.159 687.28 203.474C686.269 201.74 684.652 200.75 682.63 200.255C678.992 199.512 675.556 198.521 672.119 197.778C665.044 196.045 658.171 193.569 651.703 190.845C647.054 189.112 642.809 186.388 638.564 183.665Z" fill="#F19D84"/>
<path d="M186.576 45.2496C185.768 44.7544 185.566 43.764 186.172 43.2687C187.587 41.2879 187.587 39.0593 187.183 36.8308C185.363 37.0785 183.746 37.3261 181.927 37.5737C172.224 39.5546 162.521 41.0402 152.414 41.5355C142.307 42.0307 132.2 41.2879 122.498 39.307C117.444 38.3165 112.593 37.0785 107.741 35.0976C106.933 34.8499 106.124 34.6023 105.113 34.3547C103.901 36.8308 102.486 39.307 102.081 42.0307C103.496 42.5259 104.911 43.2688 106.326 43.764C114.816 46.7353 123.71 48.7162 132.605 49.7067C142.307 50.6971 152.01 50.6971 161.713 49.7067C169.192 48.9638 176.671 47.7258 183.948 46.2401C184.959 45.9925 185.768 45.7449 186.576 45.2496Z" fill="#F19D84"/>
<path d="M275.923 20.2409C275.72 20.9837 275.923 21.7265 275.518 22.2217C274.103 24.4503 274.103 26.6788 273.497 29.1549C276.731 28.6597 279.965 28.1644 283.2 27.6692C306.446 23.7074 329.49 19.9932 352.938 16.7743C353.949 16.5267 355.162 16.2791 356.173 16.0315C356.779 13.0601 357.385 10.3364 357.79 7.36504C352.736 8.10788 347.481 8.6031 342.427 9.34594C331.714 10.8316 321 12.5649 310.287 14.2982C299.573 16.0315 288.657 17.7647 277.944 19.7456C277.338 19.7456 276.529 19.9932 275.923 20.2409Z" fill="#F19D84"/>
<path d="M411.559 154.199C410.953 157.17 410.346 159.894 409.74 162.865C410.953 162.618 411.964 162.618 413.176 162.37C426.113 159.894 438.848 157.418 451.785 155.189C463.105 153.208 474.425 151.723 485.947 150.98C486.756 150.98 487.767 150.732 488.575 150.732C488.979 149.989 489.384 149.247 489.788 148.256C490.192 146.275 490.596 144.294 491.001 142.313C488.777 142.313 486.756 142.313 484.532 142.313C470.585 143.056 457.041 145.285 443.295 147.761C433.188 149.494 423.283 151.723 413.379 153.456C412.772 153.951 412.166 153.951 411.559 154.199Z" fill="#F19D84"/>
<path d="M490.799 142.561C490.394 144.542 489.99 146.523 489.586 148.504C489.384 149.247 488.777 150.237 488.373 150.98C492.82 150.98 497.469 150.98 501.916 150.98C512.226 151.227 522.535 152.713 532.44 154.942C542.951 157.17 553.058 160.389 563.165 163.608C563.367 163.608 563.367 163.608 563.569 163.608C563.367 163.113 563.165 162.865 563.165 162.37C563.165 162.122 563.367 161.627 563.771 161.627C563.974 161.627 564.58 161.627 564.782 161.875C565.186 162.37 565.389 163.113 565.793 163.608C568.016 162.618 568.016 162.618 570.038 157.665C571.453 157.665 573.07 157.913 574.687 157.913C569.431 156.923 564.378 154.942 559.324 153.208C545.781 148.999 532.035 145.532 517.683 143.552C512.023 142.809 506.363 142.313 500.703 142.561C500.299 143.056 499.895 143.799 499.693 144.294C499.086 145.532 498.48 147.018 497.671 148.751C497.267 147.761 496.863 147.513 497.065 147.266C497.267 145.78 497.671 144.047 497.874 142.561C497.267 142.561 496.863 142.561 496.256 142.561C496.054 142.809 495.852 142.809 495.852 142.561C494.639 142.561 493.629 142.561 492.416 142.561C492.214 142.809 492.011 142.809 491.809 142.561C491.607 142.561 491.203 142.561 490.799 142.561Z" fill="#F19D84"/>
<path d="M426.72 242.101C425.709 242.349 424.496 242.349 423.486 242.596C413.985 244.825 404.484 247.053 394.984 249.282C382.249 252.501 369.514 255.72 356.779 258.939C355.97 259.186 355.364 259.434 354.758 259.681C354.151 262.653 353.545 265.624 353.141 268.595C353.949 268.595 354.758 268.348 355.364 268.348C359.407 266.862 363.652 266.367 367.695 265.376C371.738 264.386 375.982 263.148 380.025 262.158C393.973 258.691 407.921 255.224 422.071 251.758C423.486 251.51 424.698 251.015 426.113 250.767C426.316 248.044 427.326 245.072 426.72 242.101Z" fill="#F19D84"/>
<path d="M62.0573 24.4503C61.8552 21.4789 61.4509 19.0028 61.8552 16.5267C62.2595 16.0315 62.6638 15.5362 63.2702 15.041C70.3451 18.5076 77.6222 21.9741 84.6972 25.4407C90.7614 28.1644 96.8256 30.8882 103.092 33.3643C103.901 33.6119 104.709 34.1071 105.316 34.6023C104.103 37.0785 102.688 39.5546 102.283 42.2783C98.4427 40.7926 94.6021 39.5546 90.7614 37.8213C81.0586 33.3643 71.558 28.9073 62.0573 24.4503Z" fill="#F19D84"/>
<path d="M258.336 284.195C257.73 285.928 257.326 287.909 256.315 289.642C255.506 291.128 255.102 292.614 254.9 294.099C257.326 293.357 259.953 292.614 262.379 291.871C273.901 288.404 285.221 284.69 296.945 281.719C304.222 279.738 311.904 278.252 319.383 276.767C321 276.519 322.617 276.024 324.032 275.529C323.224 274.786 323.426 274.043 323.628 273.3C324.032 271.072 324.437 269.091 324.841 266.862C323.022 267.11 321.202 267.357 319.181 267.853C302.807 270.824 287.04 275.033 271.273 279.986C268.039 280.976 264.603 281.966 261.368 283.205C260.358 283.205 259.347 283.7 258.336 284.195Z" fill="#F19D84"/>
<path d="M426.72 242.101C427.326 245.072 426.316 247.796 425.709 250.767C429.954 250.025 433.997 249.034 438.242 248.291C450.573 246.063 462.701 243.587 475.234 242.596C478.872 242.349 482.511 241.853 486.149 241.606C486.756 241.606 487.16 241.358 487.767 241.358C488.575 241.358 489.384 241.358 490.192 241.358C490.394 241.358 490.597 241.358 490.799 241.358C491.203 241.358 491.809 241.358 492.214 241.358C492.618 240.12 493.224 238.882 493.629 237.644C494.437 235.911 495.246 234.425 496.054 232.939C490.596 233.187 484.937 233.435 479.479 233.682C466.542 234.425 453.807 236.901 441.072 239.13C437.231 239.872 433.391 240.615 429.752 241.358C428.943 241.606 427.731 241.853 426.72 242.101Z" fill="#F19D84"/>
<path d="M695.365 240.615C694.961 242.101 694.759 243.339 694.355 244.825C693.95 246.31 693.142 247.796 691.12 248.291C692.333 249.282 693.546 250.52 694.961 251.51C702.845 257.701 711.132 263.891 720.027 269.091C726.091 272.557 732.357 275.281 739.23 277.014C743.273 278.005 747.518 278.748 751.763 278.252C752.369 275.529 752.774 272.805 753.38 270.081C750.146 270.081 747.114 270.081 744.081 269.586C738.219 268.595 732.762 266.367 727.708 263.643C719.218 259.186 711.739 253.739 704.462 248.044C701.228 245.072 698.195 242.844 695.365 240.615Z" fill="#F19D84"/>
<path d="M496.256 232.692C495.448 234.177 494.639 235.911 493.831 237.396C493.224 238.634 492.82 239.872 492.416 241.111C498.278 240.863 503.938 240.615 509.8 240.12C515.864 239.625 522.13 238.882 528.195 238.387C535.067 237.892 541.94 237.892 549.015 237.396C551.441 237.149 554.069 236.901 556.494 236.654C555.484 235.415 556.292 233.93 556.696 232.692C557.303 231.206 558.111 229.473 558.92 227.987C553.26 228.235 547.6 228.73 541.94 228.978C530.62 229.225 519.3 230.463 507.981 231.454C505.151 231.701 502.118 231.949 499.288 232.197C498.884 232.197 498.48 232.197 498.076 232.197C497.469 232.692 496.863 232.692 496.256 232.692Z" fill="#F19D84"/>
<path d="M707.898 226.749C706.685 227.987 706.281 229.473 706.079 230.958C705.877 232.692 704.866 233.435 703.047 233.435C703.249 233.682 703.451 233.93 703.653 234.177C715.377 243.834 728.314 251.758 742.666 257.701C746.305 259.186 749.944 260.672 753.986 261.415C756.008 259.186 756.614 256.462 757.827 253.986C757.423 253.739 756.816 253.739 756.412 253.491C755.604 253.244 754.997 252.996 754.189 252.748C753.38 252.501 752.774 252.253 751.965 252.005C751.561 251.758 751.156 251.758 750.55 251.51C749.741 251.263 749.135 251.015 748.326 250.767C747.922 250.52 747.316 250.272 746.911 250.272C746.507 250.025 745.901 250.025 745.497 249.777C745.092 249.529 744.688 249.282 744.081 249.034C740.039 247.053 736.198 245.32 732.155 243.339C731.953 243.091 731.549 243.091 731.347 242.844C731.144 242.844 730.942 242.596 730.538 242.596C730.336 242.349 730.134 242.349 729.932 242.101C729.729 241.853 729.325 241.853 729.123 241.606C728.921 241.606 728.921 241.606 728.719 241.358C728.314 241.111 727.708 240.863 727.304 240.368C727.102 240.12 726.899 240.12 726.495 239.872C726.293 239.625 726.091 239.625 725.687 239.377C725.484 239.377 725.282 239.377 724.878 239.13C724.07 238.387 723.261 237.644 722.452 237.149C717.601 234.425 713.558 230.711 709.111 227.244C708.909 227.492 708.505 226.997 707.898 226.749Z" fill="#F19D84"/>
<path d="M471.797 169.303C470.989 168.808 470.382 168.065 469.372 167.57C466.542 166.332 463.712 167.817 462.903 170.541C462.701 171.284 462.701 171.779 462.701 172.522C462.903 182.922 462.701 193.569 463.712 203.969C463.914 206.197 464.318 208.178 464.722 210.407C464.925 211.397 465.127 212.14 465.531 213.13C466.34 214.616 468.361 215.607 470.18 215.359C472 215.111 473.819 213.873 474.223 212.14C474.425 211.15 474.425 210.159 474.223 209.169C472.606 199.264 472.606 189.112 472.606 179.208C472.606 177.722 472.404 176.236 472.404 174.998C472.202 173.017 472 171.284 471.797 169.303Z" fill="#F19D84"/>
<path d="M473.617 179.455C474.223 185.398 475.032 191.341 475.436 197.283C475.84 200.502 475.84 203.721 476.042 206.94C476.042 207.931 476.042 208.921 476.447 209.911C477.053 211.892 479.075 213.13 481.298 213.13C483.724 212.883 485.341 211.645 485.745 209.664C485.947 208.673 485.745 207.683 485.745 206.693C485.139 195.055 483.724 183.169 482.511 171.532C482.511 171.036 482.309 170.294 482.107 169.798C480.894 166.332 476.649 165.589 474.021 168.065C473.617 168.56 473.212 169.303 472.808 169.798C472.808 170.789 473.01 171.779 473.01 172.77C473.415 174.751 473.617 176.979 473.617 179.455Z" fill="#F19D84"/>
<path d="M447.743 181.684C446.934 187.131 447.136 192.579 447.136 198.026C447.136 201.493 447.136 204.959 447.338 208.178C447.338 208.921 447.338 209.664 447.54 210.159C447.945 212.14 449.966 213.626 451.988 213.626C454.413 213.626 456.435 212.14 456.839 210.159C457.041 209.416 456.839 208.921 457.041 208.178C457.041 201.74 457.041 195.055 457.041 188.617C457.041 185.893 457.445 183.169 457.85 180.446C457.85 179.703 458.052 178.96 458.052 177.97C457.85 175.989 456.233 174.255 454.009 174.008C451.583 173.76 449.36 174.998 448.753 176.979C448.551 177.722 448.551 178.465 448.349 179.208C447.945 180.446 447.945 180.941 447.743 181.684Z" fill="#F19D84"/>
<path d="M324.841 266.615C324.436 268.843 324.032 270.824 323.628 273.052C323.426 273.795 323.224 274.538 324.032 275.281C327.064 274.786 329.894 274.291 332.926 273.548C337.778 272.557 342.629 271.319 347.481 270.081C348.289 269.834 349.098 269.834 349.906 269.586C350.917 269.338 351.928 269.091 353.141 268.595C353.747 265.624 354.353 262.653 354.758 259.681C350.513 260.672 346.268 261.415 342.023 262.405C336.565 263.643 331.309 264.881 325.851 266.119C325.447 266.367 325.245 266.615 324.841 266.615Z" fill="#F19D84"/>
<path d="M789.563 273.795V274.043C789.361 275.281 789.159 276.767 788.755 278.005C788.35 279.243 787.34 280.233 786.531 281.471C786.935 281.471 787.542 281.719 787.946 281.719C789.765 281.966 791.585 282.214 793.404 282.709C794.414 282.709 795.425 282.957 796.234 282.957C795.829 280.233 796.436 277.509 797.042 274.786C794.617 274.291 791.989 274.043 789.563 273.795Z" fill="#F19D84"/>
<path d="M797.042 274.786C796.436 277.509 795.829 280.233 796.234 282.957C797.042 282.957 797.851 282.957 798.659 283.205C801.287 280.976 802.096 278.005 802.5 275.033C800.681 274.786 798.862 274.786 797.042 274.786Z" fill="#F19D84"/>
<path d="M497.874 142.313C497.672 143.799 497.267 145.532 497.065 147.018C497.065 147.266 497.267 147.761 497.672 148.504C498.48 146.77 499.087 145.285 499.693 144.047C499.895 143.552 500.299 142.809 500.704 142.313C499.895 142.313 498.884 142.313 497.874 142.313Z" fill="#F19D84"/>
<path d="M553.058 76.2011C552.047 75.2107 551.239 74.2202 550.228 73.2298C548.005 73.9726 548.005 73.9726 545.781 73.725C548.005 75.2107 550.43 75.7059 553.058 76.2011Z" fill="#F19D84"/>
<path d="M576.304 82.8866C575.496 81.8962 574.485 82.1438 573.474 81.8962C574.283 82.639 575.294 82.8866 576.304 82.8866Z" fill="#F19D84"/>
<path d="M600.157 80.1629C600.966 80.9057 601.976 80.9057 602.987 80.9057C602.178 80.4105 601.168 80.1629 600.157 80.1629Z" fill="#F19D84"/>
<path d="M592.071 78.182C592.88 78.9248 593.891 78.9248 594.901 78.9248C594.093 78.4296 593.082 78.182 592.071 78.182Z" fill="#F19D84"/>
<path d="M534.461 30.6405C535.472 30.8882 536.28 31.1358 537.291 31.3834C536.28 31.3834 535.27 30.8882 534.461 30.6405Z" fill="#F19D84"/>
<path d="M563.974 79.4201C563.367 78.6772 562.559 78.6772 561.75 78.6772C562.559 78.9248 563.165 79.1725 563.974 79.4201Z" fill="#F19D84"/>
<path d="M754.391 252.996C755.199 253.244 755.806 253.491 756.614 253.739C755.806 253.491 754.997 253.244 754.391 252.996Z" fill="#F19D84"/>
<path d="M569.836 80.9057C569.229 80.1629 568.421 80.1629 567.612 80.1629C568.421 80.4105 569.027 80.6581 569.836 80.9057Z" fill="#F19D84"/>
<path d="M561.346 70.0108C561.952 70.2584 562.559 70.2584 563.165 70.506C562.761 70.2584 562.154 70.2584 561.346 70.0108Z" fill="#F19D84"/>
<path d="M537.695 71.7441C537.089 71.4965 536.28 71.2489 535.674 71.0013C536.28 71.2489 537.089 71.4965 537.695 71.7441Z" fill="#F19D84"/>
<path d="M585.401 76.4487C586.209 76.6963 586.816 76.944 587.624 77.1916C587.018 76.6963 586.411 76.4487 585.401 76.4487Z" fill="#F19D84"/>
<path d="M578.932 74.7154C579.741 74.963 580.347 75.2107 581.156 75.4583C580.347 74.7154 579.741 74.4678 578.932 74.7154Z" fill="#F19D84"/>
<path d="M572.261 72.9822C573.07 73.2298 573.676 73.4774 574.485 73.725C573.879 72.9822 573.07 72.7346 572.261 72.9822Z" fill="#F19D84"/>
<path d="M566.399 71.2489C567.208 71.4965 567.814 71.7441 568.623 71.9917C568.017 71.4965 567.208 71.2489 566.399 71.2489Z" fill="#F19D84"/>
<path d="M525.163 37.0785C524.758 36.5832 524.152 36.3356 523.343 36.5832C523.95 36.5832 524.556 36.8308 525.163 37.0785Z" fill="#F19D84"/>
<path d="M540.93 32.6214C541.536 32.8691 542.345 33.1167 542.951 33.3643C542.345 32.8691 541.738 32.6214 540.93 32.6214Z" fill="#F19D84"/>
<path d="M487.767 241.606C487.16 241.606 486.756 241.855 486.149 241.855C486.756 241.606 487.362 241.606 487.767 241.606Z" fill="#F19D84"/>
<path d="M542.142 72.9822C541.738 72.7345 541.132 72.7345 540.727 72.4869C541.132 72.7345 541.536 72.7345 542.142 72.9822Z" fill="#F19D84"/>
<path d="M744.284 249.282C744.688 249.529 745.092 249.777 745.699 250.025C745.092 249.529 744.688 249.529 744.284 249.282Z" fill="#F19D84"/>
<path d="M779.86 279.49C779.456 279.243 779.052 278.995 778.445 278.747C779.052 278.995 779.456 279.243 779.86 279.49Z" fill="#F19D84"/>
<path d="M578.73 157.914C579.134 157.914 579.741 157.914 580.145 157.914C579.741 157.664 579.337 157.914 578.73 157.914Z" fill="#F19D84"/>
<path d="M747.113 250.52C747.518 250.767 748.124 251.015 748.528 251.015C748.124 250.767 747.518 250.52 747.113 250.52Z" fill="#F19D84"/>
<path d="M750.752 251.758C751.156 252.005 751.561 252.005 752.167 252.253C751.561 252.005 751.156 252.005 750.752 251.758Z" fill="#F19D84"/>
<path d="M452.19 5.87938C452.594 6.12699 452.998 6.12699 453.403 6.3746C453.2 6.12699 452.594 6.12699 452.19 5.87938Z" fill="#F19D84"/>
<path d="M461.69 36.5832C462.095 36.8308 462.499 36.8308 462.903 37.0785C462.499 36.8308 462.095 36.8308 461.69 36.5832Z" fill="#F19D84"/>
<path d="M457.243 35.0976C457.647 35.3452 458.254 35.3452 458.658 35.5928C458.052 35.5928 457.647 35.3452 457.243 35.0976Z" fill="#F19D84"/>
<path d="M783.499 280.728C783.095 280.481 782.488 280.233 782.084 280.233C782.488 280.233 782.893 280.481 783.499 280.728Z" fill="#F19D84"/>
<path d="M718.207 125.476C718.612 125.723 719.016 125.971 719.42 126.219C719.218 125.723 718.814 125.723 718.207 125.476Z" fill="#F19D84"/>
<path d="M716.995 124.485C717.399 124.733 717.803 124.981 718.207 125.228C717.803 124.981 717.399 124.733 716.995 124.485Z" fill="#F19D84"/>
<path d="M440.061 11.5761C439.657 11.5761 439.253 11.3268 438.848 11.3268C439.253 11.3268 439.657 11.5761 440.061 11.5761Z" fill="#F19D84"/>
<path d="M563.367 236.158C562.963 236.158 562.357 236.408 561.952 236.408C562.357 236.408 562.963 236.158 563.367 236.158Z" fill="#F19D84"/>
<path d="M716.388 123.495C716.59 123.743 716.792 123.99 716.792 123.99C716.792 123.99 716.59 123.743 716.388 123.495Z" fill="#F19D84"/>
<path d="M713.154 121.515H713.355V121.266L713.154 121.515Z" fill="#F19D84"/>
<path d="M775.008 277.262C774.806 277.014 774.604 277.014 774.403 276.767C774.403 277.014 774.604 277.014 775.008 277.262Z" fill="#F19D84"/>
<path d="M725.08 129.933C725.282 130.18 725.484 130.18 725.686 130.428C725.484 130.428 725.282 130.18 725.08 129.933Z" fill="#F19D84"/>
<path d="M771.37 275.281C771.168 275.033 770.966 275.033 770.764 274.786C770.966 275.033 771.168 275.033 771.37 275.281Z" fill="#F19D84"/>
<path d="M770.157 274.291C769.955 274.043 769.753 274.043 769.551 273.795C769.753 274.043 769.955 274.291 770.157 274.291Z" fill="#F19D84"/>
<path d="M768.742 273.549C768.54 273.549 768.338 273.549 768.136 273.3C768.338 273.549 768.54 273.549 768.742 273.549Z" fill="#F19D84"/>
<path d="M561.143 236.406C560.941 236.406 560.739 236.655 560.335 236.655C560.537 236.655 560.941 236.655 561.143 236.406Z" fill="#F19D84"/>
<path d="M618.551 221.797C618.349 221.549 618.147 221.302 617.945 221.302C618.147 221.302 618.349 221.549 618.551 221.797Z" fill="#F19D84"/>
<path d="M725.282 239.625C725.484 239.625 725.686 239.874 726.09 239.874C725.888 239.625 725.484 239.625 725.282 239.625Z" fill="#F19D84"/>
<path d="M726.697 240.12C726.899 240.368 727.101 240.368 727.505 240.615C727.303 240.368 727.101 240.368 726.697 240.12Z" fill="#F19D84"/>
<path d="M728.921 241.606C729.123 241.606 729.123 241.855 729.325 241.855L729.123 241.606H728.921Z" fill="#F19D84"/>
<path d="M730.134 242.101C730.336 242.349 730.538 242.349 730.739 242.596C730.739 242.596 730.538 242.349 730.134 242.101Z" fill="#F19D84"/>
<path d="M777.233 194.56C777.233 194.807 777.434 195.055 777.636 195.055C777.636 194.807 777.434 194.807 777.233 194.56Z" fill="#F19D84"/>
<path d="M565.186 235.911C564.984 235.911 564.58 236.16 564.378 236.16C564.58 235.911 564.984 235.911 565.186 235.911Z" fill="#F19D84"/>
<path d="M465.935 38.0689C466.137 38.0689 466.339 38.3182 466.541 38.3182C466.339 38.3182 466.137 38.3182 465.935 38.0689Z" fill="#F19D84"/>
<path d="M731.549 242.844C731.751 243.091 732.154 243.091 732.356 243.339C732.154 243.339 731.953 243.091 731.549 242.844Z" fill="#F19D84"/>
<path d="M715.175 133.399C714.973 133.152 714.771 133.152 714.569 132.904C714.771 133.152 714.973 133.152 715.175 133.399Z" fill="#F19D84"/>
<path d="M624.212 60.6016C624.414 60.6016 624.414 60.8508 624.616 60.8508L624.414 60.6016H624.212Z" fill="#F19D84"/>
<path d="M713.76 132.409C713.558 132.161 713.356 132.161 713.154 131.914C713.356 132.161 713.558 132.409 713.76 132.409Z" fill="#F19D84"/>
<path d="M359.205 7.36669C359.407 7.36669 359.81 7.11743 360.012 7.11743C359.81 7.11743 359.609 7.36669 359.205 7.36669Z" fill="#F19D84"/>
<path d="M446.529 13.0618C446.327 13.0618 446.125 12.8125 445.923 12.8125C446.125 13.0618 446.327 13.0618 446.529 13.0618Z" fill="#F19D84"/>
<path d="M754.996 277.757C754.794 277.757 754.39 278.006 754.188 278.006C754.39 278.006 754.592 278.006 754.996 277.757Z" fill="#F19D84"/>
<path d="M777.029 278.252C776.828 278.005 776.626 278.005 776.222 277.757C776.626 278.005 776.828 278.005 777.029 278.252Z" fill="#F19D84"/>
<path d="M649.075 97.991C649.277 98.2402 649.277 98.2402 649.479 98.2402L649.277 97.991H649.075Z" fill="#F19D84"/>
<path d="M788.148 273.3C787.34 273.052 786.733 272.805 785.925 272.557C786.733 272.805 787.34 273.052 788.148 273.3Z" fill="#F19D84"/>
<path d="M753.985 269.586C753.783 269.586 753.38 269.835 753.178 269.835C753.582 269.835 753.783 269.586 753.985 269.586Z" fill="#F19D84"/>
<path d="M774.2 216.845C773.998 216.597 773.998 216.349 773.796 216.349C773.998 216.349 773.998 216.597 774.2 216.845Z" fill="#F19D84"/>
<path d="M778.849 269.586C778.647 269.338 778.445 269.338 778.041 269.091C778.445 269.338 778.647 269.586 778.849 269.586Z" fill="#F19D84"/>
<path d="M780.87 270.824C780.668 270.576 780.466 270.576 780.063 270.329C780.466 270.576 780.668 270.576 780.87 270.824Z" fill="#F19D84"/>
</svg>
