<svg width="1003" height="639" viewBox="0 0 1003 639" fill="none" xmlns="http://www.w3.org/2000/svg">
<path d="M178.086 420.568C178.301 424.263 178.516 427.088 178.516 429.696C178.516 480.551 178.301 531.189 178.73 582.044C178.73 589.867 176.582 592.91 168.849 592.041C164.123 591.606 159.182 591.606 154.456 592.041C147.581 592.693 145.004 590.085 145.218 582.913C145.648 553.356 145.433 523.8 145.433 494.025C145.433 491.2 145.218 488.375 143.07 484.898C136.411 495.764 129.751 506.631 123.092 517.714C115.144 530.537 107.195 543.576 99.2469 556.399C94.3061 564.44 85.9281 564.44 80.9872 556.399C65.9498 531.841 50.6976 507.283 33.7268 482.942C33.7268 492.07 33.7268 501.197 33.7268 510.108C33.7268 534.449 33.512 559.007 33.9416 583.348C33.9416 590.085 31.7934 592.693 25.134 592.041C19.9783 591.606 14.8226 591.606 9.88173 592.041C1.93338 592.693 0 589.216 0 581.609C0.21482 531.189 0.21482 480.551 0 430.131C0 422.742 1.93338 419.699 9.45209 420.568C15.2522 421.22 21.2672 421.22 27.0673 420.568C34.8009 419.482 38.6676 423.394 42.3196 429.479C56.9274 453.82 71.75 477.943 86.5725 502.067C87.4318 503.371 88.5059 504.457 90.4393 506.631C97.7432 494.895 104.617 484.028 111.492 472.727C120.729 457.732 129.966 442.953 138.774 427.74C141.781 422.524 145.433 420.134 151.663 420.568C159.826 421.003 168.419 420.568 178.086 420.568Z" fill="#F1A48D"/>
<path d="M536.621 591.823C536.621 534.231 536.621 477.943 536.621 420.568C545.428 420.568 554.021 420.134 562.399 420.786C564.118 421.003 566.911 424.915 566.911 427.306C567.34 440.563 567.125 453.82 567.125 467.294C567.125 470.337 567.125 473.162 567.125 477.291C569.703 475.987 571.207 475.335 572.496 474.249C588.393 462.295 605.793 460.557 623.193 469.467C639.949 477.943 646.609 493.373 646.824 511.629C647.038 535.753 646.824 559.876 647.253 584C647.253 589.867 645.535 592.041 639.52 592.041C615.889 592.475 615.889 592.693 615.889 569.004C615.889 553.356 615.889 537.491 615.889 521.844C615.889 505.109 607.726 495.764 593.119 495.764C577.007 495.764 567.555 505.327 567.34 522.278C567.125 542.707 567.125 562.919 567.34 583.348C567.555 590.085 565.192 592.693 558.533 592.258C551.443 591.606 544.354 591.823 536.621 591.823Z" fill="#F1A48D"/>
<path d="M946.927 529.015C947.572 564.875 921.149 592.693 886.993 594.431C846.392 596.605 818.68 564.223 818.68 531.406C818.465 494.243 844.458 466.207 879.044 464.251C918.142 462.078 949.076 494.025 946.927 529.015ZM883.556 495.547C860.57 495.112 850.903 511.412 850.903 529.45C850.903 546.184 859.496 562.919 882.481 562.919C901.815 563.136 915.564 549.879 915.349 529.667C914.919 511.629 904.823 495.547 883.556 495.547Z" fill="#F1A48D"/>
<path d="M323.519 467.729C321.156 474.031 319.438 479.464 317.504 484.463C298.171 533.797 278.622 583.13 259.503 632.464C257.57 637.245 255.206 639.201 250.051 638.984C242.102 638.549 234.154 638.984 224.272 638.984C229.428 625.944 233.295 614.426 238.665 603.994C245.54 590.737 245.969 579.436 239.095 565.309C224.702 535.753 212.457 504.892 199.353 474.683C198.494 472.727 198.064 470.771 196.775 467.294C207.516 467.294 217.398 466.642 227.065 467.729C229.428 467.946 232.221 472.727 233.51 475.77C241.888 496.633 249.836 517.497 257.784 538.578C258.644 540.751 259.718 542.924 261.436 546.836C268.74 525.973 274.97 506.631 282.274 487.506C291.726 462.73 283.992 467.729 311.06 467.077C314.927 466.859 318.578 467.294 323.519 467.729Z" fill="#F1A48D"/>
<path d="M518.146 495.547C510.628 499.893 503.109 504.675 495.161 508.586C493.442 509.456 489.575 507.935 487.857 506.413C474.967 494.025 458.641 491.852 444.033 500.98C433.292 507.717 428.137 523.8 432.003 539.23C435.226 552.922 444.893 561.615 458.211 562.919C469.812 564.005 479.908 562.049 488.071 552.487C489.575 550.748 493.872 549.662 496.02 550.531C503.753 554.226 510.842 558.789 518.361 563.136C510.198 584.217 477.33 598.995 450.908 593.779C418.899 587.477 398.277 561.615 398.491 528.363C398.706 496.416 420.618 469.685 451.552 465.121C481.197 460.557 506.976 473.379 518.146 495.547Z" fill="#F1A48D"/>
<path d="M768.842 483.811C779.798 472.293 791.613 463.817 808.798 465.121C808.798 475.118 809.013 484.463 808.798 493.808C808.583 499.676 803.643 498.372 800.205 498.155C788.605 497.937 778.509 501.632 773.353 512.498C770.131 519.236 768.412 527.494 768.197 535.101C767.338 551.4 767.768 567.7 767.982 584C768.197 589.867 766.264 592.041 760.249 592.258C736.619 592.91 736.619 593.127 736.619 569.221C736.619 538.361 736.833 507.282 736.404 476.422C736.404 469.467 738.122 465.99 745.426 467.077C746.715 467.294 748.004 467.077 749.508 467.077C766.049 466.859 766.049 466.859 768.842 483.811Z" fill="#F1A48D"/>
<path d="M676.469 466.859C685.921 466.859 694.299 466.859 702.462 466.859C706.759 466.859 707.833 469.25 707.833 473.162C707.833 510.542 707.833 548.14 707.833 585.521C707.833 590.085 705.899 592.041 701.603 591.823C701.173 591.823 700.529 591.823 700.099 591.823C676.469 592.693 676.469 592.693 676.469 569.221C676.469 538.578 676.469 507.935 676.469 477.291C676.469 474.249 676.469 471.423 676.469 466.859Z" fill="#F1A48D"/>
<path d="M984.736 594.214C973.78 594.214 966.691 586.825 966.691 575.958C966.691 565.744 975.069 557.486 985.165 557.703C995.477 557.92 1003.21 565.744 1003 576.393C1003 586.825 995.477 594.214 984.736 594.214Z" fill="#F1A48D"/>
<path d="M707.833 433.173C707.833 443.388 701.388 450.125 691.292 449.908C681.625 449.69 674.75 443.171 674.75 433.825C674.536 424.915 682.484 416.222 691.292 416.004C700.099 415.787 707.833 423.611 707.833 433.173Z" fill="#F1A48D"/>
<path d="M57.3213 211.642C124.821 238.834 163.321 275.676 172.135 284.964C201.321 312.956 246.155 324.902 290.62 320.493C319.391 317.64 346.593 308.045 374.056 300.524C441.015 282.37 508.496 265.254 577.024 254.103C605.272 249.435 634.044 249.175 662.815 248.138C684.001 247.36 702.571 242.951 713.295 222.723C717.219 215.202 720.88 219.87 724.281 222.464C737.097 232.059 749.652 242.433 764.299 248.916C774.761 253.584 785.223 257.993 796.732 252.806C802.486 250.213 805.625 253.843 809.548 256.696C819.226 263.439 828.38 270.441 838.058 276.924C847.212 283.149 857.936 289.373 868.137 287.817C886.184 284.964 902.662 289.891 919.663 292.485C946.865 296.634 963.769 280.914 979.201 261.463C982.302 255.944 985.431 252.779 979.821 245.804C964.39 226.613 941.373 216.499 923.325 200.42C880.168 160.741 830.473 128.583 784.177 92.0167C765.345 76.9751 742.851 68.1577 720.096 60.6369C663.6 41.9646 606.057 26.6637 548.776 11.6221C528.898 6.43534 509.019 10.5847 489.141 13.1781C417.998 21.9956 349.35 24.1885 281.821 29.6272C226.821 38.6351 194.821 27.8728 194.821 27.8728C162.821 16.9081 183.821 23.0483 146.821 11.645L117.321 1.99607C117.321 1.99607 81.8213 -5.02136 102.321 7.25914L146.821 24.3641L194.821 43.662C224.321 49.8023 228.821 45.5953 242.821 45.5953L321.821 37.5218C334.321 37.5218 454.616 26.923 521.836 18.1055C533.083 16.5495 544.853 18.6242 555.315 21.9956C610.242 40.1492 667.261 50.7821 721.665 70.7511C745.728 79.5685 768.745 90.7201 788.885 107.318C826.811 138.438 869.183 164.372 905.801 198.086C909.201 201.198 914.171 203.532 911.294 210.534C879.645 187.453 847.212 166.187 817.395 141.55C784.962 114.579 750.175 95.1288 708.326 86.5707C660.984 76.9752 615.473 60.3775 570.224 43.7799C535.96 31.0724 501.696 35.7405 467.17 41.7052C464.032 42.2239 459.324 43.002 460.631 47.9294C461.939 52.3381 466.386 51.0414 469.524 50.782C481.556 49.226 493.849 47.9293 505.619 45.5953C527.851 41.1866 549.038 46.114 569.439 53.6348C622.273 72.5664 675.893 89.164 730.558 101.872C762.468 109.133 786.27 129.361 810.594 149.071C827.857 163.075 845.12 176.82 863.952 188.49C869.968 192.121 874.676 195.752 871.014 203.791C870.229 205.607 870.491 208.2 871.014 210.275C872.845 220.648 905.539 245.804 916.263 246.063C919.402 246.063 924.11 241.136 925.679 247.879C926.987 253.065 924.633 256.696 919.663 259.549C906.062 267.329 891.677 266.81 877.814 262.661C852.182 255.399 830.734 240.876 813.733 220.129C808.502 213.905 803.009 209.237 794.639 207.681C772.145 203.532 752.529 193.418 738.143 175.264C730.296 165.15 720.357 163.335 709.372 166.187C699.171 168.521 690.017 167.225 680.078 163.594C636.921 147.774 592.979 150.108 548.776 158.666C525.236 163.335 501.696 167.225 478.156 169.818C454.093 172.671 430.814 165.15 407.012 161.779C387.134 158.926 367.256 156.592 347.639 162.297C338.746 164.891 330.899 169.559 323.837 175.264C321.222 177.339 319.652 180.192 321.745 183.304C324.099 186.675 327.237 185.378 329.591 183.304C352.085 163.335 379.549 164.631 405.181 171.374C457.231 185.119 507.712 176.82 558.715 166.447C592.717 159.444 626.72 157.37 660.722 167.743C664.384 168.781 668.308 168.781 671.446 173.189C662.553 173.189 654.183 173.449 646.075 173.189C638.49 172.93 634.828 176.042 635.09 183.822C635.351 196.011 635.351 207.941 635.09 220.129C634.828 227.391 637.705 230.244 645.029 229.984C654.968 229.725 665.169 230.762 675.108 229.466C687.14 228.169 698.648 223.501 703.095 211.053C707.279 199.123 701.787 189.268 692.371 181.229C691.325 180.451 688.447 180.97 689.755 178.635C690.54 177.079 692.632 178.376 693.94 179.673C709.633 185.378 714.603 194.714 709.372 209.497C702.31 229.984 691.586 237.246 669.354 237.764C602.134 239.839 536.483 250.991 471.094 266.551C417.998 279.518 365.163 294.3 312.067 307.526C267.603 318.418 214.507 300.848 191.821 282.255C140.321 240.045 101.821 219.536 101.821 219.536C101.821 219.536 81.8213 205.063 39.8213 191.905C39.8213 191.905 -10.1787 184.449 57.3213 211.642ZM711.203 177.079C718.526 171.374 724.281 173.449 729.512 179.673C746.251 199.901 768.222 211.312 793.593 216.758C797.778 217.536 800.917 219.092 803.532 222.204C822.626 245.545 846.951 261.883 875.722 270.96C878.599 271.997 882.522 272.516 881.999 276.146C881.476 280.036 877.291 278.999 874.414 279.258C861.075 279.777 849.566 274.072 839.627 266.551C801.963 238.283 762.206 212.349 721.927 187.972C717.742 185.378 713.557 182.785 711.203 177.079ZM645.29 202.235C645.29 197.826 645.552 193.677 645.29 189.268C645.029 184.082 646.86 180.97 652.614 181.488C663.338 182.526 674.323 182.785 684.001 188.49C690.278 192.38 695.248 197.567 694.463 205.088C693.678 212.09 688.186 216.239 681.908 219.092C671.969 223.501 661.507 221.945 651.045 221.945C646.598 221.945 645.029 219.351 645.029 215.202C645.291 210.793 645.29 206.644 645.29 202.235ZM897.954 275.109C928.556 271.478 937.711 263.439 936.926 241.136C945.557 244.248 952.62 250.991 962.297 250.731C970.928 250.472 970.667 254.621 967.267 260.327C952.358 286.779 915.217 291.447 897.954 275.109ZM792.024 243.989C776.33 246.323 728.204 220.908 722.188 208.2C721.404 206.903 721.142 204.569 721.927 203.273C722.973 200.939 725.588 201.198 727.419 202.235C748.867 215.461 770.838 227.91 792.024 243.989ZM919.14 233.615C917.832 236.208 915.478 237.764 913.124 236.468C900.831 229.206 890.107 220.129 881.476 208.978C880.691 207.681 881.215 204.31 882.261 203.273C884.092 201.457 886.184 203.532 887.753 204.829C898.739 212.09 907.37 221.686 916.525 230.762C917.571 231.281 918.094 232.318 919.14 233.615ZM963.957 242.808C951.141 239.955 938.273 240.278 922.409 211.186C928.686 214.298 959.773 236.324 963.957 242.808ZM679.816 170.596C681.385 170.855 683.739 170.855 683.478 172.93C683.478 175.523 681.124 176.561 679.031 176.301C677.985 176.301 676.416 174.227 676.416 172.93C675.893 170.337 678.247 170.855 679.816 170.596Z" fill="#F1A28B"/>
<path d="M604.656 186.07C599.163 183.477 596.286 185.033 596.286 190.998C596.286 201.89 596.548 212.523 596.809 223.415C597.071 227.824 598.902 234.826 603.087 231.714C608.318 227.824 620.088 234.307 619.565 222.896C619.042 211.485 617.211 199.815 615.38 188.404C614.595 183.477 611.456 181.661 607.01 185.552C605.179 197.74 611.195 210.189 607.01 222.637C603.61 210.448 605.702 198.259 604.656 186.07Z" fill="#F1A38B"/>
<path d="M578.5 213.819C580.592 219.265 574.838 230.676 584.254 230.417C593.67 230.417 587.916 219.265 589.224 213.301C590.008 209.151 589.747 204.742 590.531 200.593C591.055 196.703 590.793 193.072 586.87 192.035C581.377 190.738 580.331 195.666 579.808 199.296C578.761 203.705 579.023 208.632 578.5 213.819Z" fill="#F1A48D"/>
<path d="M679.216 170.173C677.312 170.542 674.456 169.804 675.09 173.494C675.408 175.339 676.994 178.291 678.264 178.291C680.803 178.66 683.659 177.184 683.659 173.494C683.977 170.542 681.12 170.173 679.216 170.173Z" fill="#F1A48D"/>
</svg>
