<svg width="121" height="267" viewBox="0 0 121 267" fill="none" xmlns="http://www.w3.org/2000/svg">
<path d="M87.8998 158.91C84.6998 157.91 83.4998 156.11 82.7998 154.41C80.6998 149.21 77.0998 150.81 73.5998 151.91C63.4998 155.11 57.9998 162.91 53.7998 171.81C51.9998 175.61 50.6998 179.71 48.8998 184.11C46.1998 179.01 46.9998 174.71 49.1998 170.41C49.7998 169.31 50.8998 167.71 49.4998 166.81C48.0998 165.91 46.6998 167.11 45.4998 168.11C43.1998 170.11 42.9998 173.51 40.1998 175.61C39.0998 172.21 42.4998 170.51 42.4998 167.31C34.7998 171.21 30.1998 178.01 25.0998 184.31C26.9998 177.71 31.3998 172.91 36.7998 168.31C31.3998 166.51 26.9998 167.31 22.9998 170.61C22.2998 168.61 23.3998 168.21 24.0998 167.61C27.0998 164.81 26.4998 161.41 22.3998 160.71C19.6998 160.21 19.6998 159.41 19.5998 157.01C19.4998 154.41 18.6998 150.61 15.4998 150.31C11.7998 149.91 7.79979 149.91 4.39979 152.11C3.99979 152.41 3.79979 153.31 3.79979 153.91C4.89979 164.61 4.89979 175.41 8.59979 185.91C11.7998 194.91 17.6998 202.11 22.9998 209.81C25.8998 214.01 31.9998 213.21 37.6998 210.61C40.7998 209.21 43.7998 207.61 47.2998 205.91C45.0998 214.61 36.7998 211.91 31.6998 215.81C33.6998 215.61 35.0998 215.41 36.4998 215.21C36.8998 217.01 35.7998 217.31 34.8998 217.31C29.2998 217.41 28.3998 220.71 28.2998 225.51C27.9998 237.61 27.0998 249.81 26.4998 261.91C26.3998 263.31 26.4998 264.91 24.7998 265.61C23.6998 265.31 23.6998 264.51 23.6998 263.61C24.0998 249.91 24.3998 236.31 24.7998 222.61C24.9998 216.21 21.2998 211.51 17.6998 207.11C8.29979 195.41 4.69979 181.61 1.69979 167.31C-0.60021 156.21 -0.000208199 145.11 0.299792 134.11C0.499792 125.51 2.89979 117.51 8.79979 110.71C11.8998 107.11 15.2998 104.41 19.9998 104.01C22.5998 103.81 23.2998 102.21 23.8998 100.21C26.3998 92.2101 31.8998 87.6101 40.1998 87.0101C44.0998 86.7101 46.0998 85.7101 47.4998 81.9101C50.5998 73.1101 58.9998 71.6101 65.7998 71.9101C69.5998 72.1101 71.9998 74.4101 76.8998 81.4101C77.0998 78.4101 77.1998 76.2101 77.2998 74.1101C77.6998 55.3101 77.8998 36.5101 76.2998 17.8101C76.0998 15.0101 76.0998 12.1101 76.3998 9.31008C77.0998 3.41008 79.9998 0.710082 85.6998 0.110082C91.1998 -0.489918 94.1998 1.31008 96.3998 6.81008C101.1 18.5101 102.7 30.9101 103.7 43.4101C105.2 61.1101 105.9 78.9101 107.8 96.6101C108.8 106.11 112 115.41 111.9 125.21C111.9 126.41 112.9 127.71 113.6 128.71C120.9 138.71 122.2 149.11 116.8 160.61C112.3 170.11 108.6 179.91 104.4 189.51C102.4 194.11 99.8998 198.41 96.2998 202.01C90.1998 208.11 91.0998 215.71 92.0998 223.21C93.7998 236.21 95.8998 249.21 97.7998 262.21C97.9998 263.71 99.1998 266.11 96.6998 266.31C94.1998 266.51 95.0998 263.91 94.8998 262.41C92.9998 248.41 91.0998 234.41 89.3998 220.41C88.9998 217.11 88.8998 213.71 88.9998 210.41C88.9998 207.71 88.0998 207.11 85.3998 207.21C78.7998 207.61 72.0998 208.01 65.4998 206.61C59.5998 205.31 52.9998 199.01 51.8998 192.91C55.8998 197.81 60.1998 202.71 66.5998 203.81C72.5998 204.81 78.7998 204.61 84.8998 204.81C78.1998 203.71 71.6998 202.51 65.8998 198.91C65.9998 198.51 66.1998 198.11 66.2998 197.61C69.9998 198.71 73.5998 200.01 77.2998 200.91C92.0998 204.51 97.0998 199.91 102.8 187.61C107.5 177.41 111.1 166.61 115.9 156.31C119.3 149.11 118.9 141.81 113.3 135.41C108.6 130.01 104.2 124.41 99.5998 118.91C98.2998 117.41 97.1998 115.71 94.7998 116.01C91.9998 116.31 93.4998 113.91 93.1998 112.81C92.7998 111.51 92.5998 110.11 91.1998 109.61C88.9998 108.91 90.2998 111.81 88.7998 112.11C87.2998 110.81 87.9998 106.81 85.5998 107.41C82.0998 108.31 84.2998 112.71 82.5998 115.11C80.8998 114.71 81.6998 113.31 81.3998 112.31C80.7998 110.31 83.2998 106.81 78.8998 106.51C75.4998 106.31 71.3998 104.91 70.4998 110.71C69.9998 114.11 67.0998 115.51 63.7998 115.41C59.0998 115.31 54.8998 113.91 52.5998 109.31C52.0998 108.31 52.0998 107.11 51.7998 105.91C49.2998 109.71 50.0998 114.91 53.8998 118.71C58.5998 123.41 64.5998 126.01 70.8998 127.81C74.1998 128.81 76.6998 127.81 78.5998 124.91C79.5998 123.41 80.7998 122.11 82.3998 120.11C82.9998 123.61 80.4998 124.91 79.5998 127.41C83.7998 126.01 84.6998 121.91 87.9998 118.21C87.6998 123.01 85.3998 125.51 83.6998 128.21C82.3998 130.21 79.5998 131.81 81.2998 134.71C82.9998 137.51 85.7998 136.71 88.6998 135.71C86.4998 139.41 89.7998 145.01 94.4998 146.31C96.5998 146.81 98.7998 146.81 100.9 147.11C103 147.41 105.1 146.01 107.8 147.11C102.8 150.61 97.7998 149.31 91.9998 148.21C94.0998 151.51 96.3998 153.51 99.1998 153.61C103.6 153.61 106.2 155.91 108.6 158.91C102.5 159.91 90.8998 154.91 86.9998 149.51C86.0998 148.31 85.7998 145.61 83.5998 146.91C81.4998 148.11 82.6998 150.21 83.5998 151.81C84.6998 154.01 86.0998 156.01 87.8998 158.91ZM8.29979 119.11C11.5998 118.71 10.4998 121.31 10.5998 122.81C11.6998 137.41 19.3998 148.81 28.2998 160.11C26.7998 155.01 29.3998 152.11 33.2998 151.81C39.2998 151.41 37.4998 147.91 36.1998 145.41C31.0998 134.81 27.5998 123.81 25.5998 112.31C24.9998 109.01 22.6998 107.51 18.8998 108.21C12.5998 109.21 9.99979 113.71 8.29979 119.11C5.49979 122.21 5.79979 126.21 4.99979 129.81C4.59979 131.61 6.29979 132.31 7.49979 133.11C8.09979 133.51 8.79979 133.51 9.29979 132.91C10.2998 131.81 9.39979 130.71 8.99979 129.61C7.79979 126.21 6.49979 122.81 8.29979 119.11ZM107.8 124.41C108.2 117.11 106 111.21 105.1 105.21C102.1 86.0101 101.7 66.6101 100.1 47.2101C99.0998 34.4101 97.3998 21.7101 93.0998 9.61008C91.8998 6.21008 90.3998 2.81008 85.7998 3.61008C81.2998 4.51008 79.5998 7.71008 79.4998 12.0101C79.3998 17.0101 79.5998 22.0101 80.2998 26.9101C80.7998 30.3101 82.1998 31.0101 85.3998 30.1101C87.8998 29.4101 90.5998 28.2101 94.1998 31.1101C89.8998 31.3101 86.7998 31.8101 83.8998 32.8101C82.1998 33.3101 80.6998 34.2101 80.7998 36.2101C80.9998 43.2101 81.3998 50.1101 81.6998 57.1101C81.7998 58.3101 82.3998 59.0101 83.5998 58.8101C84.3998 58.7101 85.4998 58.7101 85.9998 58.2101C89.2998 54.1101 94.4998 54.7101 97.3998 59.9101C93.6998 60.1101 89.9998 60.2101 86.3998 60.4101C83.3998 60.6101 81.6998 61.8101 81.3998 65.3101C80.5998 72.1101 80.8998 78.9101 80.7998 85.8101C80.7998 88.8101 84.0998 91.1101 85.1998 90.5101C90.6998 87.4101 95.0998 91.8101 100.1 91.4101C98.1998 92.5101 96.9998 94.5101 94.2998 93.8101C91.4998 93.1101 88.3998 93.4101 85.3998 93.4101C82.9998 93.4101 80.1998 93.2101 80.4998 96.6101C80.7998 99.3101 79.0998 103.21 84.0998 104.11C87.6998 104.71 91.4998 105.61 93.6998 108.91C96.2998 112.71 99.0998 115.71 104.8 113.21C100.6 118.51 104 121.01 107.8 124.41ZM57.8998 147.51C57.1998 141.71 56.6998 136.41 55.7998 131.11C55.0998 127.11 54.6998 123.21 51.4998 119.81C48.0998 116.01 45.5998 111.11 48.9998 105.71C51.9998 100.91 50.1998 96.6101 47.4998 92.8101C44.7998 88.8101 40.6998 90.5101 36.9998 91.2101C34.9998 91.6101 33.3998 92.8101 31.7998 94.1101C25.7998 98.9101 27.2998 105.41 27.8998 111.61C29.3998 126.21 36.3998 139.11 41.0998 152.81C41.5998 154.21 42.0998 155.61 42.6998 157.01C43.2998 158.41 43.6998 159.91 45.5998 161.01C43.8998 155.71 40.2998 150.81 45.8998 146.41C49.3998 143.71 53.9998 144.11 57.8998 147.51ZM65.8998 78.0101C62.5998 77.5101 59.4998 78.8101 56.0998 78.0101C53.2998 77.3101 51.4998 79.5101 51.3998 82.0101C51.1998 86.9101 51.4998 91.9101 51.6998 96.9101C51.8998 100.11 53.4998 102.01 56.9998 102.31C62.2998 102.71 67.4998 103.41 72.7998 103.91C75.0998 104.11 76.9998 103.41 76.6998 100.71C75.9998 93.8101 75.4998 86.8101 71.6998 80.6101C69.7998 77.5101 67.1998 75.5101 63.1998 75.6101C64.0998 76.5101 65.6998 76.2101 65.8998 78.0101ZM62.9998 147.51C62.9998 146.01 62.9998 144.61 62.9998 143.11C63.0998 136.61 64.3998 135.31 70.8998 135.21C71.8998 135.21 72.8998 135.41 73.8998 135.41C74.9998 135.41 76.6998 136.91 76.9998 134.51C77.1998 132.81 76.2998 131.71 74.4998 131.41C69.9998 130.71 65.6998 129.81 61.5998 127.81C60.1998 127.11 57.6998 127.01 57.9998 129.51C58.7998 135.71 57.9998 142.31 62.9998 147.51ZM45.3998 153.11C46.2998 155.91 45.7998 160.21 50.0998 161.51C52.1998 162.21 56.5998 157.91 56.5998 155.71C56.7998 149.71 54.9998 146.51 51.3998 146.61C47.8998 146.91 45.3998 148.51 45.3998 153.11ZM64.4998 142.01C64.8998 145.71 63.9998 149.41 68.5998 149.41C72.3998 149.41 74.7998 146.01 74.8998 141.41C74.9998 137.61 72.7998 137.61 70.0998 137.61C66.3998 137.41 63.7998 138.31 64.4998 142.01ZM62.5998 113.21C65.5998 113.41 67.9998 112.41 68.4998 109.21C69.0998 105.71 65.9998 106.51 64.1998 105.91C62.8998 105.51 61.6998 104.91 60.3998 104.81C58.2998 104.71 55.4998 103.21 54.5998 106.61C53.8998 109.51 55.5998 111.31 58.1998 112.21C59.6998 112.61 61.1998 112.91 62.5998 113.21ZM5.49979 136.31C6.99979 139.01 6.69979 141.01 4.59979 143.01C3.29979 144.21 3.09979 146.51 4.29979 148.01C5.59979 149.71 7.39979 148.41 8.79979 147.61C10.9998 146.41 13.0998 144.91 12.5998 141.91C11.7998 138.51 9.59979 136.71 5.49979 136.31ZM34.5998 153.51C32.0998 153.81 30.3998 155.01 30.6998 157.41C31.0998 160.01 31.0998 163.41 34.7998 163.91C36.8998 164.21 38.6998 162.81 38.4998 160.81C38.2998 158.01 37.6998 154.91 34.5998 153.51Z" fill="#AD8270"/>
<path d="M51.4587 187.505C52.4786 190.625 53.7971 193.64 54.3788 196.84C54.8513 199.439 54.3558 196.445 54.3558 195.369" stroke="#D7B2A2" stroke-opacity="0.01" stroke-width="50" stroke-linecap="round"/>
<path d="M50.631 225.167C50.631 228.311 50.1178 231.496 51.8726 234.18C52.7649 235.545 54.1694 236.455 52.8843 237.997C52.0374 239.013 56.277 239.652 56.7471 239.652C57.6199 239.652 60.2494 240.063 60.8857 240.572C62.54 241.896 62.7352 241.279 62.6332 239.239C62.5649 237.873 61.8615 236.521 61.8054 235.008C61.7402 233.247 60.5032 233.767 59.7361 232.617" stroke="#D7B2A2" stroke-opacity="0.01" stroke-width="50" stroke-linecap="round"/>
<path d="M41.5259 183.113C40.0999 179.905 39.7063 176.813 40.2519 173.906C40.483 174.499 40.6943 175.066 40.8821 175.549C41.4971 177.13 41.4517 178.987 42.0317 180.469C42.9718 182.872 43.5952 185.548 43.5952 188.126C43.5952 191.458 43.049 187.946 42.5376 186.539C42.1214 185.395 42.0004 184.181 41.5259 183.113Z" fill="#AD8270"/>
<path d="M58.9084 217.304C58.9084 209.263 57.2424 201.402 60.4719 193.713C61.7263 190.726 65.1093 189.593 66.266 186.585C68.0343 181.988 72.7186 177.985 72.9799 173.02C73.2196 168.465 78.211 165.875 79.9237 162.259C80.6243 160.78 80.6618 159.034 81.2113 157.523C81.8722 155.705 81.4385 154.007 79.5098 153.982C72.0368 153.885 65.2516 153.179 58.4945 156.649C53.8132 159.053 48.8251 161.582 45.0668 165.34C40.0367 170.37 38.5835 176.493 41.5259 183.113C42.0004 184.181 42.1214 185.395 42.5376 186.539C43.049 187.946 43.5952 191.458 43.5952 188.126C43.5952 185.548 42.9718 182.872 42.0317 180.469C41.4517 178.987 41.4971 177.13 40.8821 175.549C40.2733 173.983 39.4165 171.529 38.4449 170.215C36.6662 167.808 36.1598 164.907 34.881 162.19C33.1479 158.507 34.0665 154.554 32.6277 150.878C31.2699 147.408 28.696 143.511 28.696 139.703C28.696 135.539 29.4472 131.735 32.0069 128.322" stroke="#D7B2A2" stroke-opacity="0.01" stroke-width="50" stroke-linecap="round"/>
<path d="M41.112 131.219C43.3548 131.831 48.7725 135.412 50.631 133.518C52.7318 131.377 54.7736 127.87 53.3441 125.011C52.4496 123.222 52.1268 120.744 51.8496 118.803C51.6802 117.617 51.0073 115.887 51.5507 114.664C51.9102 113.855 52.3169 113.876 53.0222 113.423C54.6777 112.358 55.9297 110.723 57.6667 109.79C59.7403 108.676 61.507 107.778 63.8978 109.123C65.7399 110.159 67.2901 112.859 68.3353 114.664C69.4341 116.562 71.7766 117.733 73.5547 118.964C76.7792 121.196 77.1185 124.462 77.1185 128.138C77.1185 130.69 76.2908 133.168 76.2908 135.771C76.2908 136.971 76.0613 138.469 76.3828 139.634C76.6077 140.45 77.4217 141.347 77.5094 142.048C77.8039 144.404 78.2735 144.976 80.2226 146.325C81.4842 147.199 82.3913 148.072 82.8207 149.521C83.0397 150.26 82.9127 151.145 82.9127 151.912C82.9127 152.79 83.5557 152.633 83.7174 153.361C84.0353 154.791 84.982 155.248 84.982 156.879" stroke="#D7B2A2" stroke-opacity="0.01" stroke-width="50" stroke-linecap="round"/>
<path d="M88.7069 112.181C89.4371 106.613 89.4945 100.717 91.0981 95.3044C92.2168 91.5288 90.9482 86.759 90.7762 82.8883C90.5627 78.0843 89.5346 73.4591 89.5346 68.6328C89.5346 64.9387 89.5346 61.2445 89.5346 57.5504C89.5346 49.2718 90.4226 40.5033 89.5116 32.3044C89.0944 28.5492 87.0514 24.9426 87.0514 21.107C87.0514 18.803 87.0975 15.1981 85.8098 13.2665" stroke="#D7B2A2" stroke-opacity="0.01" stroke-width="20" stroke-linecap="round"/>
<path d="M58.4945 93.9708C58.4945 91.3298 58.3929 88.6563 58.4945 86.0153C58.5708 84.0299 62.9136 84.7186 61.8054 86.935" stroke="#D7B2A2" stroke-opacity="0.01" stroke-width="20" stroke-linecap="round"/>
<path d="M41.5259 102.248C39.1233 102.923 37.1366 103.076 34.6741 103.076C33.0496 103.076 31.9233 102.285 33.8693 101.42C36.0639 100.445 38.7217 100.593 41.112 100.593C41.8387 100.593 46.8665 100.985 45.4346 99.1441C44.2445 97.614 40.615 97.7788 39.4565 98.9372" stroke="#D7B2A2" stroke-opacity="0.01" stroke-width="20" stroke-linecap="round"/>
<path d="M16.2799 120.458C15.0018 120.957 13.9261 121.362 12.5551 121.286C11.4918 121.227 13.3972 120.39 13.5668 120.251C14.4441 119.534 15.3623 116.734 16.4869 116.734C17.8125 116.734 19.1881 116.835 20.5106 116.734C21.7863 116.635 21.6231 115.129 22.488 114.48C23.02 114.081 24.3679 116.844 24.5573 117.147" stroke="#D7B2A2" stroke-opacity="0.01" stroke-width="20" stroke-linecap="round"/>
<path d="M102.778 141.773C103.345 143.047 103.544 144.149 103.593 145.452C103.605 145.46 103.617 145.467 103.629 145.474C104.655 146.073 105.061 146.745 105.905 147.59C106.809 148.494 104.434 145.327 104.434 144.049C104.434 142.798 103.738 140.855 102.686 140.14C101.322 139.213 102.49 141.124 102.778 141.773Z" fill="#AD8270"/>
<path d="M99.8813 156.465C102.164 155.073 103.192 153.448 103.192 150.625C103.192 149.125 103.606 147.743 103.606 146.21C103.606 144.556 103.451 143.286 102.778 141.773C102.49 141.124 101.322 139.213 102.686 140.14C103.738 140.855 104.434 142.798 104.434 144.049C104.434 145.327 106.809 148.494 105.905 147.59C105.061 146.745 104.655 146.073 103.629 145.474C102.584 144.865 101.894 142.172 101.146 141.175C99.1901 138.567 98.2259 135.452 98.2259 132.254C98.2259 129.308 97.4321 126.846 96.4784 124.091C95.7019 121.848 94.501 119.481 94.501 117.147C94.501 116.321 94.7856 115.645 94.8919 114.848C95.0122 113.946 94.501 113.282 94.501 112.411C94.501 110.755 93.6733 109.249 93.6733 107.628C93.6733 106.356 93.0629 104.688 92.5237 103.49C91.8572 102.009 92.1083 100.406 91.374 98.9372C90.6797 97.5485 89.2465 97.6935 88.293 96.6839C87.3751 95.7121 87.0514 94.6302 87.0514 93.35C87.0514 86.9313 87.042 80.546 87.4653 74.1971C87.5365 73.129 88.293 72.2816 88.293 71.185C88.293 70.1657 88.293 69.1463 88.293 68.127C88.293 66.8394 88.293 65.5518 88.293 64.2642C88.293 61.0069 88.293 57.7496 88.293 54.4923C88.293 47.2343 88.293 39.9763 88.293 32.7183" stroke="#D7B2A2" stroke-opacity="0.01" stroke-width="20" stroke-linecap="round"/>
<path d="M14.6244 174.031C14.6244 173.337 14.9077 173.616 15.3274 174.303C15.6562 175.46 15.866 176.605 15.866 177.618C15.866 179.442 16.3442 184.844 15.8431 183.09C15.5608 182.103 15.6272 180.958 15.2223 180.032C14.3802 178.108 14.6244 176.116 14.6244 174.031Z" fill="#AD8270"/>
<path d="M33.2485 200.749C33.2807 202.131 33.2856 204.046 33.7544 205.393C34.0538 206.254 33.118 203.553 32.8346 203.002C31.7851 200.961 30.8066 199.454 29.1098 197.852C28.5335 197.307 27.5309 197.701 27.1325 197.024C26.5835 196.091 25.9285 196.056 25.2011 195.369C24.6218 194.821 23.6292 194.466 23.4076 193.713C23.1074 192.692 22.8182 191.953 22.166 191.138C21.7391 190.604 21.5495 187.728 21.3383 186.907C20.6755 184.329 19.6847 180.48 17.8434 178.492C16.5977 177.146 14.6244 172.198 14.6244 174.031C14.6244 176.116 14.3802 178.108 15.2223 180.032C15.6272 180.958 15.5608 182.103 15.8431 183.09C16.3442 184.844 15.866 179.442 15.866 177.618C15.866 174.977 14.4392 171.437 13.1989 169.134C11.1076 165.25 11.7274 160.227 11.7274 155.844C11.7274 151.199 12.5551 147.193 12.5551 142.577C12.5551 140.032 13.9567 136.572 14.8084 134.139C15.0531 133.44 15.2308 132.203 15.0153 131.449C14.8609 130.908 13.3905 131.633 12.969 131.633" stroke="#D7B2A2" stroke-opacity="0.01" stroke-width="20" stroke-linecap="round"/>
<path d="M75.4631 196.196C76.5253 195.989 81.0051 196.561 81.2802 195.598C81.6814 194.194 81.9356 191.542 83.3266 190.724C84.4185 190.082 85.3959 186.815 85.3959 185.643C85.3959 184.255 87.229 183.707 87.4423 185.413C87.5757 186.48 87.4653 187.627 87.4653 188.701C87.4653 189.697 88.2798 186.88 88.6149 185.942C89.073 184.659 89.7935 183.504 90.2704 182.217C91.1747 179.775 92.4698 178.362 94.2941 176.538C96.3393 174.492 96.3915 172.079 96.8923 169.387C97.4627 166.321 99.1475 163.953 99.8813 161.017" stroke="#D7B2A2" stroke-opacity="0.01" stroke-width="20" stroke-linecap="round"/>
<path d="M72.1521 210.268C70.4652 214.696 74.2348 214.112 74.6353 217.717C74.7398 218.657 75.4631 218.832 75.4631 220.017C75.4631 221.209 75.4172 222.412 75.4631 223.604C75.6634 228.811 76.7047 233.89 76.7047 239.147C76.7047 241.738 77.2636 244.716 78.2682 247.102C78.6493 248.007 78.4829 248.896 78.981 249.792C79.6373 250.974 78.9957 253.173 79.6937 254.046C80.2318 254.718 80.8912 255.381 81.4872 255.977C82.2585 256.749 80.1068 255.836 79.5098 255.793C76.7952 255.599 73.409 253.595 70.9565 252.505C68.7155 251.509 67.2478 251.241 64.8405 251.241C59.4728 251.241 53.9183 252.873 48.7916 254.23C47.2331 254.642 46.3707 255.793 44.6299 255.793C43.6732 255.793 42.712 255.821 41.7558 255.793C38.8287 255.71 34.4901 255.687 34.4901 252.16C34.4901 249.52 35.8839 247.235 36.1456 244.619C36.3065 243.01 37.3872 241.736 37.3872 240.066C37.3872 238.821 37.2514 237.474 37.4792 236.25C37.9302 233.825 37.8011 231.361 37.8011 228.892C37.8011 226.073 38.6288 223.429 38.6288 220.615C38.6288 217.579 38.6288 214.544 38.6288 211.509" stroke="#D7B2A2" stroke-opacity="0.01" stroke-width="20" stroke-linecap="round"/>
</svg>
